G04 #@! TF.FileFunction,Soldermask,Bot*
%FSLAX46Y46*%
G04 Gerber Fmt 4.6, Leading zero omitted, Abs format (unit mm)*
G04 Created by KiCad (PCBNEW 4.0.7) date 07/31/18 16:14:13*
%MOMM*%
%LPD*%
G01*
G04 APERTURE LIST*
%ADD10C,0.100000*%
%ADD11R,2.000000X2.000000*%
%ADD12O,2.000000X2.000000*%
%ADD13R,2.100000X2.100000*%
%ADD14O,2.100000X2.100000*%
%ADD15R,0.900000X1.300000*%
%ADD16R,2.400000X1.000000*%
G04 APERTURE END LIST*
D10*
D11*
X79560000Y-80170000D03*
D12*
X94800000Y-128430000D03*
X79560000Y-82710000D03*
X94800000Y-125890000D03*
X79560000Y-85250000D03*
X94800000Y-123350000D03*
X79560000Y-87790000D03*
X94800000Y-120810000D03*
X79560000Y-90330000D03*
X94800000Y-118270000D03*
X79560000Y-92870000D03*
X94800000Y-115730000D03*
X79560000Y-95410000D03*
X94800000Y-113190000D03*
X79560000Y-97950000D03*
X94800000Y-110650000D03*
X79560000Y-100490000D03*
X94800000Y-108110000D03*
X79560000Y-103030000D03*
X94800000Y-105570000D03*
X79560000Y-105570000D03*
X94800000Y-103030000D03*
X79560000Y-108110000D03*
X94800000Y-100490000D03*
X79560000Y-110650000D03*
X94800000Y-97950000D03*
X79560000Y-113190000D03*
X94800000Y-95410000D03*
X79560000Y-115730000D03*
X94800000Y-92870000D03*
X79560000Y-118270000D03*
X94800000Y-90330000D03*
X79560000Y-120810000D03*
X94800000Y-87790000D03*
X79560000Y-123350000D03*
X94800000Y-85250000D03*
X79560000Y-125890000D03*
X94800000Y-82710000D03*
X79560000Y-128430000D03*
X94800000Y-80170000D03*
D13*
X53980000Y-131830000D03*
D14*
X51440000Y-131830000D03*
X53980000Y-129290000D03*
X51440000Y-129290000D03*
X53980000Y-126750000D03*
X51440000Y-126750000D03*
X53980000Y-124210000D03*
X51440000Y-124210000D03*
X53980000Y-121670000D03*
X51440000Y-121670000D03*
X53980000Y-119130000D03*
X51440000Y-119130000D03*
X53980000Y-116590000D03*
X51440000Y-116590000D03*
X53980000Y-114050000D03*
X51440000Y-114050000D03*
X53980000Y-111510000D03*
X51440000Y-111510000D03*
X53980000Y-108970000D03*
X51440000Y-108970000D03*
X53980000Y-106430000D03*
X51440000Y-106430000D03*
X53980000Y-103890000D03*
X51440000Y-103890000D03*
X53980000Y-101350000D03*
X51440000Y-101350000D03*
X53980000Y-98810000D03*
X51440000Y-98810000D03*
X53980000Y-96270000D03*
X51440000Y-96270000D03*
X53980000Y-93730000D03*
X51440000Y-93730000D03*
X53980000Y-91190000D03*
X51440000Y-91190000D03*
X53980000Y-88650000D03*
X51440000Y-88650000D03*
X53980000Y-86110000D03*
X51440000Y-86110000D03*
X53980000Y-83570000D03*
X51440000Y-83570000D03*
X53980000Y-81030000D03*
X51440000Y-81030000D03*
X53980000Y-78490000D03*
X51440000Y-78490000D03*
X53980000Y-75950000D03*
X51440000Y-75950000D03*
X53980000Y-73410000D03*
X51440000Y-73410000D03*
D13*
X87370000Y-74940000D03*
D14*
X87370000Y-72400000D03*
X89910000Y-74940000D03*
X89910000Y-72400000D03*
X92450000Y-74940000D03*
X92450000Y-72400000D03*
D15*
X57360000Y-73410000D03*
X58860000Y-73410000D03*
X57310000Y-75960000D03*
X58810000Y-75960000D03*
X57260000Y-78500000D03*
X58760000Y-78500000D03*
X57280000Y-81040000D03*
X58780000Y-81040000D03*
X57300000Y-83580000D03*
X58800000Y-83580000D03*
X57280000Y-86110000D03*
X58780000Y-86110000D03*
X57250000Y-88650000D03*
X58750000Y-88650000D03*
X57220000Y-91200000D03*
X58720000Y-91200000D03*
X57190000Y-93730000D03*
X58690000Y-93730000D03*
X57210000Y-96260000D03*
X58710000Y-96260000D03*
X57200000Y-98810000D03*
X58700000Y-98810000D03*
X57200000Y-101350000D03*
X58700000Y-101350000D03*
X57200000Y-103890000D03*
X58700000Y-103890000D03*
X57200000Y-106430000D03*
X58700000Y-106430000D03*
X57180000Y-108960000D03*
X58680000Y-108960000D03*
X57200000Y-111510000D03*
X58700000Y-111510000D03*
X57200000Y-114050000D03*
X58700000Y-114050000D03*
X57210000Y-116590000D03*
X58710000Y-116590000D03*
X57190000Y-119130000D03*
X58690000Y-119130000D03*
X57170000Y-121670000D03*
X58670000Y-121670000D03*
X57170000Y-124210000D03*
X58670000Y-124210000D03*
X57170000Y-126750000D03*
X58670000Y-126750000D03*
X57200000Y-129290000D03*
X58700000Y-129290000D03*
X57200000Y-131820000D03*
X58700000Y-131820000D03*
D11*
X82970000Y-80170000D03*
D12*
X98210000Y-128430000D03*
X82970000Y-82710000D03*
X98210000Y-125890000D03*
X82970000Y-85250000D03*
X98210000Y-123350000D03*
X82970000Y-87790000D03*
X98210000Y-120810000D03*
X82970000Y-90330000D03*
X98210000Y-118270000D03*
X82970000Y-92870000D03*
X98210000Y-115730000D03*
X82970000Y-95410000D03*
X98210000Y-113190000D03*
X82970000Y-97950000D03*
X98210000Y-110650000D03*
X82970000Y-100490000D03*
X98210000Y-108110000D03*
X82970000Y-103030000D03*
X98210000Y-105570000D03*
X82970000Y-105570000D03*
X98210000Y-103030000D03*
X82970000Y-108110000D03*
X98210000Y-100490000D03*
X82970000Y-110650000D03*
X98210000Y-97950000D03*
X82970000Y-113190000D03*
X98210000Y-95410000D03*
X82970000Y-115730000D03*
X98210000Y-92870000D03*
X82970000Y-118270000D03*
X98210000Y-90330000D03*
X82970000Y-120810000D03*
X98210000Y-87790000D03*
X82970000Y-123350000D03*
X98210000Y-85250000D03*
X82970000Y-125890000D03*
X98210000Y-82710000D03*
X82970000Y-128430000D03*
X98210000Y-80170000D03*
D16*
X72280000Y-80010000D03*
X72280000Y-81280000D03*
X72280000Y-82550000D03*
X72280000Y-83820000D03*
X72280000Y-85090000D03*
X72280000Y-86360000D03*
X72280000Y-87630000D03*
X72280000Y-88900000D03*
X72280000Y-90170000D03*
X62880000Y-90170000D03*
X62880000Y-88900000D03*
X62880000Y-87630000D03*
X62880000Y-86360000D03*
X62880000Y-85090000D03*
X62880000Y-83820000D03*
X62880000Y-82550000D03*
X62880000Y-81280000D03*
X62880000Y-80010000D03*
X72280000Y-96390000D03*
X72280000Y-97660000D03*
X72280000Y-98930000D03*
X72280000Y-100200000D03*
X72280000Y-101470000D03*
X72280000Y-102740000D03*
X72280000Y-104010000D03*
X72280000Y-105280000D03*
X72280000Y-106550000D03*
X62880000Y-106550000D03*
X62880000Y-105280000D03*
X62880000Y-104010000D03*
X62880000Y-102740000D03*
X62880000Y-101470000D03*
X62880000Y-100200000D03*
X62880000Y-98930000D03*
X62880000Y-97660000D03*
X62880000Y-96390000D03*
X72150000Y-112780000D03*
X72150000Y-114050000D03*
X72150000Y-115320000D03*
X72150000Y-116590000D03*
X72150000Y-117860000D03*
X72150000Y-119130000D03*
X72150000Y-120400000D03*
X72150000Y-121670000D03*
X72150000Y-122940000D03*
X62750000Y-122940000D03*
X62750000Y-121670000D03*
X62750000Y-120400000D03*
X62750000Y-119130000D03*
X62750000Y-117860000D03*
X62750000Y-116590000D03*
X62750000Y-115320000D03*
X62750000Y-114050000D03*
X62750000Y-112780000D03*
M02*
