G04 #@! TF.FileFunction,Soldermask,Top*
%FSLAX46Y46*%
G04 Gerber Fmt 4.6, Leading zero omitted, Abs format (unit mm)*
G04 Created by KiCad (PCBNEW 4.0.7) date 07/31/18 13:50:20*
%MOMM*%
%LPD*%
G01*
G04 APERTURE LIST*
%ADD10C,0.100000*%
%ADD11R,2.000000X2.000000*%
%ADD12O,2.000000X2.000000*%
%ADD13R,2.100000X2.100000*%
%ADD14O,2.100000X2.100000*%
%ADD15R,1.300000X0.900000*%
G04 APERTURE END LIST*
D10*
D11*
X79560000Y-80170000D03*
D12*
X94800000Y-128430000D03*
X79560000Y-82710000D03*
X94800000Y-125890000D03*
X79560000Y-85250000D03*
X94800000Y-123350000D03*
X79560000Y-87790000D03*
X94800000Y-120810000D03*
X79560000Y-90330000D03*
X94800000Y-118270000D03*
X79560000Y-92870000D03*
X94800000Y-115730000D03*
X79560000Y-95410000D03*
X94800000Y-113190000D03*
X79560000Y-97950000D03*
X94800000Y-110650000D03*
X79560000Y-100490000D03*
X94800000Y-108110000D03*
X79560000Y-103030000D03*
X94800000Y-105570000D03*
X79560000Y-105570000D03*
X94800000Y-103030000D03*
X79560000Y-108110000D03*
X94800000Y-100490000D03*
X79560000Y-110650000D03*
X94800000Y-97950000D03*
X79560000Y-113190000D03*
X94800000Y-95410000D03*
X79560000Y-115730000D03*
X94800000Y-92870000D03*
X79560000Y-118270000D03*
X94800000Y-90330000D03*
X79560000Y-120810000D03*
X94800000Y-87790000D03*
X79560000Y-123350000D03*
X94800000Y-85250000D03*
X79560000Y-125890000D03*
X94800000Y-82710000D03*
X79560000Y-128430000D03*
X94800000Y-80170000D03*
D13*
X53980000Y-131830000D03*
D14*
X51440000Y-131830000D03*
X53980000Y-129290000D03*
X51440000Y-129290000D03*
X53980000Y-126750000D03*
X51440000Y-126750000D03*
X53980000Y-124210000D03*
X51440000Y-124210000D03*
X53980000Y-121670000D03*
X51440000Y-121670000D03*
X53980000Y-119130000D03*
X51440000Y-119130000D03*
X53980000Y-116590000D03*
X51440000Y-116590000D03*
X53980000Y-114050000D03*
X51440000Y-114050000D03*
X53980000Y-111510000D03*
X51440000Y-111510000D03*
X53980000Y-108970000D03*
X51440000Y-108970000D03*
X53980000Y-106430000D03*
X51440000Y-106430000D03*
X53980000Y-103890000D03*
X51440000Y-103890000D03*
X53980000Y-101350000D03*
X51440000Y-101350000D03*
X53980000Y-98810000D03*
X51440000Y-98810000D03*
X53980000Y-96270000D03*
X51440000Y-96270000D03*
X53980000Y-93730000D03*
X51440000Y-93730000D03*
X53980000Y-91190000D03*
X51440000Y-91190000D03*
X53980000Y-88650000D03*
X51440000Y-88650000D03*
X53980000Y-86110000D03*
X51440000Y-86110000D03*
X53980000Y-83570000D03*
X51440000Y-83570000D03*
X53980000Y-81030000D03*
X51440000Y-81030000D03*
X53980000Y-78490000D03*
X51440000Y-78490000D03*
X53980000Y-75950000D03*
X51440000Y-75950000D03*
X53980000Y-73410000D03*
X51440000Y-73410000D03*
D13*
X87370000Y-74940000D03*
D14*
X87370000Y-72400000D03*
X89910000Y-74940000D03*
X89910000Y-72400000D03*
X92450000Y-74940000D03*
X92450000Y-72400000D03*
D15*
X84160000Y-72820000D03*
X84160000Y-74320000D03*
D11*
X82970000Y-80170000D03*
D12*
X98210000Y-128430000D03*
X82970000Y-82710000D03*
X98210000Y-125890000D03*
X82970000Y-85250000D03*
X98210000Y-123350000D03*
X82970000Y-87790000D03*
X98210000Y-120810000D03*
X82970000Y-90330000D03*
X98210000Y-118270000D03*
X82970000Y-92870000D03*
X98210000Y-115730000D03*
X82970000Y-95410000D03*
X98210000Y-113190000D03*
X82970000Y-97950000D03*
X98210000Y-110650000D03*
X82970000Y-100490000D03*
X98210000Y-108110000D03*
X82970000Y-103030000D03*
X98210000Y-105570000D03*
X82970000Y-105570000D03*
X98210000Y-103030000D03*
X82970000Y-108110000D03*
X98210000Y-100490000D03*
X82970000Y-110650000D03*
X98210000Y-97950000D03*
X82970000Y-113190000D03*
X98210000Y-95410000D03*
X82970000Y-115730000D03*
X98210000Y-92870000D03*
X82970000Y-118270000D03*
X98210000Y-90330000D03*
X82970000Y-120810000D03*
X98210000Y-87790000D03*
X82970000Y-123350000D03*
X98210000Y-85250000D03*
X82970000Y-125890000D03*
X98210000Y-82710000D03*
X82970000Y-128430000D03*
X98210000Y-80170000D03*
M02*
