G04 #@! TF.FileFunction,Legend,Bot*
%FSLAX46Y46*%
G04 Gerber Fmt 4.6, Leading zero omitted, Abs format (unit mm)*
G04 Created by KiCad (PCBNEW 4.0.7) date 07/29/18 14:17:34*
%MOMM*%
%LPD*%
G01*
G04 APERTURE LIST*
%ADD10C,0.100000*%
%ADD11C,0.200000*%
%ADD12C,0.300000*%
%ADD13C,0.120000*%
%ADD14C,0.150000*%
G04 APERTURE END LIST*
D10*
D11*
X72592062Y-111550000D02*
G75*
G03X72592062Y-111550000I-292062J0D01*
G01*
X72754215Y-95140000D02*
G75*
G03X72754215Y-95140000I-334215J0D01*
G01*
X72737648Y-78760000D02*
G75*
G03X72737648Y-78760000I-317648J0D01*
G01*
D12*
X66678571Y-112638572D02*
X67892857Y-112638572D01*
X68035714Y-112710000D01*
X68107143Y-112781429D01*
X68178571Y-112924286D01*
X68178571Y-113210000D01*
X68107143Y-113352858D01*
X68035714Y-113424286D01*
X67892857Y-113495715D01*
X66678571Y-113495715D01*
X68178571Y-114924287D02*
X68178571Y-114210001D01*
X66678571Y-114210001D01*
X68178571Y-115424287D02*
X66678571Y-115424287D01*
X68178571Y-116281430D01*
X66678571Y-116281430D01*
X66821429Y-116924287D02*
X66750000Y-116995716D01*
X66678571Y-117138573D01*
X66678571Y-117495716D01*
X66750000Y-117638573D01*
X66821429Y-117710002D01*
X66964286Y-117781430D01*
X67107143Y-117781430D01*
X67321429Y-117710002D01*
X68178571Y-116852859D01*
X68178571Y-117781430D01*
X67321429Y-118638573D02*
X67250000Y-118495715D01*
X67178571Y-118424287D01*
X67035714Y-118352858D01*
X66964286Y-118352858D01*
X66821429Y-118424287D01*
X66750000Y-118495715D01*
X66678571Y-118638573D01*
X66678571Y-118924287D01*
X66750000Y-119067144D01*
X66821429Y-119138573D01*
X66964286Y-119210001D01*
X67035714Y-119210001D01*
X67178571Y-119138573D01*
X67250000Y-119067144D01*
X67321429Y-118924287D01*
X67321429Y-118638573D01*
X67392857Y-118495715D01*
X67464286Y-118424287D01*
X67607143Y-118352858D01*
X67892857Y-118352858D01*
X68035714Y-118424287D01*
X68107143Y-118495715D01*
X68178571Y-118638573D01*
X68178571Y-118924287D01*
X68107143Y-119067144D01*
X68035714Y-119138573D01*
X67892857Y-119210001D01*
X67607143Y-119210001D01*
X67464286Y-119138573D01*
X67392857Y-119067144D01*
X67321429Y-118924287D01*
X66678571Y-120138572D02*
X66678571Y-120281429D01*
X66750000Y-120424286D01*
X66821429Y-120495715D01*
X66964286Y-120567144D01*
X67250000Y-120638572D01*
X67607143Y-120638572D01*
X67892857Y-120567144D01*
X68035714Y-120495715D01*
X68107143Y-120424286D01*
X68178571Y-120281429D01*
X68178571Y-120138572D01*
X68107143Y-119995715D01*
X68035714Y-119924286D01*
X67892857Y-119852858D01*
X67607143Y-119781429D01*
X67250000Y-119781429D01*
X66964286Y-119852858D01*
X66821429Y-119924286D01*
X66750000Y-119995715D01*
X66678571Y-120138572D01*
X66678571Y-121138572D02*
X66678571Y-122067143D01*
X67250000Y-121567143D01*
X67250000Y-121781429D01*
X67321429Y-121924286D01*
X67392857Y-121995715D01*
X67535714Y-122067143D01*
X67892857Y-122067143D01*
X68035714Y-121995715D01*
X68107143Y-121924286D01*
X68178571Y-121781429D01*
X68178571Y-121352857D01*
X68107143Y-121210000D01*
X68035714Y-121138572D01*
X67750000Y-122638571D02*
X67750000Y-123352857D01*
X68178571Y-122495714D02*
X66678571Y-122995714D01*
X68178571Y-123495714D01*
X66908571Y-96098572D02*
X68122857Y-96098572D01*
X68265714Y-96170000D01*
X68337143Y-96241429D01*
X68408571Y-96384286D01*
X68408571Y-96670000D01*
X68337143Y-96812858D01*
X68265714Y-96884286D01*
X68122857Y-96955715D01*
X66908571Y-96955715D01*
X68408571Y-98384287D02*
X68408571Y-97670001D01*
X66908571Y-97670001D01*
X68408571Y-98884287D02*
X66908571Y-98884287D01*
X68408571Y-99741430D01*
X66908571Y-99741430D01*
X67051429Y-100384287D02*
X66980000Y-100455716D01*
X66908571Y-100598573D01*
X66908571Y-100955716D01*
X66980000Y-101098573D01*
X67051429Y-101170002D01*
X67194286Y-101241430D01*
X67337143Y-101241430D01*
X67551429Y-101170002D01*
X68408571Y-100312859D01*
X68408571Y-101241430D01*
X67551429Y-102098573D02*
X67480000Y-101955715D01*
X67408571Y-101884287D01*
X67265714Y-101812858D01*
X67194286Y-101812858D01*
X67051429Y-101884287D01*
X66980000Y-101955715D01*
X66908571Y-102098573D01*
X66908571Y-102384287D01*
X66980000Y-102527144D01*
X67051429Y-102598573D01*
X67194286Y-102670001D01*
X67265714Y-102670001D01*
X67408571Y-102598573D01*
X67480000Y-102527144D01*
X67551429Y-102384287D01*
X67551429Y-102098573D01*
X67622857Y-101955715D01*
X67694286Y-101884287D01*
X67837143Y-101812858D01*
X68122857Y-101812858D01*
X68265714Y-101884287D01*
X68337143Y-101955715D01*
X68408571Y-102098573D01*
X68408571Y-102384287D01*
X68337143Y-102527144D01*
X68265714Y-102598573D01*
X68122857Y-102670001D01*
X67837143Y-102670001D01*
X67694286Y-102598573D01*
X67622857Y-102527144D01*
X67551429Y-102384287D01*
X66908571Y-103598572D02*
X66908571Y-103741429D01*
X66980000Y-103884286D01*
X67051429Y-103955715D01*
X67194286Y-104027144D01*
X67480000Y-104098572D01*
X67837143Y-104098572D01*
X68122857Y-104027144D01*
X68265714Y-103955715D01*
X68337143Y-103884286D01*
X68408571Y-103741429D01*
X68408571Y-103598572D01*
X68337143Y-103455715D01*
X68265714Y-103384286D01*
X68122857Y-103312858D01*
X67837143Y-103241429D01*
X67480000Y-103241429D01*
X67194286Y-103312858D01*
X67051429Y-103384286D01*
X66980000Y-103455715D01*
X66908571Y-103598572D01*
X66908571Y-104598572D02*
X66908571Y-105527143D01*
X67480000Y-105027143D01*
X67480000Y-105241429D01*
X67551429Y-105384286D01*
X67622857Y-105455715D01*
X67765714Y-105527143D01*
X68122857Y-105527143D01*
X68265714Y-105455715D01*
X68337143Y-105384286D01*
X68408571Y-105241429D01*
X68408571Y-104812857D01*
X68337143Y-104670000D01*
X68265714Y-104598572D01*
X67980000Y-106098571D02*
X67980000Y-106812857D01*
X68408571Y-105955714D02*
X66908571Y-106455714D01*
X68408571Y-106955714D01*
X66738571Y-79898572D02*
X67952857Y-79898572D01*
X68095714Y-79970000D01*
X68167143Y-80041429D01*
X68238571Y-80184286D01*
X68238571Y-80470000D01*
X68167143Y-80612858D01*
X68095714Y-80684286D01*
X67952857Y-80755715D01*
X66738571Y-80755715D01*
X68238571Y-82184287D02*
X68238571Y-81470001D01*
X66738571Y-81470001D01*
X68238571Y-82684287D02*
X66738571Y-82684287D01*
X68238571Y-83541430D01*
X66738571Y-83541430D01*
X66881429Y-84184287D02*
X66810000Y-84255716D01*
X66738571Y-84398573D01*
X66738571Y-84755716D01*
X66810000Y-84898573D01*
X66881429Y-84970002D01*
X67024286Y-85041430D01*
X67167143Y-85041430D01*
X67381429Y-84970002D01*
X68238571Y-84112859D01*
X68238571Y-85041430D01*
X67381429Y-85898573D02*
X67310000Y-85755715D01*
X67238571Y-85684287D01*
X67095714Y-85612858D01*
X67024286Y-85612858D01*
X66881429Y-85684287D01*
X66810000Y-85755715D01*
X66738571Y-85898573D01*
X66738571Y-86184287D01*
X66810000Y-86327144D01*
X66881429Y-86398573D01*
X67024286Y-86470001D01*
X67095714Y-86470001D01*
X67238571Y-86398573D01*
X67310000Y-86327144D01*
X67381429Y-86184287D01*
X67381429Y-85898573D01*
X67452857Y-85755715D01*
X67524286Y-85684287D01*
X67667143Y-85612858D01*
X67952857Y-85612858D01*
X68095714Y-85684287D01*
X68167143Y-85755715D01*
X68238571Y-85898573D01*
X68238571Y-86184287D01*
X68167143Y-86327144D01*
X68095714Y-86398573D01*
X67952857Y-86470001D01*
X67667143Y-86470001D01*
X67524286Y-86398573D01*
X67452857Y-86327144D01*
X67381429Y-86184287D01*
X66738571Y-87398572D02*
X66738571Y-87541429D01*
X66810000Y-87684286D01*
X66881429Y-87755715D01*
X67024286Y-87827144D01*
X67310000Y-87898572D01*
X67667143Y-87898572D01*
X67952857Y-87827144D01*
X68095714Y-87755715D01*
X68167143Y-87684286D01*
X68238571Y-87541429D01*
X68238571Y-87398572D01*
X68167143Y-87255715D01*
X68095714Y-87184286D01*
X67952857Y-87112858D01*
X67667143Y-87041429D01*
X67310000Y-87041429D01*
X67024286Y-87112858D01*
X66881429Y-87184286D01*
X66810000Y-87255715D01*
X66738571Y-87398572D01*
X66738571Y-88398572D02*
X66738571Y-89327143D01*
X67310000Y-88827143D01*
X67310000Y-89041429D01*
X67381429Y-89184286D01*
X67452857Y-89255715D01*
X67595714Y-89327143D01*
X67952857Y-89327143D01*
X68095714Y-89255715D01*
X68167143Y-89184286D01*
X68238571Y-89041429D01*
X68238571Y-88612857D01*
X68167143Y-88470000D01*
X68095714Y-88398572D01*
X67810000Y-89898571D02*
X67810000Y-90612857D01*
X68238571Y-89755714D02*
X66738571Y-90255714D01*
X68238571Y-90755714D01*
D13*
X58610000Y-72730000D02*
X57610000Y-72730000D01*
X57610000Y-74090000D02*
X58610000Y-74090000D01*
X58560000Y-75280000D02*
X57560000Y-75280000D01*
X57560000Y-76640000D02*
X58560000Y-76640000D01*
X58510000Y-77820000D02*
X57510000Y-77820000D01*
X57510000Y-79180000D02*
X58510000Y-79180000D01*
X58530000Y-80360000D02*
X57530000Y-80360000D01*
X57530000Y-81720000D02*
X58530000Y-81720000D01*
X58550000Y-82900000D02*
X57550000Y-82900000D01*
X57550000Y-84260000D02*
X58550000Y-84260000D01*
X58530000Y-85430000D02*
X57530000Y-85430000D01*
X57530000Y-86790000D02*
X58530000Y-86790000D01*
X58500000Y-87970000D02*
X57500000Y-87970000D01*
X57500000Y-89330000D02*
X58500000Y-89330000D01*
X58470000Y-90520000D02*
X57470000Y-90520000D01*
X57470000Y-91880000D02*
X58470000Y-91880000D01*
X58440000Y-93050000D02*
X57440000Y-93050000D01*
X57440000Y-94410000D02*
X58440000Y-94410000D01*
X58460000Y-95580000D02*
X57460000Y-95580000D01*
X57460000Y-96940000D02*
X58460000Y-96940000D01*
X58450000Y-98130000D02*
X57450000Y-98130000D01*
X57450000Y-99490000D02*
X58450000Y-99490000D01*
X58450000Y-100670000D02*
X57450000Y-100670000D01*
X57450000Y-102030000D02*
X58450000Y-102030000D01*
X58450000Y-103210000D02*
X57450000Y-103210000D01*
X57450000Y-104570000D02*
X58450000Y-104570000D01*
X58450000Y-105750000D02*
X57450000Y-105750000D01*
X57450000Y-107110000D02*
X58450000Y-107110000D01*
X58430000Y-108280000D02*
X57430000Y-108280000D01*
X57430000Y-109640000D02*
X58430000Y-109640000D01*
X58450000Y-110830000D02*
X57450000Y-110830000D01*
X57450000Y-112190000D02*
X58450000Y-112190000D01*
X58450000Y-113370000D02*
X57450000Y-113370000D01*
X57450000Y-114730000D02*
X58450000Y-114730000D01*
X58460000Y-115910000D02*
X57460000Y-115910000D01*
X57460000Y-117270000D02*
X58460000Y-117270000D01*
X58440000Y-118450000D02*
X57440000Y-118450000D01*
X57440000Y-119810000D02*
X58440000Y-119810000D01*
X58420000Y-120990000D02*
X57420000Y-120990000D01*
X57420000Y-122350000D02*
X58420000Y-122350000D01*
X58420000Y-123530000D02*
X57420000Y-123530000D01*
X57420000Y-124890000D02*
X58420000Y-124890000D01*
X58420000Y-126070000D02*
X57420000Y-126070000D01*
X57420000Y-127430000D02*
X58420000Y-127430000D01*
X58450000Y-128610000D02*
X57450000Y-128610000D01*
X57450000Y-129970000D02*
X58450000Y-129970000D01*
X58450000Y-131140000D02*
X57450000Y-131140000D01*
X57450000Y-132500000D02*
X58450000Y-132500000D01*
D14*
X71455000Y-79140000D02*
X71455000Y-79390000D01*
X63705000Y-79140000D02*
X63705000Y-79485000D01*
X63705000Y-91040000D02*
X63705000Y-90695000D01*
X71455000Y-91040000D02*
X71455000Y-90695000D01*
X71455000Y-79140000D02*
X63705000Y-79140000D01*
X71455000Y-91040000D02*
X63705000Y-91040000D01*
X71455000Y-79390000D02*
X73280000Y-79390000D01*
X71455000Y-95520000D02*
X71455000Y-95770000D01*
X63705000Y-95520000D02*
X63705000Y-95865000D01*
X63705000Y-107420000D02*
X63705000Y-107075000D01*
X71455000Y-107420000D02*
X71455000Y-107075000D01*
X71455000Y-95520000D02*
X63705000Y-95520000D01*
X71455000Y-107420000D02*
X63705000Y-107420000D01*
X71455000Y-95770000D02*
X73280000Y-95770000D01*
X71325000Y-111910000D02*
X71325000Y-112160000D01*
X63575000Y-111910000D02*
X63575000Y-112255000D01*
X63575000Y-123810000D02*
X63575000Y-123465000D01*
X71325000Y-123810000D02*
X71325000Y-123465000D01*
X71325000Y-111910000D02*
X63575000Y-111910000D01*
X71325000Y-123810000D02*
X63575000Y-123810000D01*
X71325000Y-112160000D02*
X73150000Y-112160000D01*
X58276666Y-75312381D02*
X58610000Y-74836190D01*
X58848095Y-75312381D02*
X58848095Y-74312381D01*
X58467142Y-74312381D01*
X58371904Y-74360000D01*
X58324285Y-74407619D01*
X58276666Y-74502857D01*
X58276666Y-74645714D01*
X58324285Y-74740952D01*
X58371904Y-74788571D01*
X58467142Y-74836190D01*
X58848095Y-74836190D01*
X57324285Y-75312381D02*
X57895714Y-75312381D01*
X57610000Y-75312381D02*
X57610000Y-74312381D01*
X57705238Y-74455238D01*
X57800476Y-74550476D01*
X57895714Y-74598095D01*
X58226666Y-77862381D02*
X58560000Y-77386190D01*
X58798095Y-77862381D02*
X58798095Y-76862381D01*
X58417142Y-76862381D01*
X58321904Y-76910000D01*
X58274285Y-76957619D01*
X58226666Y-77052857D01*
X58226666Y-77195714D01*
X58274285Y-77290952D01*
X58321904Y-77338571D01*
X58417142Y-77386190D01*
X58798095Y-77386190D01*
X57845714Y-76957619D02*
X57798095Y-76910000D01*
X57702857Y-76862381D01*
X57464761Y-76862381D01*
X57369523Y-76910000D01*
X57321904Y-76957619D01*
X57274285Y-77052857D01*
X57274285Y-77148095D01*
X57321904Y-77290952D01*
X57893333Y-77862381D01*
X57274285Y-77862381D01*
X58176666Y-80402381D02*
X58510000Y-79926190D01*
X58748095Y-80402381D02*
X58748095Y-79402381D01*
X58367142Y-79402381D01*
X58271904Y-79450000D01*
X58224285Y-79497619D01*
X58176666Y-79592857D01*
X58176666Y-79735714D01*
X58224285Y-79830952D01*
X58271904Y-79878571D01*
X58367142Y-79926190D01*
X58748095Y-79926190D01*
X57843333Y-79402381D02*
X57224285Y-79402381D01*
X57557619Y-79783333D01*
X57414761Y-79783333D01*
X57319523Y-79830952D01*
X57271904Y-79878571D01*
X57224285Y-79973810D01*
X57224285Y-80211905D01*
X57271904Y-80307143D01*
X57319523Y-80354762D01*
X57414761Y-80402381D01*
X57700476Y-80402381D01*
X57795714Y-80354762D01*
X57843333Y-80307143D01*
X58196666Y-82942381D02*
X58530000Y-82466190D01*
X58768095Y-82942381D02*
X58768095Y-81942381D01*
X58387142Y-81942381D01*
X58291904Y-81990000D01*
X58244285Y-82037619D01*
X58196666Y-82132857D01*
X58196666Y-82275714D01*
X58244285Y-82370952D01*
X58291904Y-82418571D01*
X58387142Y-82466190D01*
X58768095Y-82466190D01*
X57339523Y-82275714D02*
X57339523Y-82942381D01*
X57577619Y-81894762D02*
X57815714Y-82609048D01*
X57196666Y-82609048D01*
X58216666Y-85482381D02*
X58550000Y-85006190D01*
X58788095Y-85482381D02*
X58788095Y-84482381D01*
X58407142Y-84482381D01*
X58311904Y-84530000D01*
X58264285Y-84577619D01*
X58216666Y-84672857D01*
X58216666Y-84815714D01*
X58264285Y-84910952D01*
X58311904Y-84958571D01*
X58407142Y-85006190D01*
X58788095Y-85006190D01*
X57311904Y-84482381D02*
X57788095Y-84482381D01*
X57835714Y-84958571D01*
X57788095Y-84910952D01*
X57692857Y-84863333D01*
X57454761Y-84863333D01*
X57359523Y-84910952D01*
X57311904Y-84958571D01*
X57264285Y-85053810D01*
X57264285Y-85291905D01*
X57311904Y-85387143D01*
X57359523Y-85434762D01*
X57454761Y-85482381D01*
X57692857Y-85482381D01*
X57788095Y-85434762D01*
X57835714Y-85387143D01*
X58196666Y-88012381D02*
X58530000Y-87536190D01*
X58768095Y-88012381D02*
X58768095Y-87012381D01*
X58387142Y-87012381D01*
X58291904Y-87060000D01*
X58244285Y-87107619D01*
X58196666Y-87202857D01*
X58196666Y-87345714D01*
X58244285Y-87440952D01*
X58291904Y-87488571D01*
X58387142Y-87536190D01*
X58768095Y-87536190D01*
X57339523Y-87012381D02*
X57530000Y-87012381D01*
X57625238Y-87060000D01*
X57672857Y-87107619D01*
X57768095Y-87250476D01*
X57815714Y-87440952D01*
X57815714Y-87821905D01*
X57768095Y-87917143D01*
X57720476Y-87964762D01*
X57625238Y-88012381D01*
X57434761Y-88012381D01*
X57339523Y-87964762D01*
X57291904Y-87917143D01*
X57244285Y-87821905D01*
X57244285Y-87583810D01*
X57291904Y-87488571D01*
X57339523Y-87440952D01*
X57434761Y-87393333D01*
X57625238Y-87393333D01*
X57720476Y-87440952D01*
X57768095Y-87488571D01*
X57815714Y-87583810D01*
X58166666Y-90552381D02*
X58500000Y-90076190D01*
X58738095Y-90552381D02*
X58738095Y-89552381D01*
X58357142Y-89552381D01*
X58261904Y-89600000D01*
X58214285Y-89647619D01*
X58166666Y-89742857D01*
X58166666Y-89885714D01*
X58214285Y-89980952D01*
X58261904Y-90028571D01*
X58357142Y-90076190D01*
X58738095Y-90076190D01*
X57833333Y-89552381D02*
X57166666Y-89552381D01*
X57595238Y-90552381D01*
X58136666Y-93102381D02*
X58470000Y-92626190D01*
X58708095Y-93102381D02*
X58708095Y-92102381D01*
X58327142Y-92102381D01*
X58231904Y-92150000D01*
X58184285Y-92197619D01*
X58136666Y-92292857D01*
X58136666Y-92435714D01*
X58184285Y-92530952D01*
X58231904Y-92578571D01*
X58327142Y-92626190D01*
X58708095Y-92626190D01*
X57565238Y-92530952D02*
X57660476Y-92483333D01*
X57708095Y-92435714D01*
X57755714Y-92340476D01*
X57755714Y-92292857D01*
X57708095Y-92197619D01*
X57660476Y-92150000D01*
X57565238Y-92102381D01*
X57374761Y-92102381D01*
X57279523Y-92150000D01*
X57231904Y-92197619D01*
X57184285Y-92292857D01*
X57184285Y-92340476D01*
X57231904Y-92435714D01*
X57279523Y-92483333D01*
X57374761Y-92530952D01*
X57565238Y-92530952D01*
X57660476Y-92578571D01*
X57708095Y-92626190D01*
X57755714Y-92721429D01*
X57755714Y-92911905D01*
X57708095Y-93007143D01*
X57660476Y-93054762D01*
X57565238Y-93102381D01*
X57374761Y-93102381D01*
X57279523Y-93054762D01*
X57231904Y-93007143D01*
X57184285Y-92911905D01*
X57184285Y-92721429D01*
X57231904Y-92626190D01*
X57279523Y-92578571D01*
X57374761Y-92530952D01*
X58106666Y-95632381D02*
X58440000Y-95156190D01*
X58678095Y-95632381D02*
X58678095Y-94632381D01*
X58297142Y-94632381D01*
X58201904Y-94680000D01*
X58154285Y-94727619D01*
X58106666Y-94822857D01*
X58106666Y-94965714D01*
X58154285Y-95060952D01*
X58201904Y-95108571D01*
X58297142Y-95156190D01*
X58678095Y-95156190D01*
X57630476Y-95632381D02*
X57440000Y-95632381D01*
X57344761Y-95584762D01*
X57297142Y-95537143D01*
X57201904Y-95394286D01*
X57154285Y-95203810D01*
X57154285Y-94822857D01*
X57201904Y-94727619D01*
X57249523Y-94680000D01*
X57344761Y-94632381D01*
X57535238Y-94632381D01*
X57630476Y-94680000D01*
X57678095Y-94727619D01*
X57725714Y-94822857D01*
X57725714Y-95060952D01*
X57678095Y-95156190D01*
X57630476Y-95203810D01*
X57535238Y-95251429D01*
X57344761Y-95251429D01*
X57249523Y-95203810D01*
X57201904Y-95156190D01*
X57154285Y-95060952D01*
X58602857Y-98162381D02*
X58936191Y-97686190D01*
X59174286Y-98162381D02*
X59174286Y-97162381D01*
X58793333Y-97162381D01*
X58698095Y-97210000D01*
X58650476Y-97257619D01*
X58602857Y-97352857D01*
X58602857Y-97495714D01*
X58650476Y-97590952D01*
X58698095Y-97638571D01*
X58793333Y-97686190D01*
X59174286Y-97686190D01*
X57650476Y-98162381D02*
X58221905Y-98162381D01*
X57936191Y-98162381D02*
X57936191Y-97162381D01*
X58031429Y-97305238D01*
X58126667Y-97400476D01*
X58221905Y-97448095D01*
X57031429Y-97162381D02*
X56936190Y-97162381D01*
X56840952Y-97210000D01*
X56793333Y-97257619D01*
X56745714Y-97352857D01*
X56698095Y-97543333D01*
X56698095Y-97781429D01*
X56745714Y-97971905D01*
X56793333Y-98067143D01*
X56840952Y-98114762D01*
X56936190Y-98162381D01*
X57031429Y-98162381D01*
X57126667Y-98114762D01*
X57174286Y-98067143D01*
X57221905Y-97971905D01*
X57269524Y-97781429D01*
X57269524Y-97543333D01*
X57221905Y-97352857D01*
X57174286Y-97257619D01*
X57126667Y-97210000D01*
X57031429Y-97162381D01*
X58592857Y-100712381D02*
X58926191Y-100236190D01*
X59164286Y-100712381D02*
X59164286Y-99712381D01*
X58783333Y-99712381D01*
X58688095Y-99760000D01*
X58640476Y-99807619D01*
X58592857Y-99902857D01*
X58592857Y-100045714D01*
X58640476Y-100140952D01*
X58688095Y-100188571D01*
X58783333Y-100236190D01*
X59164286Y-100236190D01*
X57640476Y-100712381D02*
X58211905Y-100712381D01*
X57926191Y-100712381D02*
X57926191Y-99712381D01*
X58021429Y-99855238D01*
X58116667Y-99950476D01*
X58211905Y-99998095D01*
X56688095Y-100712381D02*
X57259524Y-100712381D01*
X56973810Y-100712381D02*
X56973810Y-99712381D01*
X57069048Y-99855238D01*
X57164286Y-99950476D01*
X57259524Y-99998095D01*
X58592857Y-103252381D02*
X58926191Y-102776190D01*
X59164286Y-103252381D02*
X59164286Y-102252381D01*
X58783333Y-102252381D01*
X58688095Y-102300000D01*
X58640476Y-102347619D01*
X58592857Y-102442857D01*
X58592857Y-102585714D01*
X58640476Y-102680952D01*
X58688095Y-102728571D01*
X58783333Y-102776190D01*
X59164286Y-102776190D01*
X57640476Y-103252381D02*
X58211905Y-103252381D01*
X57926191Y-103252381D02*
X57926191Y-102252381D01*
X58021429Y-102395238D01*
X58116667Y-102490476D01*
X58211905Y-102538095D01*
X57259524Y-102347619D02*
X57211905Y-102300000D01*
X57116667Y-102252381D01*
X56878571Y-102252381D01*
X56783333Y-102300000D01*
X56735714Y-102347619D01*
X56688095Y-102442857D01*
X56688095Y-102538095D01*
X56735714Y-102680952D01*
X57307143Y-103252381D01*
X56688095Y-103252381D01*
X58592857Y-105792381D02*
X58926191Y-105316190D01*
X59164286Y-105792381D02*
X59164286Y-104792381D01*
X58783333Y-104792381D01*
X58688095Y-104840000D01*
X58640476Y-104887619D01*
X58592857Y-104982857D01*
X58592857Y-105125714D01*
X58640476Y-105220952D01*
X58688095Y-105268571D01*
X58783333Y-105316190D01*
X59164286Y-105316190D01*
X57640476Y-105792381D02*
X58211905Y-105792381D01*
X57926191Y-105792381D02*
X57926191Y-104792381D01*
X58021429Y-104935238D01*
X58116667Y-105030476D01*
X58211905Y-105078095D01*
X57307143Y-104792381D02*
X56688095Y-104792381D01*
X57021429Y-105173333D01*
X56878571Y-105173333D01*
X56783333Y-105220952D01*
X56735714Y-105268571D01*
X56688095Y-105363810D01*
X56688095Y-105601905D01*
X56735714Y-105697143D01*
X56783333Y-105744762D01*
X56878571Y-105792381D01*
X57164286Y-105792381D01*
X57259524Y-105744762D01*
X57307143Y-105697143D01*
X58592857Y-108332381D02*
X58926191Y-107856190D01*
X59164286Y-108332381D02*
X59164286Y-107332381D01*
X58783333Y-107332381D01*
X58688095Y-107380000D01*
X58640476Y-107427619D01*
X58592857Y-107522857D01*
X58592857Y-107665714D01*
X58640476Y-107760952D01*
X58688095Y-107808571D01*
X58783333Y-107856190D01*
X59164286Y-107856190D01*
X57640476Y-108332381D02*
X58211905Y-108332381D01*
X57926191Y-108332381D02*
X57926191Y-107332381D01*
X58021429Y-107475238D01*
X58116667Y-107570476D01*
X58211905Y-107618095D01*
X56783333Y-107665714D02*
X56783333Y-108332381D01*
X57021429Y-107284762D02*
X57259524Y-107999048D01*
X56640476Y-107999048D01*
X58572857Y-110862381D02*
X58906191Y-110386190D01*
X59144286Y-110862381D02*
X59144286Y-109862381D01*
X58763333Y-109862381D01*
X58668095Y-109910000D01*
X58620476Y-109957619D01*
X58572857Y-110052857D01*
X58572857Y-110195714D01*
X58620476Y-110290952D01*
X58668095Y-110338571D01*
X58763333Y-110386190D01*
X59144286Y-110386190D01*
X57620476Y-110862381D02*
X58191905Y-110862381D01*
X57906191Y-110862381D02*
X57906191Y-109862381D01*
X58001429Y-110005238D01*
X58096667Y-110100476D01*
X58191905Y-110148095D01*
X56715714Y-109862381D02*
X57191905Y-109862381D01*
X57239524Y-110338571D01*
X57191905Y-110290952D01*
X57096667Y-110243333D01*
X56858571Y-110243333D01*
X56763333Y-110290952D01*
X56715714Y-110338571D01*
X56668095Y-110433810D01*
X56668095Y-110671905D01*
X56715714Y-110767143D01*
X56763333Y-110814762D01*
X56858571Y-110862381D01*
X57096667Y-110862381D01*
X57191905Y-110814762D01*
X57239524Y-110767143D01*
X58592857Y-113412381D02*
X58926191Y-112936190D01*
X59164286Y-113412381D02*
X59164286Y-112412381D01*
X58783333Y-112412381D01*
X58688095Y-112460000D01*
X58640476Y-112507619D01*
X58592857Y-112602857D01*
X58592857Y-112745714D01*
X58640476Y-112840952D01*
X58688095Y-112888571D01*
X58783333Y-112936190D01*
X59164286Y-112936190D01*
X57640476Y-113412381D02*
X58211905Y-113412381D01*
X57926191Y-113412381D02*
X57926191Y-112412381D01*
X58021429Y-112555238D01*
X58116667Y-112650476D01*
X58211905Y-112698095D01*
X56783333Y-112412381D02*
X56973810Y-112412381D01*
X57069048Y-112460000D01*
X57116667Y-112507619D01*
X57211905Y-112650476D01*
X57259524Y-112840952D01*
X57259524Y-113221905D01*
X57211905Y-113317143D01*
X57164286Y-113364762D01*
X57069048Y-113412381D01*
X56878571Y-113412381D01*
X56783333Y-113364762D01*
X56735714Y-113317143D01*
X56688095Y-113221905D01*
X56688095Y-112983810D01*
X56735714Y-112888571D01*
X56783333Y-112840952D01*
X56878571Y-112793333D01*
X57069048Y-112793333D01*
X57164286Y-112840952D01*
X57211905Y-112888571D01*
X57259524Y-112983810D01*
X58592857Y-115952381D02*
X58926191Y-115476190D01*
X59164286Y-115952381D02*
X59164286Y-114952381D01*
X58783333Y-114952381D01*
X58688095Y-115000000D01*
X58640476Y-115047619D01*
X58592857Y-115142857D01*
X58592857Y-115285714D01*
X58640476Y-115380952D01*
X58688095Y-115428571D01*
X58783333Y-115476190D01*
X59164286Y-115476190D01*
X57640476Y-115952381D02*
X58211905Y-115952381D01*
X57926191Y-115952381D02*
X57926191Y-114952381D01*
X58021429Y-115095238D01*
X58116667Y-115190476D01*
X58211905Y-115238095D01*
X57307143Y-114952381D02*
X56640476Y-114952381D01*
X57069048Y-115952381D01*
X58602857Y-118492381D02*
X58936191Y-118016190D01*
X59174286Y-118492381D02*
X59174286Y-117492381D01*
X58793333Y-117492381D01*
X58698095Y-117540000D01*
X58650476Y-117587619D01*
X58602857Y-117682857D01*
X58602857Y-117825714D01*
X58650476Y-117920952D01*
X58698095Y-117968571D01*
X58793333Y-118016190D01*
X59174286Y-118016190D01*
X57650476Y-118492381D02*
X58221905Y-118492381D01*
X57936191Y-118492381D02*
X57936191Y-117492381D01*
X58031429Y-117635238D01*
X58126667Y-117730476D01*
X58221905Y-117778095D01*
X57079048Y-117920952D02*
X57174286Y-117873333D01*
X57221905Y-117825714D01*
X57269524Y-117730476D01*
X57269524Y-117682857D01*
X57221905Y-117587619D01*
X57174286Y-117540000D01*
X57079048Y-117492381D01*
X56888571Y-117492381D01*
X56793333Y-117540000D01*
X56745714Y-117587619D01*
X56698095Y-117682857D01*
X56698095Y-117730476D01*
X56745714Y-117825714D01*
X56793333Y-117873333D01*
X56888571Y-117920952D01*
X57079048Y-117920952D01*
X57174286Y-117968571D01*
X57221905Y-118016190D01*
X57269524Y-118111429D01*
X57269524Y-118301905D01*
X57221905Y-118397143D01*
X57174286Y-118444762D01*
X57079048Y-118492381D01*
X56888571Y-118492381D01*
X56793333Y-118444762D01*
X56745714Y-118397143D01*
X56698095Y-118301905D01*
X56698095Y-118111429D01*
X56745714Y-118016190D01*
X56793333Y-117968571D01*
X56888571Y-117920952D01*
X58582857Y-121032381D02*
X58916191Y-120556190D01*
X59154286Y-121032381D02*
X59154286Y-120032381D01*
X58773333Y-120032381D01*
X58678095Y-120080000D01*
X58630476Y-120127619D01*
X58582857Y-120222857D01*
X58582857Y-120365714D01*
X58630476Y-120460952D01*
X58678095Y-120508571D01*
X58773333Y-120556190D01*
X59154286Y-120556190D01*
X57630476Y-121032381D02*
X58201905Y-121032381D01*
X57916191Y-121032381D02*
X57916191Y-120032381D01*
X58011429Y-120175238D01*
X58106667Y-120270476D01*
X58201905Y-120318095D01*
X57154286Y-121032381D02*
X56963810Y-121032381D01*
X56868571Y-120984762D01*
X56820952Y-120937143D01*
X56725714Y-120794286D01*
X56678095Y-120603810D01*
X56678095Y-120222857D01*
X56725714Y-120127619D01*
X56773333Y-120080000D01*
X56868571Y-120032381D01*
X57059048Y-120032381D01*
X57154286Y-120080000D01*
X57201905Y-120127619D01*
X57249524Y-120222857D01*
X57249524Y-120460952D01*
X57201905Y-120556190D01*
X57154286Y-120603810D01*
X57059048Y-120651429D01*
X56868571Y-120651429D01*
X56773333Y-120603810D01*
X56725714Y-120556190D01*
X56678095Y-120460952D01*
X58562857Y-123572381D02*
X58896191Y-123096190D01*
X59134286Y-123572381D02*
X59134286Y-122572381D01*
X58753333Y-122572381D01*
X58658095Y-122620000D01*
X58610476Y-122667619D01*
X58562857Y-122762857D01*
X58562857Y-122905714D01*
X58610476Y-123000952D01*
X58658095Y-123048571D01*
X58753333Y-123096190D01*
X59134286Y-123096190D01*
X58181905Y-122667619D02*
X58134286Y-122620000D01*
X58039048Y-122572381D01*
X57800952Y-122572381D01*
X57705714Y-122620000D01*
X57658095Y-122667619D01*
X57610476Y-122762857D01*
X57610476Y-122858095D01*
X57658095Y-123000952D01*
X58229524Y-123572381D01*
X57610476Y-123572381D01*
X56991429Y-122572381D02*
X56896190Y-122572381D01*
X56800952Y-122620000D01*
X56753333Y-122667619D01*
X56705714Y-122762857D01*
X56658095Y-122953333D01*
X56658095Y-123191429D01*
X56705714Y-123381905D01*
X56753333Y-123477143D01*
X56800952Y-123524762D01*
X56896190Y-123572381D01*
X56991429Y-123572381D01*
X57086667Y-123524762D01*
X57134286Y-123477143D01*
X57181905Y-123381905D01*
X57229524Y-123191429D01*
X57229524Y-122953333D01*
X57181905Y-122762857D01*
X57134286Y-122667619D01*
X57086667Y-122620000D01*
X56991429Y-122572381D01*
X58562857Y-126112381D02*
X58896191Y-125636190D01*
X59134286Y-126112381D02*
X59134286Y-125112381D01*
X58753333Y-125112381D01*
X58658095Y-125160000D01*
X58610476Y-125207619D01*
X58562857Y-125302857D01*
X58562857Y-125445714D01*
X58610476Y-125540952D01*
X58658095Y-125588571D01*
X58753333Y-125636190D01*
X59134286Y-125636190D01*
X58181905Y-125207619D02*
X58134286Y-125160000D01*
X58039048Y-125112381D01*
X57800952Y-125112381D01*
X57705714Y-125160000D01*
X57658095Y-125207619D01*
X57610476Y-125302857D01*
X57610476Y-125398095D01*
X57658095Y-125540952D01*
X58229524Y-126112381D01*
X57610476Y-126112381D01*
X56658095Y-126112381D02*
X57229524Y-126112381D01*
X56943810Y-126112381D02*
X56943810Y-125112381D01*
X57039048Y-125255238D01*
X57134286Y-125350476D01*
X57229524Y-125398095D01*
X58562857Y-128652381D02*
X58896191Y-128176190D01*
X59134286Y-128652381D02*
X59134286Y-127652381D01*
X58753333Y-127652381D01*
X58658095Y-127700000D01*
X58610476Y-127747619D01*
X58562857Y-127842857D01*
X58562857Y-127985714D01*
X58610476Y-128080952D01*
X58658095Y-128128571D01*
X58753333Y-128176190D01*
X59134286Y-128176190D01*
X58181905Y-127747619D02*
X58134286Y-127700000D01*
X58039048Y-127652381D01*
X57800952Y-127652381D01*
X57705714Y-127700000D01*
X57658095Y-127747619D01*
X57610476Y-127842857D01*
X57610476Y-127938095D01*
X57658095Y-128080952D01*
X58229524Y-128652381D01*
X57610476Y-128652381D01*
X57229524Y-127747619D02*
X57181905Y-127700000D01*
X57086667Y-127652381D01*
X56848571Y-127652381D01*
X56753333Y-127700000D01*
X56705714Y-127747619D01*
X56658095Y-127842857D01*
X56658095Y-127938095D01*
X56705714Y-128080952D01*
X57277143Y-128652381D01*
X56658095Y-128652381D01*
X58592857Y-131192381D02*
X58926191Y-130716190D01*
X59164286Y-131192381D02*
X59164286Y-130192381D01*
X58783333Y-130192381D01*
X58688095Y-130240000D01*
X58640476Y-130287619D01*
X58592857Y-130382857D01*
X58592857Y-130525714D01*
X58640476Y-130620952D01*
X58688095Y-130668571D01*
X58783333Y-130716190D01*
X59164286Y-130716190D01*
X58211905Y-130287619D02*
X58164286Y-130240000D01*
X58069048Y-130192381D01*
X57830952Y-130192381D01*
X57735714Y-130240000D01*
X57688095Y-130287619D01*
X57640476Y-130382857D01*
X57640476Y-130478095D01*
X57688095Y-130620952D01*
X58259524Y-131192381D01*
X57640476Y-131192381D01*
X57307143Y-130192381D02*
X56688095Y-130192381D01*
X57021429Y-130573333D01*
X56878571Y-130573333D01*
X56783333Y-130620952D01*
X56735714Y-130668571D01*
X56688095Y-130763810D01*
X56688095Y-131001905D01*
X56735714Y-131097143D01*
X56783333Y-131144762D01*
X56878571Y-131192381D01*
X57164286Y-131192381D01*
X57259524Y-131144762D01*
X57307143Y-131097143D01*
X58592857Y-133722381D02*
X58926191Y-133246190D01*
X59164286Y-133722381D02*
X59164286Y-132722381D01*
X58783333Y-132722381D01*
X58688095Y-132770000D01*
X58640476Y-132817619D01*
X58592857Y-132912857D01*
X58592857Y-133055714D01*
X58640476Y-133150952D01*
X58688095Y-133198571D01*
X58783333Y-133246190D01*
X59164286Y-133246190D01*
X58211905Y-132817619D02*
X58164286Y-132770000D01*
X58069048Y-132722381D01*
X57830952Y-132722381D01*
X57735714Y-132770000D01*
X57688095Y-132817619D01*
X57640476Y-132912857D01*
X57640476Y-133008095D01*
X57688095Y-133150952D01*
X58259524Y-133722381D01*
X57640476Y-133722381D01*
X56783333Y-133055714D02*
X56783333Y-133722381D01*
X57021429Y-132674762D02*
X57259524Y-133389048D01*
X56640476Y-133389048D01*
X68341905Y-77667381D02*
X68341905Y-78476905D01*
X68294286Y-78572143D01*
X68246667Y-78619762D01*
X68151429Y-78667381D01*
X67960952Y-78667381D01*
X67865714Y-78619762D01*
X67818095Y-78572143D01*
X67770476Y-78476905D01*
X67770476Y-77667381D01*
X67341905Y-77762619D02*
X67294286Y-77715000D01*
X67199048Y-77667381D01*
X66960952Y-77667381D01*
X66865714Y-77715000D01*
X66818095Y-77762619D01*
X66770476Y-77857857D01*
X66770476Y-77953095D01*
X66818095Y-78095952D01*
X67389524Y-78667381D01*
X66770476Y-78667381D01*
X68341905Y-94047381D02*
X68341905Y-94856905D01*
X68294286Y-94952143D01*
X68246667Y-94999762D01*
X68151429Y-95047381D01*
X67960952Y-95047381D01*
X67865714Y-94999762D01*
X67818095Y-94952143D01*
X67770476Y-94856905D01*
X67770476Y-94047381D01*
X67389524Y-94047381D02*
X66770476Y-94047381D01*
X67103810Y-94428333D01*
X66960952Y-94428333D01*
X66865714Y-94475952D01*
X66818095Y-94523571D01*
X66770476Y-94618810D01*
X66770476Y-94856905D01*
X66818095Y-94952143D01*
X66865714Y-94999762D01*
X66960952Y-95047381D01*
X67246667Y-95047381D01*
X67341905Y-94999762D01*
X67389524Y-94952143D01*
X68211905Y-110437381D02*
X68211905Y-111246905D01*
X68164286Y-111342143D01*
X68116667Y-111389762D01*
X68021429Y-111437381D01*
X67830952Y-111437381D01*
X67735714Y-111389762D01*
X67688095Y-111342143D01*
X67640476Y-111246905D01*
X67640476Y-110437381D01*
X66735714Y-110770714D02*
X66735714Y-111437381D01*
X66973810Y-110389762D02*
X67211905Y-111104048D01*
X66592857Y-111104048D01*
M02*
