M48
;DRILL file {KiCad 4.0.7} date 07/31/18 16:14:16
;FORMAT={-:-/ absolute / metric / decimal}
FMAT,2
METRIC,TZ
T1C0.400
T2C0.800
T3C1.000
%
G90
G05
M71
T1
X74.13Y-120.42
X74.19Y-119.18
X74.25Y-117.8
X74.68Y-90.07
X88.64Y-123.65
X89.63Y-123.28
T2
X79.56Y-80.17
X79.56Y-82.71
X79.56Y-85.25
X79.56Y-87.79
X79.56Y-90.33
X79.56Y-92.87
X79.56Y-95.41
X79.56Y-97.95
X79.56Y-100.49
X79.56Y-103.03
X79.56Y-105.57
X79.56Y-108.11
X79.56Y-110.65
X79.56Y-113.19
X79.56Y-115.73
X79.56Y-118.27
X79.56Y-120.81
X79.56Y-123.35
X79.56Y-125.89
X79.56Y-128.43
X82.97Y-80.17
X82.97Y-82.71
X82.97Y-85.25
X82.97Y-87.79
X82.97Y-90.33
X82.97Y-92.87
X82.97Y-95.41
X82.97Y-97.95
X82.97Y-100.49
X82.97Y-103.03
X82.97Y-105.57
X82.97Y-108.11
X82.97Y-110.65
X82.97Y-113.19
X82.97Y-115.73
X82.97Y-118.27
X82.97Y-120.81
X82.97Y-123.35
X82.97Y-125.89
X82.97Y-128.43
X94.8Y-80.17
X94.8Y-82.71
X94.8Y-85.25
X94.8Y-87.79
X94.8Y-90.33
X94.8Y-92.87
X94.8Y-95.41
X94.8Y-97.95
X94.8Y-100.49
X94.8Y-103.03
X94.8Y-105.57
X94.8Y-108.11
X94.8Y-110.65
X94.8Y-113.19
X94.8Y-115.73
X94.8Y-118.27
X94.8Y-120.81
X94.8Y-123.35
X94.8Y-125.89
X94.8Y-128.43
X98.21Y-80.17
X98.21Y-82.71
X98.21Y-85.25
X98.21Y-87.79
X98.21Y-90.33
X98.21Y-92.87
X98.21Y-95.41
X98.21Y-97.95
X98.21Y-100.49
X98.21Y-103.03
X98.21Y-105.57
X98.21Y-108.11
X98.21Y-110.65
X98.21Y-113.19
X98.21Y-115.73
X98.21Y-118.27
X98.21Y-120.81
X98.21Y-123.35
X98.21Y-125.89
X98.21Y-128.43
T3
X51.44Y-73.41
X51.44Y-75.95
X51.44Y-78.49
X51.44Y-81.03
X51.44Y-83.57
X51.44Y-86.11
X51.44Y-88.65
X51.44Y-91.19
X51.44Y-93.73
X51.44Y-96.27
X51.44Y-98.81
X51.44Y-101.35
X51.44Y-103.89
X51.44Y-106.43
X51.44Y-108.97
X51.44Y-111.51
X51.44Y-114.05
X51.44Y-116.59
X51.44Y-119.13
X51.44Y-121.67
X51.44Y-124.21
X51.44Y-126.75
X51.44Y-129.29
X51.44Y-131.83
X53.98Y-73.41
X53.98Y-75.95
X53.98Y-78.49
X53.98Y-81.03
X53.98Y-83.57
X53.98Y-86.11
X53.98Y-88.65
X53.98Y-91.19
X53.98Y-93.73
X53.98Y-96.27
X53.98Y-98.81
X53.98Y-101.35
X53.98Y-103.89
X53.98Y-106.43
X53.98Y-108.97
X53.98Y-111.51
X53.98Y-114.05
X53.98Y-116.59
X53.98Y-119.13
X53.98Y-121.67
X53.98Y-124.21
X53.98Y-126.75
X53.98Y-129.29
X53.98Y-131.83
X87.37Y-72.4
X87.37Y-74.94
X89.91Y-72.4
X89.91Y-74.94
X92.45Y-72.4
X92.45Y-74.94
T0
M30
