G04 #@! TF.FileFunction,Other,Fab,Top*
%FSLAX46Y46*%
G04 Gerber Fmt 4.6, Leading zero omitted, Abs format (unit mm)*
G04 Created by KiCad (PCBNEW 4.0.7) date 07/31/18 16:14:13*
%MOMM*%
%LPD*%
G01*
G04 APERTURE LIST*
%ADD10C,0.100000*%
%ADD11C,0.150000*%
%ADD12C,0.075000*%
G04 APERTURE END LIST*
D10*
X80815000Y-78900000D02*
X94545000Y-78900000D01*
X94545000Y-78900000D02*
X94545000Y-129700000D01*
X94545000Y-129700000D02*
X79815000Y-129700000D01*
X79815000Y-129700000D02*
X79815000Y-79900000D01*
X79815000Y-79900000D02*
X80815000Y-78900000D01*
X78290000Y-78840000D02*
X78290000Y-129760000D01*
X78290000Y-129760000D02*
X96070000Y-129760000D01*
X96070000Y-129760000D02*
X96070000Y-78840000D01*
X96070000Y-78840000D02*
X78290000Y-78840000D01*
X53980000Y-133100000D02*
X50170000Y-133100000D01*
X50170000Y-133100000D02*
X50170000Y-72140000D01*
X50170000Y-72140000D02*
X55250000Y-72140000D01*
X55250000Y-72140000D02*
X55250000Y-131830000D01*
X55250000Y-131830000D02*
X53980000Y-133100000D01*
X86100000Y-74940000D02*
X86100000Y-71130000D01*
X86100000Y-71130000D02*
X93720000Y-71130000D01*
X93720000Y-71130000D02*
X93720000Y-76210000D01*
X93720000Y-76210000D02*
X87370000Y-76210000D01*
X87370000Y-76210000D02*
X86100000Y-74940000D01*
X83760000Y-72770000D02*
X84560000Y-72770000D01*
X83760000Y-74370000D02*
X83760000Y-72770000D01*
X84560000Y-74370000D02*
X83760000Y-74370000D01*
X84560000Y-72770000D02*
X84560000Y-74370000D01*
X84225000Y-78900000D02*
X97955000Y-78900000D01*
X97955000Y-78900000D02*
X97955000Y-129700000D01*
X97955000Y-129700000D02*
X83225000Y-129700000D01*
X83225000Y-129700000D02*
X83225000Y-79900000D01*
X83225000Y-79900000D02*
X84225000Y-78900000D01*
X81700000Y-78840000D02*
X81700000Y-129760000D01*
X81700000Y-129760000D02*
X99480000Y-129760000D01*
X99480000Y-129760000D02*
X99480000Y-78840000D01*
X99480000Y-78840000D02*
X81700000Y-78840000D01*
D11*
X83156190Y-130212381D02*
X82965713Y-130212381D01*
X82870475Y-130260000D01*
X82822856Y-130307619D01*
X82727618Y-130450476D01*
X82679999Y-130640952D01*
X82679999Y-131021905D01*
X82727618Y-131117143D01*
X82775237Y-131164762D01*
X82870475Y-131212381D01*
X83060952Y-131212381D01*
X83156190Y-131164762D01*
X83203809Y-131117143D01*
X83251428Y-131021905D01*
X83251428Y-130783810D01*
X83203809Y-130688571D01*
X83156190Y-130640952D01*
X83060952Y-130593333D01*
X82870475Y-130593333D01*
X82775237Y-130640952D01*
X82727618Y-130688571D01*
X82679999Y-130783810D01*
X84156190Y-130212381D02*
X83679999Y-130212381D01*
X83632380Y-130688571D01*
X83679999Y-130640952D01*
X83775237Y-130593333D01*
X84013333Y-130593333D01*
X84108571Y-130640952D01*
X84156190Y-130688571D01*
X84203809Y-130783810D01*
X84203809Y-131021905D01*
X84156190Y-131117143D01*
X84108571Y-131164762D01*
X84013333Y-131212381D01*
X83775237Y-131212381D01*
X83679999Y-131164762D01*
X83632380Y-131117143D01*
X84822856Y-130212381D02*
X84918095Y-130212381D01*
X85013333Y-130260000D01*
X85060952Y-130307619D01*
X85108571Y-130402857D01*
X85156190Y-130593333D01*
X85156190Y-130831429D01*
X85108571Y-131021905D01*
X85060952Y-131117143D01*
X85013333Y-131164762D01*
X84918095Y-131212381D01*
X84822856Y-131212381D01*
X84727618Y-131164762D01*
X84679999Y-131117143D01*
X84632380Y-131021905D01*
X84584761Y-130831429D01*
X84584761Y-130593333D01*
X84632380Y-130402857D01*
X84679999Y-130307619D01*
X84727618Y-130260000D01*
X84822856Y-130212381D01*
X85537142Y-130307619D02*
X85584761Y-130260000D01*
X85679999Y-130212381D01*
X85918095Y-130212381D01*
X86013333Y-130260000D01*
X86060952Y-130307619D01*
X86108571Y-130402857D01*
X86108571Y-130498095D01*
X86060952Y-130640952D01*
X85489523Y-131212381D01*
X86108571Y-131212381D01*
X86299047Y-131307619D02*
X87060952Y-131307619D01*
X87251428Y-131164762D02*
X87346666Y-131212381D01*
X87537142Y-131212381D01*
X87632381Y-131164762D01*
X87680000Y-131069524D01*
X87680000Y-131021905D01*
X87632381Y-130926667D01*
X87537142Y-130879048D01*
X87394285Y-130879048D01*
X87299047Y-130831429D01*
X87251428Y-130736190D01*
X87251428Y-130688571D01*
X87299047Y-130593333D01*
X87394285Y-130545714D01*
X87537142Y-130545714D01*
X87632381Y-130593333D01*
X88251428Y-131212381D02*
X88156190Y-131164762D01*
X88108571Y-131117143D01*
X88060952Y-131021905D01*
X88060952Y-130736190D01*
X88108571Y-130640952D01*
X88156190Y-130593333D01*
X88251428Y-130545714D01*
X88394286Y-130545714D01*
X88489524Y-130593333D01*
X88537143Y-130640952D01*
X88584762Y-130736190D01*
X88584762Y-131021905D01*
X88537143Y-131117143D01*
X88489524Y-131164762D01*
X88394286Y-131212381D01*
X88251428Y-131212381D01*
X89441905Y-131164762D02*
X89346667Y-131212381D01*
X89156190Y-131212381D01*
X89060952Y-131164762D01*
X89013333Y-131117143D01*
X88965714Y-131021905D01*
X88965714Y-130736190D01*
X89013333Y-130640952D01*
X89060952Y-130593333D01*
X89156190Y-130545714D01*
X89346667Y-130545714D01*
X89441905Y-130593333D01*
X89870476Y-131212381D02*
X89870476Y-130212381D01*
X89965714Y-130831429D02*
X90251429Y-131212381D01*
X90251429Y-130545714D02*
X89870476Y-130926667D01*
X91060953Y-131164762D02*
X90965715Y-131212381D01*
X90775238Y-131212381D01*
X90680000Y-131164762D01*
X90632381Y-131069524D01*
X90632381Y-130688571D01*
X90680000Y-130593333D01*
X90775238Y-130545714D01*
X90965715Y-130545714D01*
X91060953Y-130593333D01*
X91108572Y-130688571D01*
X91108572Y-130783810D01*
X90632381Y-130879048D01*
X91394286Y-130545714D02*
X91775238Y-130545714D01*
X91537143Y-130212381D02*
X91537143Y-131069524D01*
X91584762Y-131164762D01*
X91680000Y-131212381D01*
X91775238Y-131212381D01*
X86846667Y-103752381D02*
X86846667Y-104466667D01*
X86799047Y-104609524D01*
X86703809Y-104704762D01*
X86560952Y-104752381D01*
X86465714Y-104752381D01*
X87846667Y-104752381D02*
X87275238Y-104752381D01*
X87560952Y-104752381D02*
X87560952Y-103752381D01*
X87465714Y-103895238D01*
X87370476Y-103990476D01*
X87275238Y-104038095D01*
X45067142Y-71437143D02*
X45019523Y-71484762D01*
X44876666Y-71532381D01*
X44781428Y-71532381D01*
X44638570Y-71484762D01*
X44543332Y-71389524D01*
X44495713Y-71294286D01*
X44448094Y-71103810D01*
X44448094Y-70960952D01*
X44495713Y-70770476D01*
X44543332Y-70675238D01*
X44638570Y-70580000D01*
X44781428Y-70532381D01*
X44876666Y-70532381D01*
X45019523Y-70580000D01*
X45067142Y-70627619D01*
X45638570Y-71532381D02*
X45543332Y-71484762D01*
X45495713Y-71437143D01*
X45448094Y-71341905D01*
X45448094Y-71056190D01*
X45495713Y-70960952D01*
X45543332Y-70913333D01*
X45638570Y-70865714D01*
X45781428Y-70865714D01*
X45876666Y-70913333D01*
X45924285Y-70960952D01*
X45971904Y-71056190D01*
X45971904Y-71341905D01*
X45924285Y-71437143D01*
X45876666Y-71484762D01*
X45781428Y-71532381D01*
X45638570Y-71532381D01*
X46400475Y-70865714D02*
X46400475Y-71532381D01*
X46400475Y-70960952D02*
X46448094Y-70913333D01*
X46543332Y-70865714D01*
X46686190Y-70865714D01*
X46781428Y-70913333D01*
X46829047Y-71008571D01*
X46829047Y-71532381D01*
X47305237Y-70865714D02*
X47305237Y-71532381D01*
X47305237Y-70960952D02*
X47352856Y-70913333D01*
X47448094Y-70865714D01*
X47590952Y-70865714D01*
X47686190Y-70913333D01*
X47733809Y-71008571D01*
X47733809Y-71532381D01*
X47971904Y-71627619D02*
X48733809Y-71627619D01*
X49162380Y-70532381D02*
X49257619Y-70532381D01*
X49352857Y-70580000D01*
X49400476Y-70627619D01*
X49448095Y-70722857D01*
X49495714Y-70913333D01*
X49495714Y-71151429D01*
X49448095Y-71341905D01*
X49400476Y-71437143D01*
X49352857Y-71484762D01*
X49257619Y-71532381D01*
X49162380Y-71532381D01*
X49067142Y-71484762D01*
X49019523Y-71437143D01*
X48971904Y-71341905D01*
X48924285Y-71151429D01*
X48924285Y-70913333D01*
X48971904Y-70722857D01*
X49019523Y-70627619D01*
X49067142Y-70580000D01*
X49162380Y-70532381D01*
X49876666Y-70627619D02*
X49924285Y-70580000D01*
X50019523Y-70532381D01*
X50257619Y-70532381D01*
X50352857Y-70580000D01*
X50400476Y-70627619D01*
X50448095Y-70722857D01*
X50448095Y-70818095D01*
X50400476Y-70960952D01*
X49829047Y-71532381D01*
X50448095Y-71532381D01*
X50781428Y-71532381D02*
X51305238Y-70865714D01*
X50781428Y-70865714D02*
X51305238Y-71532381D01*
X51638571Y-70627619D02*
X51686190Y-70580000D01*
X51781428Y-70532381D01*
X52019524Y-70532381D01*
X52114762Y-70580000D01*
X52162381Y-70627619D01*
X52210000Y-70722857D01*
X52210000Y-70818095D01*
X52162381Y-70960952D01*
X51590952Y-71532381D01*
X52210000Y-71532381D01*
X53067143Y-70865714D02*
X53067143Y-71532381D01*
X52829047Y-70484762D02*
X52590952Y-71199048D01*
X53210000Y-71199048D01*
X53352857Y-71627619D02*
X54114762Y-71627619D01*
X54543333Y-70532381D02*
X54733810Y-70532381D01*
X54829048Y-70580000D01*
X54924286Y-70675238D01*
X54971905Y-70865714D01*
X54971905Y-71199048D01*
X54924286Y-71389524D01*
X54829048Y-71484762D01*
X54733810Y-71532381D01*
X54543333Y-71532381D01*
X54448095Y-71484762D01*
X54352857Y-71389524D01*
X54305238Y-71199048D01*
X54305238Y-70865714D01*
X54352857Y-70675238D01*
X54448095Y-70580000D01*
X54543333Y-70532381D01*
X55829048Y-71532381D02*
X55829048Y-70532381D01*
X55829048Y-71484762D02*
X55733810Y-71532381D01*
X55543333Y-71532381D01*
X55448095Y-71484762D01*
X55400476Y-71437143D01*
X55352857Y-71341905D01*
X55352857Y-71056190D01*
X55400476Y-70960952D01*
X55448095Y-70913333D01*
X55543333Y-70865714D01*
X55733810Y-70865714D01*
X55829048Y-70913333D01*
X56733810Y-71532381D02*
X56733810Y-70532381D01*
X56733810Y-71484762D02*
X56638572Y-71532381D01*
X56448095Y-71532381D01*
X56352857Y-71484762D01*
X56305238Y-71437143D01*
X56257619Y-71341905D01*
X56257619Y-71056190D01*
X56305238Y-70960952D01*
X56352857Y-70913333D01*
X56448095Y-70865714D01*
X56638572Y-70865714D01*
X56733810Y-70913333D01*
X56971905Y-71627619D02*
X57733810Y-71627619D01*
X57971905Y-71008571D02*
X58305239Y-71008571D01*
X58448096Y-71532381D02*
X57971905Y-71532381D01*
X57971905Y-70532381D01*
X58448096Y-70532381D01*
X58781429Y-70865714D02*
X59019524Y-71532381D01*
X59257620Y-70865714D01*
X60019525Y-71484762D02*
X59924287Y-71532381D01*
X59733810Y-71532381D01*
X59638572Y-71484762D01*
X59590953Y-71389524D01*
X59590953Y-71008571D01*
X59638572Y-70913333D01*
X59733810Y-70865714D01*
X59924287Y-70865714D01*
X60019525Y-70913333D01*
X60067144Y-71008571D01*
X60067144Y-71103810D01*
X59590953Y-71199048D01*
X60495715Y-70865714D02*
X60495715Y-71532381D01*
X60495715Y-70960952D02*
X60543334Y-70913333D01*
X60638572Y-70865714D01*
X60781430Y-70865714D01*
X60876668Y-70913333D01*
X60924287Y-71008571D01*
X60924287Y-71532381D01*
X52162381Y-102953333D02*
X52876667Y-102953333D01*
X53019524Y-103000953D01*
X53114762Y-103096191D01*
X53162381Y-103239048D01*
X53162381Y-103334286D01*
X52257619Y-102524762D02*
X52210000Y-102477143D01*
X52162381Y-102381905D01*
X52162381Y-102143809D01*
X52210000Y-102048571D01*
X52257619Y-102000952D01*
X52352857Y-101953333D01*
X52448095Y-101953333D01*
X52590952Y-102000952D01*
X53162381Y-102572381D01*
X53162381Y-101953333D01*
X95137143Y-81312858D02*
X95184762Y-81360477D01*
X95232381Y-81503334D01*
X95232381Y-81598572D01*
X95184762Y-81741430D01*
X95089524Y-81836668D01*
X94994286Y-81884287D01*
X94803810Y-81931906D01*
X94660952Y-81931906D01*
X94470476Y-81884287D01*
X94375238Y-81836668D01*
X94280000Y-81741430D01*
X94232381Y-81598572D01*
X94232381Y-81503334D01*
X94280000Y-81360477D01*
X94327619Y-81312858D01*
X95232381Y-80741430D02*
X95184762Y-80836668D01*
X95137143Y-80884287D01*
X95041905Y-80931906D01*
X94756190Y-80931906D01*
X94660952Y-80884287D01*
X94613333Y-80836668D01*
X94565714Y-80741430D01*
X94565714Y-80598572D01*
X94613333Y-80503334D01*
X94660952Y-80455715D01*
X94756190Y-80408096D01*
X95041905Y-80408096D01*
X95137143Y-80455715D01*
X95184762Y-80503334D01*
X95232381Y-80598572D01*
X95232381Y-80741430D01*
X94565714Y-79979525D02*
X95232381Y-79979525D01*
X94660952Y-79979525D02*
X94613333Y-79931906D01*
X94565714Y-79836668D01*
X94565714Y-79693810D01*
X94613333Y-79598572D01*
X94708571Y-79550953D01*
X95232381Y-79550953D01*
X94565714Y-79074763D02*
X95232381Y-79074763D01*
X94660952Y-79074763D02*
X94613333Y-79027144D01*
X94565714Y-78931906D01*
X94565714Y-78789048D01*
X94613333Y-78693810D01*
X94708571Y-78646191D01*
X95232381Y-78646191D01*
X95327619Y-78408096D02*
X95327619Y-77646191D01*
X94232381Y-77217620D02*
X94232381Y-77122381D01*
X94280000Y-77027143D01*
X94327619Y-76979524D01*
X94422857Y-76931905D01*
X94613333Y-76884286D01*
X94851429Y-76884286D01*
X95041905Y-76931905D01*
X95137143Y-76979524D01*
X95184762Y-77027143D01*
X95232381Y-77122381D01*
X95232381Y-77217620D01*
X95184762Y-77312858D01*
X95137143Y-77360477D01*
X95041905Y-77408096D01*
X94851429Y-77455715D01*
X94613333Y-77455715D01*
X94422857Y-77408096D01*
X94327619Y-77360477D01*
X94280000Y-77312858D01*
X94232381Y-77217620D01*
X94327619Y-76503334D02*
X94280000Y-76455715D01*
X94232381Y-76360477D01*
X94232381Y-76122381D01*
X94280000Y-76027143D01*
X94327619Y-75979524D01*
X94422857Y-75931905D01*
X94518095Y-75931905D01*
X94660952Y-75979524D01*
X95232381Y-76550953D01*
X95232381Y-75931905D01*
X95232381Y-75598572D02*
X94565714Y-75074762D01*
X94565714Y-75598572D02*
X95232381Y-75074762D01*
X94232381Y-74503334D02*
X94232381Y-74408095D01*
X94280000Y-74312857D01*
X94327619Y-74265238D01*
X94422857Y-74217619D01*
X94613333Y-74170000D01*
X94851429Y-74170000D01*
X95041905Y-74217619D01*
X95137143Y-74265238D01*
X95184762Y-74312857D01*
X95232381Y-74408095D01*
X95232381Y-74503334D01*
X95184762Y-74598572D01*
X95137143Y-74646191D01*
X95041905Y-74693810D01*
X94851429Y-74741429D01*
X94613333Y-74741429D01*
X94422857Y-74693810D01*
X94327619Y-74646191D01*
X94280000Y-74598572D01*
X94232381Y-74503334D01*
X94232381Y-73836667D02*
X94232381Y-73217619D01*
X94613333Y-73550953D01*
X94613333Y-73408095D01*
X94660952Y-73312857D01*
X94708571Y-73265238D01*
X94803810Y-73217619D01*
X95041905Y-73217619D01*
X95137143Y-73265238D01*
X95184762Y-73312857D01*
X95232381Y-73408095D01*
X95232381Y-73693810D01*
X95184762Y-73789048D01*
X95137143Y-73836667D01*
X95327619Y-73027143D02*
X95327619Y-72265238D01*
X94232381Y-71836667D02*
X94232381Y-71646190D01*
X94280000Y-71550952D01*
X94375238Y-71455714D01*
X94565714Y-71408095D01*
X94899048Y-71408095D01*
X95089524Y-71455714D01*
X95184762Y-71550952D01*
X95232381Y-71646190D01*
X95232381Y-71836667D01*
X95184762Y-71931905D01*
X95089524Y-72027143D01*
X94899048Y-72074762D01*
X94565714Y-72074762D01*
X94375238Y-72027143D01*
X94280000Y-71931905D01*
X94232381Y-71836667D01*
X95232381Y-70550952D02*
X94232381Y-70550952D01*
X95184762Y-70550952D02*
X95232381Y-70646190D01*
X95232381Y-70836667D01*
X95184762Y-70931905D01*
X95137143Y-70979524D01*
X95041905Y-71027143D01*
X94756190Y-71027143D01*
X94660952Y-70979524D01*
X94613333Y-70931905D01*
X94565714Y-70836667D01*
X94565714Y-70646190D01*
X94613333Y-70550952D01*
X95232381Y-69646190D02*
X94232381Y-69646190D01*
X95184762Y-69646190D02*
X95232381Y-69741428D01*
X95232381Y-69931905D01*
X95184762Y-70027143D01*
X95137143Y-70074762D01*
X95041905Y-70122381D01*
X94756190Y-70122381D01*
X94660952Y-70074762D01*
X94613333Y-70027143D01*
X94565714Y-69931905D01*
X94565714Y-69741428D01*
X94613333Y-69646190D01*
X95327619Y-69408095D02*
X95327619Y-68646190D01*
X94708571Y-68408095D02*
X94708571Y-68074761D01*
X95232381Y-67931904D02*
X95232381Y-68408095D01*
X94232381Y-68408095D01*
X94232381Y-67931904D01*
X94565714Y-67598571D02*
X95232381Y-67360476D01*
X94565714Y-67122380D01*
X95184762Y-66360475D02*
X95232381Y-66455713D01*
X95232381Y-66646190D01*
X95184762Y-66741428D01*
X95089524Y-66789047D01*
X94708571Y-66789047D01*
X94613333Y-66741428D01*
X94565714Y-66646190D01*
X94565714Y-66455713D01*
X94613333Y-66360475D01*
X94708571Y-66312856D01*
X94803810Y-66312856D01*
X94899048Y-66789047D01*
X94565714Y-65884285D02*
X95232381Y-65884285D01*
X94660952Y-65884285D02*
X94613333Y-65836666D01*
X94565714Y-65741428D01*
X94565714Y-65598570D01*
X94613333Y-65503332D01*
X94708571Y-65455713D01*
X95232381Y-65455713D01*
X89576667Y-73122381D02*
X89576667Y-73836667D01*
X89529047Y-73979524D01*
X89433809Y-74074762D01*
X89290952Y-74122381D01*
X89195714Y-74122381D01*
X89957619Y-73122381D02*
X90576667Y-73122381D01*
X90243333Y-73503333D01*
X90386191Y-73503333D01*
X90481429Y-73550952D01*
X90529048Y-73598571D01*
X90576667Y-73693810D01*
X90576667Y-73931905D01*
X90529048Y-74027143D01*
X90481429Y-74074762D01*
X90386191Y-74122381D01*
X90100476Y-74122381D01*
X90005238Y-74074762D01*
X89957619Y-74027143D01*
X83112381Y-74165238D02*
X83112381Y-74736667D01*
X83112381Y-74450953D02*
X82112381Y-74450953D01*
X82255238Y-74546191D01*
X82350476Y-74641429D01*
X82398095Y-74736667D01*
X82112381Y-73546191D02*
X82112381Y-73450952D01*
X82160000Y-73355714D01*
X82207619Y-73308095D01*
X82302857Y-73260476D01*
X82493333Y-73212857D01*
X82731429Y-73212857D01*
X82921905Y-73260476D01*
X83017143Y-73308095D01*
X83064762Y-73355714D01*
X83112381Y-73450952D01*
X83112381Y-73546191D01*
X83064762Y-73641429D01*
X83017143Y-73689048D01*
X82921905Y-73736667D01*
X82731429Y-73784286D01*
X82493333Y-73784286D01*
X82302857Y-73736667D01*
X82207619Y-73689048D01*
X82160000Y-73641429D01*
X82112381Y-73546191D01*
X83112381Y-72784286D02*
X82112381Y-72784286D01*
X82731429Y-72689048D02*
X83112381Y-72403333D01*
X82445714Y-72403333D02*
X82826667Y-72784286D01*
D12*
X84340952Y-73827142D02*
X84150476Y-73960476D01*
X84340952Y-74055714D02*
X83940952Y-74055714D01*
X83940952Y-73903333D01*
X83960000Y-73865238D01*
X83979048Y-73846190D01*
X84017143Y-73827142D01*
X84074286Y-73827142D01*
X84112381Y-73846190D01*
X84131429Y-73865238D01*
X84150476Y-73903333D01*
X84150476Y-74055714D01*
X83979048Y-73674762D02*
X83960000Y-73655714D01*
X83940952Y-73617619D01*
X83940952Y-73522381D01*
X83960000Y-73484285D01*
X83979048Y-73465238D01*
X84017143Y-73446190D01*
X84055238Y-73446190D01*
X84112381Y-73465238D01*
X84340952Y-73693809D01*
X84340952Y-73446190D01*
X83940952Y-73084286D02*
X83940952Y-73274762D01*
X84131429Y-73293810D01*
X84112381Y-73274762D01*
X84093333Y-73236667D01*
X84093333Y-73141429D01*
X84112381Y-73103333D01*
X84131429Y-73084286D01*
X84169524Y-73065238D01*
X84264762Y-73065238D01*
X84302857Y-73084286D01*
X84321905Y-73103333D01*
X84340952Y-73141429D01*
X84340952Y-73236667D01*
X84321905Y-73274762D01*
X84302857Y-73293810D01*
D11*
X87256667Y-130212381D02*
X87494762Y-131212381D01*
X87685239Y-130498095D01*
X87875715Y-131212381D01*
X88113810Y-130212381D01*
X88494762Y-131212381D02*
X88494762Y-130212381D01*
X88732857Y-130212381D01*
X88875715Y-130260000D01*
X88970953Y-130355238D01*
X89018572Y-130450476D01*
X89066191Y-130640952D01*
X89066191Y-130783810D01*
X89018572Y-130974286D01*
X88970953Y-131069524D01*
X88875715Y-131164762D01*
X88732857Y-131212381D01*
X88494762Y-131212381D01*
X89923334Y-130212381D02*
X89732857Y-130212381D01*
X89637619Y-130260000D01*
X89590000Y-130307619D01*
X89494762Y-130450476D01*
X89447143Y-130640952D01*
X89447143Y-131021905D01*
X89494762Y-131117143D01*
X89542381Y-131164762D01*
X89637619Y-131212381D01*
X89828096Y-131212381D01*
X89923334Y-131164762D01*
X89970953Y-131117143D01*
X90018572Y-131021905D01*
X90018572Y-130783810D01*
X89970953Y-130688571D01*
X89923334Y-130640952D01*
X89828096Y-130593333D01*
X89637619Y-130593333D01*
X89542381Y-130640952D01*
X89494762Y-130688571D01*
X89447143Y-130783810D01*
X90923334Y-130212381D02*
X90447143Y-130212381D01*
X90399524Y-130688571D01*
X90447143Y-130640952D01*
X90542381Y-130593333D01*
X90780477Y-130593333D01*
X90875715Y-130640952D01*
X90923334Y-130688571D01*
X90970953Y-130783810D01*
X90970953Y-131021905D01*
X90923334Y-131117143D01*
X90875715Y-131164762D01*
X90780477Y-131212381D01*
X90542381Y-131212381D01*
X90447143Y-131164762D01*
X90399524Y-131117143D01*
X91970953Y-131117143D02*
X91923334Y-131164762D01*
X91780477Y-131212381D01*
X91685239Y-131212381D01*
X91542381Y-131164762D01*
X91447143Y-131069524D01*
X91399524Y-130974286D01*
X91351905Y-130783810D01*
X91351905Y-130640952D01*
X91399524Y-130450476D01*
X91447143Y-130355238D01*
X91542381Y-130260000D01*
X91685239Y-130212381D01*
X91780477Y-130212381D01*
X91923334Y-130260000D01*
X91970953Y-130307619D01*
X92590000Y-130212381D02*
X92685239Y-130212381D01*
X92780477Y-130260000D01*
X92828096Y-130307619D01*
X92875715Y-130402857D01*
X92923334Y-130593333D01*
X92923334Y-130831429D01*
X92875715Y-131021905D01*
X92828096Y-131117143D01*
X92780477Y-131164762D01*
X92685239Y-131212381D01*
X92590000Y-131212381D01*
X92494762Y-131164762D01*
X92447143Y-131117143D01*
X92399524Y-131021905D01*
X92351905Y-130831429D01*
X92351905Y-130593333D01*
X92399524Y-130402857D01*
X92447143Y-130307619D01*
X92494762Y-130260000D01*
X92590000Y-130212381D01*
X93304286Y-130307619D02*
X93351905Y-130260000D01*
X93447143Y-130212381D01*
X93685239Y-130212381D01*
X93780477Y-130260000D01*
X93828096Y-130307619D01*
X93875715Y-130402857D01*
X93875715Y-130498095D01*
X93828096Y-130640952D01*
X93256667Y-131212381D01*
X93875715Y-131212381D01*
X89828095Y-103752381D02*
X89828095Y-104561905D01*
X89875714Y-104657143D01*
X89923333Y-104704762D01*
X90018571Y-104752381D01*
X90209048Y-104752381D01*
X90304286Y-104704762D01*
X90351905Y-104657143D01*
X90399524Y-104561905D01*
X90399524Y-103752381D01*
X91399524Y-104752381D02*
X90828095Y-104752381D01*
X91113809Y-104752381D02*
X91113809Y-103752381D01*
X91018571Y-103895238D01*
X90923333Y-103990476D01*
X90828095Y-104038095D01*
M02*
