G04 #@! TF.FileFunction,Legend,Top*
%FSLAX46Y46*%
G04 Gerber Fmt 4.6, Leading zero omitted, Abs format (unit mm)*
G04 Created by KiCad (PCBNEW 4.0.7) date 07/31/18 16:14:13*
%MOMM*%
%LPD*%
G01*
G04 APERTURE LIST*
%ADD10C,0.100000*%
%ADD11C,0.300000*%
%ADD12C,0.200000*%
%ADD13C,0.120000*%
%ADD14C,0.150000*%
G04 APERTURE END LIST*
D10*
D11*
X66043571Y-122405712D02*
X66043571Y-122691426D01*
X66115000Y-122834283D01*
X66186429Y-122905712D01*
X66400714Y-123048569D01*
X66686429Y-123119998D01*
X67257857Y-123119998D01*
X67400714Y-123048569D01*
X67472143Y-122977141D01*
X67543571Y-122834283D01*
X67543571Y-122548569D01*
X67472143Y-122405712D01*
X67400714Y-122334283D01*
X67257857Y-122262855D01*
X66900714Y-122262855D01*
X66757857Y-122334283D01*
X66686429Y-122405712D01*
X66615000Y-122548569D01*
X66615000Y-122834283D01*
X66686429Y-122977141D01*
X66757857Y-123048569D01*
X66900714Y-123119998D01*
X66043571Y-120905712D02*
X66043571Y-121619998D01*
X66757857Y-121691427D01*
X66686429Y-121619998D01*
X66615000Y-121477141D01*
X66615000Y-121119998D01*
X66686429Y-120977141D01*
X66757857Y-120905712D01*
X66900714Y-120834284D01*
X67257857Y-120834284D01*
X67400714Y-120905712D01*
X67472143Y-120977141D01*
X67543571Y-121119998D01*
X67543571Y-121477141D01*
X67472143Y-121619998D01*
X67400714Y-121691427D01*
X67400714Y-119334284D02*
X67472143Y-119405713D01*
X67543571Y-119619999D01*
X67543571Y-119762856D01*
X67472143Y-119977141D01*
X67329286Y-120119999D01*
X67186429Y-120191427D01*
X66900714Y-120262856D01*
X66686429Y-120262856D01*
X66400714Y-120191427D01*
X66257857Y-120119999D01*
X66115000Y-119977141D01*
X66043571Y-119762856D01*
X66043571Y-119619999D01*
X66115000Y-119405713D01*
X66186429Y-119334284D01*
X66043571Y-118405713D02*
X66043571Y-118262856D01*
X66115000Y-118119999D01*
X66186429Y-118048570D01*
X66329286Y-117977141D01*
X66615000Y-117905713D01*
X66972143Y-117905713D01*
X67257857Y-117977141D01*
X67400714Y-118048570D01*
X67472143Y-118119999D01*
X67543571Y-118262856D01*
X67543571Y-118405713D01*
X67472143Y-118548570D01*
X67400714Y-118619999D01*
X67257857Y-118691427D01*
X66972143Y-118762856D01*
X66615000Y-118762856D01*
X66329286Y-118691427D01*
X66186429Y-118619999D01*
X66115000Y-118548570D01*
X66043571Y-118405713D01*
X66186429Y-117334285D02*
X66115000Y-117262856D01*
X66043571Y-117119999D01*
X66043571Y-116762856D01*
X66115000Y-116619999D01*
X66186429Y-116548570D01*
X66329286Y-116477142D01*
X66472143Y-116477142D01*
X66686429Y-116548570D01*
X67543571Y-117405713D01*
X67543571Y-116477142D01*
X67543571Y-114048571D02*
X66757857Y-114048571D01*
X66615000Y-114120000D01*
X66543571Y-114262857D01*
X66543571Y-114548571D01*
X66615000Y-114691428D01*
X67472143Y-114048571D02*
X67543571Y-114191428D01*
X67543571Y-114548571D01*
X67472143Y-114691428D01*
X67329286Y-114762857D01*
X67186429Y-114762857D01*
X67043571Y-114691428D01*
X66972143Y-114548571D01*
X66972143Y-114191428D01*
X66900714Y-114048571D01*
X67543571Y-112691428D02*
X66043571Y-112691428D01*
X67472143Y-112691428D02*
X67543571Y-112834285D01*
X67543571Y-113119999D01*
X67472143Y-113262857D01*
X67400714Y-113334285D01*
X67257857Y-113405714D01*
X66829286Y-113405714D01*
X66686429Y-113334285D01*
X66615000Y-113262857D01*
X66543571Y-113119999D01*
X66543571Y-112834285D01*
X66615000Y-112691428D01*
X67543571Y-111334285D02*
X66757857Y-111334285D01*
X66615000Y-111405714D01*
X66543571Y-111548571D01*
X66543571Y-111834285D01*
X66615000Y-111977142D01*
X67472143Y-111334285D02*
X67543571Y-111477142D01*
X67543571Y-111834285D01*
X67472143Y-111977142D01*
X67329286Y-112048571D01*
X67186429Y-112048571D01*
X67043571Y-111977142D01*
X66972143Y-111834285D01*
X66972143Y-111477142D01*
X66900714Y-111334285D01*
X66543571Y-110619999D02*
X68043571Y-110619999D01*
X66615000Y-110619999D02*
X66543571Y-110477142D01*
X66543571Y-110191428D01*
X66615000Y-110048571D01*
X66686429Y-109977142D01*
X66829286Y-109905713D01*
X67257857Y-109905713D01*
X67400714Y-109977142D01*
X67472143Y-110048571D01*
X67543571Y-110191428D01*
X67543571Y-110477142D01*
X67472143Y-110619999D01*
X66543571Y-109477142D02*
X66543571Y-108905713D01*
X66043571Y-109262856D02*
X67329286Y-109262856D01*
X67472143Y-109191428D01*
X67543571Y-109048570D01*
X67543571Y-108905713D01*
X67472143Y-107834285D02*
X67543571Y-107977142D01*
X67543571Y-108262856D01*
X67472143Y-108405713D01*
X67329286Y-108477142D01*
X66757857Y-108477142D01*
X66615000Y-108405713D01*
X66543571Y-108262856D01*
X66543571Y-107977142D01*
X66615000Y-107834285D01*
X66757857Y-107762856D01*
X66900714Y-107762856D01*
X67043571Y-108477142D01*
X67543571Y-107119999D02*
X66543571Y-107119999D01*
X66829286Y-107119999D02*
X66686429Y-107048571D01*
X66615000Y-106977142D01*
X66543571Y-106834285D01*
X66543571Y-106691428D01*
X66543571Y-105262857D02*
X66543571Y-104691428D01*
X67543571Y-105048571D02*
X66257857Y-105048571D01*
X66115000Y-104977143D01*
X66043571Y-104834285D01*
X66043571Y-104691428D01*
X67543571Y-103977142D02*
X67472143Y-104120000D01*
X67400714Y-104191428D01*
X67257857Y-104262857D01*
X66829286Y-104262857D01*
X66686429Y-104191428D01*
X66615000Y-104120000D01*
X66543571Y-103977142D01*
X66543571Y-103762857D01*
X66615000Y-103620000D01*
X66686429Y-103548571D01*
X66829286Y-103477142D01*
X67257857Y-103477142D01*
X67400714Y-103548571D01*
X67472143Y-103620000D01*
X67543571Y-103762857D01*
X67543571Y-103977142D01*
X67543571Y-102834285D02*
X66543571Y-102834285D01*
X66829286Y-102834285D02*
X66686429Y-102762857D01*
X66615000Y-102691428D01*
X66543571Y-102548571D01*
X66543571Y-102405714D01*
X66043571Y-100120000D02*
X66043571Y-100405714D01*
X66115000Y-100548571D01*
X66186429Y-100620000D01*
X66400714Y-100762857D01*
X66686429Y-100834286D01*
X67257857Y-100834286D01*
X67400714Y-100762857D01*
X67472143Y-100691429D01*
X67543571Y-100548571D01*
X67543571Y-100262857D01*
X67472143Y-100120000D01*
X67400714Y-100048571D01*
X67257857Y-99977143D01*
X66900714Y-99977143D01*
X66757857Y-100048571D01*
X66686429Y-100120000D01*
X66615000Y-100262857D01*
X66615000Y-100548571D01*
X66686429Y-100691429D01*
X66757857Y-100762857D01*
X66900714Y-100834286D01*
X66043571Y-98620000D02*
X66043571Y-99334286D01*
X66757857Y-99405715D01*
X66686429Y-99334286D01*
X66615000Y-99191429D01*
X66615000Y-98834286D01*
X66686429Y-98691429D01*
X66757857Y-98620000D01*
X66900714Y-98548572D01*
X67257857Y-98548572D01*
X67400714Y-98620000D01*
X67472143Y-98691429D01*
X67543571Y-98834286D01*
X67543571Y-99191429D01*
X67472143Y-99334286D01*
X67400714Y-99405715D01*
X66043571Y-97620001D02*
X66043571Y-97477144D01*
X66115000Y-97334287D01*
X66186429Y-97262858D01*
X66329286Y-97191429D01*
X66615000Y-97120001D01*
X66972143Y-97120001D01*
X67257857Y-97191429D01*
X67400714Y-97262858D01*
X67472143Y-97334287D01*
X67543571Y-97477144D01*
X67543571Y-97620001D01*
X67472143Y-97762858D01*
X67400714Y-97834287D01*
X67257857Y-97905715D01*
X66972143Y-97977144D01*
X66615000Y-97977144D01*
X66329286Y-97905715D01*
X66186429Y-97834287D01*
X66115000Y-97762858D01*
X66043571Y-97620001D01*
X66186429Y-96548573D02*
X66115000Y-96477144D01*
X66043571Y-96334287D01*
X66043571Y-95977144D01*
X66115000Y-95834287D01*
X66186429Y-95762858D01*
X66329286Y-95691430D01*
X66472143Y-95691430D01*
X66686429Y-95762858D01*
X67543571Y-96620001D01*
X67543571Y-95691430D01*
X67472143Y-93977145D02*
X67543571Y-93834288D01*
X67543571Y-93548573D01*
X67472143Y-93405716D01*
X67329286Y-93334288D01*
X67257857Y-93334288D01*
X67115000Y-93405716D01*
X67043571Y-93548573D01*
X67043571Y-93762859D01*
X66972143Y-93905716D01*
X66829286Y-93977145D01*
X66757857Y-93977145D01*
X66615000Y-93905716D01*
X66543571Y-93762859D01*
X66543571Y-93548573D01*
X66615000Y-93405716D01*
X66543571Y-92834287D02*
X67543571Y-92477144D01*
X66543571Y-92120002D02*
X67543571Y-92477144D01*
X67900714Y-92620002D01*
X67972143Y-92691430D01*
X68043571Y-92834287D01*
X67472143Y-91620002D02*
X67543571Y-91477145D01*
X67543571Y-91191430D01*
X67472143Y-91048573D01*
X67329286Y-90977145D01*
X67257857Y-90977145D01*
X67115000Y-91048573D01*
X67043571Y-91191430D01*
X67043571Y-91405716D01*
X66972143Y-91548573D01*
X66829286Y-91620002D01*
X66757857Y-91620002D01*
X66615000Y-91548573D01*
X66543571Y-91405716D01*
X66543571Y-91191430D01*
X66615000Y-91048573D01*
X66543571Y-90548573D02*
X66543571Y-89977144D01*
X66043571Y-90334287D02*
X67329286Y-90334287D01*
X67472143Y-90262859D01*
X67543571Y-90120001D01*
X67543571Y-89977144D01*
X67472143Y-88905716D02*
X67543571Y-89048573D01*
X67543571Y-89334287D01*
X67472143Y-89477144D01*
X67329286Y-89548573D01*
X66757857Y-89548573D01*
X66615000Y-89477144D01*
X66543571Y-89334287D01*
X66543571Y-89048573D01*
X66615000Y-88905716D01*
X66757857Y-88834287D01*
X66900714Y-88834287D01*
X67043571Y-89548573D01*
X67543571Y-88191430D02*
X66543571Y-88191430D01*
X66686429Y-88191430D02*
X66615000Y-88120002D01*
X66543571Y-87977144D01*
X66543571Y-87762859D01*
X66615000Y-87620002D01*
X66757857Y-87548573D01*
X67543571Y-87548573D01*
X66757857Y-87548573D02*
X66615000Y-87477144D01*
X66543571Y-87334287D01*
X66543571Y-87120002D01*
X66615000Y-86977144D01*
X66757857Y-86905716D01*
X67543571Y-86905716D01*
X67472143Y-86262859D02*
X67543571Y-86120002D01*
X67543571Y-85834287D01*
X67472143Y-85691430D01*
X67329286Y-85620002D01*
X67257857Y-85620002D01*
X67115000Y-85691430D01*
X67043571Y-85834287D01*
X67043571Y-86048573D01*
X66972143Y-86191430D01*
X66829286Y-86262859D01*
X66757857Y-86262859D01*
X66615000Y-86191430D01*
X66543571Y-86048573D01*
X66543571Y-85834287D01*
X66615000Y-85691430D01*
X69093571Y-121405715D02*
X70093571Y-121120001D01*
X69379286Y-120834287D01*
X70093571Y-120548572D01*
X69093571Y-120262858D01*
X70093571Y-119691429D02*
X69093571Y-119691429D01*
X68593571Y-119691429D02*
X68665000Y-119762858D01*
X68736429Y-119691429D01*
X68665000Y-119620001D01*
X68593571Y-119691429D01*
X68736429Y-119691429D01*
X69093571Y-119191429D02*
X69093571Y-118620000D01*
X68593571Y-118977143D02*
X69879286Y-118977143D01*
X70022143Y-118905715D01*
X70093571Y-118762857D01*
X70093571Y-118620000D01*
X70093571Y-118120000D02*
X68593571Y-118120000D01*
X70093571Y-117477143D02*
X69307857Y-117477143D01*
X69165000Y-117548572D01*
X69093571Y-117691429D01*
X69093571Y-117905714D01*
X69165000Y-118048572D01*
X69236429Y-118120000D01*
X69093571Y-115834286D02*
X69093571Y-115262857D01*
X70093571Y-115620000D02*
X68807857Y-115620000D01*
X68665000Y-115548572D01*
X68593571Y-115405714D01*
X68593571Y-115262857D01*
X69093571Y-114120000D02*
X70093571Y-114120000D01*
X69093571Y-114762857D02*
X69879286Y-114762857D01*
X70022143Y-114691429D01*
X70093571Y-114548571D01*
X70093571Y-114334286D01*
X70022143Y-114191429D01*
X69950714Y-114120000D01*
X70093571Y-113191428D02*
X70022143Y-113334286D01*
X69879286Y-113405714D01*
X68593571Y-113405714D01*
X70093571Y-112405714D02*
X70022143Y-112548572D01*
X69879286Y-112620000D01*
X68593571Y-112620000D01*
X70093571Y-110691429D02*
X68593571Y-110691429D01*
X69165000Y-110691429D02*
X69093571Y-110548572D01*
X69093571Y-110262858D01*
X69165000Y-110120001D01*
X69236429Y-110048572D01*
X69379286Y-109977143D01*
X69807857Y-109977143D01*
X69950714Y-110048572D01*
X70022143Y-110120001D01*
X70093571Y-110262858D01*
X70093571Y-110548572D01*
X70022143Y-110691429D01*
X70093571Y-109120000D02*
X70022143Y-109262858D01*
X69879286Y-109334286D01*
X68593571Y-109334286D01*
X70093571Y-108548572D02*
X69093571Y-108548572D01*
X68593571Y-108548572D02*
X68665000Y-108620001D01*
X68736429Y-108548572D01*
X68665000Y-108477144D01*
X68593571Y-108548572D01*
X68736429Y-108548572D01*
X69093571Y-107834286D02*
X70093571Y-107834286D01*
X69236429Y-107834286D02*
X69165000Y-107762858D01*
X69093571Y-107620000D01*
X69093571Y-107405715D01*
X69165000Y-107262858D01*
X69307857Y-107191429D01*
X70093571Y-107191429D01*
X70093571Y-106477143D02*
X68593571Y-106477143D01*
X69522143Y-106334286D02*
X70093571Y-105905715D01*
X69093571Y-105905715D02*
X69665000Y-106477143D01*
X70022143Y-104691429D02*
X70093571Y-104834286D01*
X70093571Y-105120000D01*
X70022143Y-105262857D01*
X69879286Y-105334286D01*
X69307857Y-105334286D01*
X69165000Y-105262857D01*
X69093571Y-105120000D01*
X69093571Y-104834286D01*
X69165000Y-104691429D01*
X69307857Y-104620000D01*
X69450714Y-104620000D01*
X69593571Y-105334286D01*
X69093571Y-103977143D02*
X70093571Y-103977143D01*
X69236429Y-103977143D02*
X69165000Y-103905715D01*
X69093571Y-103762857D01*
X69093571Y-103548572D01*
X69165000Y-103405715D01*
X69307857Y-103334286D01*
X70093571Y-103334286D01*
X70093571Y-102405714D02*
X70022143Y-102548572D01*
X69879286Y-102620000D01*
X68593571Y-102620000D01*
X70093571Y-101834286D02*
X69093571Y-101834286D01*
X68593571Y-101834286D02*
X68665000Y-101905715D01*
X68736429Y-101834286D01*
X68665000Y-101762858D01*
X68593571Y-101834286D01*
X68736429Y-101834286D01*
X69093571Y-100477143D02*
X70307857Y-100477143D01*
X70450714Y-100548572D01*
X70522143Y-100620000D01*
X70593571Y-100762857D01*
X70593571Y-100977143D01*
X70522143Y-101120000D01*
X70022143Y-100477143D02*
X70093571Y-100620000D01*
X70093571Y-100905714D01*
X70022143Y-101048572D01*
X69950714Y-101120000D01*
X69807857Y-101191429D01*
X69379286Y-101191429D01*
X69236429Y-101120000D01*
X69165000Y-101048572D01*
X69093571Y-100905714D01*
X69093571Y-100620000D01*
X69165000Y-100477143D01*
X70093571Y-99762857D02*
X68593571Y-99762857D01*
X70093571Y-99120000D02*
X69307857Y-99120000D01*
X69165000Y-99191429D01*
X69093571Y-99334286D01*
X69093571Y-99548571D01*
X69165000Y-99691429D01*
X69236429Y-99762857D01*
X69093571Y-98620000D02*
X69093571Y-98048571D01*
X68593571Y-98405714D02*
X69879286Y-98405714D01*
X70022143Y-98334286D01*
X70093571Y-98191428D01*
X70093571Y-98048571D01*
X70022143Y-97620000D02*
X70093571Y-97477143D01*
X70093571Y-97191428D01*
X70022143Y-97048571D01*
X69879286Y-96977143D01*
X69807857Y-96977143D01*
X69665000Y-97048571D01*
X69593571Y-97191428D01*
X69593571Y-97405714D01*
X69522143Y-97548571D01*
X69379286Y-97620000D01*
X69307857Y-97620000D01*
X69165000Y-97548571D01*
X69093571Y-97405714D01*
X69093571Y-97191428D01*
X69165000Y-97048571D01*
X70022143Y-95262857D02*
X70093571Y-95120000D01*
X70093571Y-94834285D01*
X70022143Y-94691428D01*
X69879286Y-94620000D01*
X69807857Y-94620000D01*
X69665000Y-94691428D01*
X69593571Y-94834285D01*
X69593571Y-95048571D01*
X69522143Y-95191428D01*
X69379286Y-95262857D01*
X69307857Y-95262857D01*
X69165000Y-95191428D01*
X69093571Y-95048571D01*
X69093571Y-94834285D01*
X69165000Y-94691428D01*
X69093571Y-93334285D02*
X70093571Y-93334285D01*
X69093571Y-93977142D02*
X69879286Y-93977142D01*
X70022143Y-93905714D01*
X70093571Y-93762856D01*
X70093571Y-93548571D01*
X70022143Y-93405714D01*
X69950714Y-93334285D01*
X69093571Y-92619999D02*
X70593571Y-92619999D01*
X69165000Y-92619999D02*
X69093571Y-92477142D01*
X69093571Y-92191428D01*
X69165000Y-92048571D01*
X69236429Y-91977142D01*
X69379286Y-91905713D01*
X69807857Y-91905713D01*
X69950714Y-91977142D01*
X70022143Y-92048571D01*
X70093571Y-92191428D01*
X70093571Y-92477142D01*
X70022143Y-92619999D01*
X69093571Y-91262856D02*
X70593571Y-91262856D01*
X69165000Y-91262856D02*
X69093571Y-91119999D01*
X69093571Y-90834285D01*
X69165000Y-90691428D01*
X69236429Y-90619999D01*
X69379286Y-90548570D01*
X69807857Y-90548570D01*
X69950714Y-90619999D01*
X70022143Y-90691428D01*
X70093571Y-90834285D01*
X70093571Y-91119999D01*
X70022143Y-91262856D01*
X70093571Y-89691427D02*
X70022143Y-89834285D01*
X69950714Y-89905713D01*
X69807857Y-89977142D01*
X69379286Y-89977142D01*
X69236429Y-89905713D01*
X69165000Y-89834285D01*
X69093571Y-89691427D01*
X69093571Y-89477142D01*
X69165000Y-89334285D01*
X69236429Y-89262856D01*
X69379286Y-89191427D01*
X69807857Y-89191427D01*
X69950714Y-89262856D01*
X70022143Y-89334285D01*
X70093571Y-89477142D01*
X70093571Y-89691427D01*
X70093571Y-88548570D02*
X69093571Y-88548570D01*
X69379286Y-88548570D02*
X69236429Y-88477142D01*
X69165000Y-88405713D01*
X69093571Y-88262856D01*
X69093571Y-88119999D01*
X69093571Y-87834285D02*
X69093571Y-87262856D01*
X68593571Y-87619999D02*
X69879286Y-87619999D01*
X70022143Y-87548571D01*
X70093571Y-87405713D01*
X70093571Y-87262856D01*
X72643571Y-123441429D02*
X71857857Y-123441429D01*
X71715000Y-123512858D01*
X71643571Y-123655715D01*
X71643571Y-123941429D01*
X71715000Y-124084286D01*
X72572143Y-123441429D02*
X72643571Y-123584286D01*
X72643571Y-123941429D01*
X72572143Y-124084286D01*
X72429286Y-124155715D01*
X72286429Y-124155715D01*
X72143571Y-124084286D01*
X72072143Y-123941429D01*
X72072143Y-123584286D01*
X72000714Y-123441429D01*
X71643571Y-122727143D02*
X72643571Y-122727143D01*
X71786429Y-122727143D02*
X71715000Y-122655715D01*
X71643571Y-122512857D01*
X71643571Y-122298572D01*
X71715000Y-122155715D01*
X71857857Y-122084286D01*
X72643571Y-122084286D01*
X72643571Y-120727143D02*
X71143571Y-120727143D01*
X72572143Y-120727143D02*
X72643571Y-120870000D01*
X72643571Y-121155714D01*
X72572143Y-121298572D01*
X72500714Y-121370000D01*
X72357857Y-121441429D01*
X71929286Y-121441429D01*
X71786429Y-121370000D01*
X71715000Y-121298572D01*
X71643571Y-121155714D01*
X71643571Y-120870000D01*
X71715000Y-120727143D01*
X71643571Y-118870000D02*
X73143571Y-118870000D01*
X71715000Y-118870000D02*
X71643571Y-118727143D01*
X71643571Y-118441429D01*
X71715000Y-118298572D01*
X71786429Y-118227143D01*
X71929286Y-118155714D01*
X72357857Y-118155714D01*
X72500714Y-118227143D01*
X72572143Y-118298572D01*
X72643571Y-118441429D01*
X72643571Y-118727143D01*
X72572143Y-118870000D01*
X72643571Y-117512857D02*
X71643571Y-117512857D01*
X71143571Y-117512857D02*
X71215000Y-117584286D01*
X71286429Y-117512857D01*
X71215000Y-117441429D01*
X71143571Y-117512857D01*
X71286429Y-117512857D01*
X71643571Y-116798571D02*
X72643571Y-116798571D01*
X71786429Y-116798571D02*
X71715000Y-116727143D01*
X71643571Y-116584285D01*
X71643571Y-116370000D01*
X71715000Y-116227143D01*
X71857857Y-116155714D01*
X72643571Y-116155714D01*
X72643571Y-114298571D02*
X71143571Y-114298571D01*
X72643571Y-113655714D02*
X71857857Y-113655714D01*
X71715000Y-113727143D01*
X71643571Y-113870000D01*
X71643571Y-114084285D01*
X71715000Y-114227143D01*
X71786429Y-114298571D01*
X72572143Y-112370000D02*
X72643571Y-112512857D01*
X72643571Y-112798571D01*
X72572143Y-112941428D01*
X72429286Y-113012857D01*
X71857857Y-113012857D01*
X71715000Y-112941428D01*
X71643571Y-112798571D01*
X71643571Y-112512857D01*
X71715000Y-112370000D01*
X71857857Y-112298571D01*
X72000714Y-112298571D01*
X72143571Y-113012857D01*
X72643571Y-111012857D02*
X71857857Y-111012857D01*
X71715000Y-111084286D01*
X71643571Y-111227143D01*
X71643571Y-111512857D01*
X71715000Y-111655714D01*
X72572143Y-111012857D02*
X72643571Y-111155714D01*
X72643571Y-111512857D01*
X72572143Y-111655714D01*
X72429286Y-111727143D01*
X72286429Y-111727143D01*
X72143571Y-111655714D01*
X72072143Y-111512857D01*
X72072143Y-111155714D01*
X72000714Y-111012857D01*
X72643571Y-109655714D02*
X71143571Y-109655714D01*
X72572143Y-109655714D02*
X72643571Y-109798571D01*
X72643571Y-110084285D01*
X72572143Y-110227143D01*
X72500714Y-110298571D01*
X72357857Y-110370000D01*
X71929286Y-110370000D01*
X71786429Y-110298571D01*
X71715000Y-110227143D01*
X71643571Y-110084285D01*
X71643571Y-109798571D01*
X71715000Y-109655714D01*
X72572143Y-108370000D02*
X72643571Y-108512857D01*
X72643571Y-108798571D01*
X72572143Y-108941428D01*
X72429286Y-109012857D01*
X71857857Y-109012857D01*
X71715000Y-108941428D01*
X71643571Y-108798571D01*
X71643571Y-108512857D01*
X71715000Y-108370000D01*
X71857857Y-108298571D01*
X72000714Y-108298571D01*
X72143571Y-109012857D01*
X72643571Y-107655714D02*
X71643571Y-107655714D01*
X71929286Y-107655714D02*
X71786429Y-107584286D01*
X71715000Y-107512857D01*
X71643571Y-107370000D01*
X71643571Y-107227143D01*
X71643571Y-105798572D02*
X71643571Y-105227143D01*
X72643571Y-105584286D02*
X71357857Y-105584286D01*
X71215000Y-105512858D01*
X71143571Y-105370000D01*
X71143571Y-105227143D01*
X72643571Y-104512857D02*
X72572143Y-104655715D01*
X72500714Y-104727143D01*
X72357857Y-104798572D01*
X71929286Y-104798572D01*
X71786429Y-104727143D01*
X71715000Y-104655715D01*
X71643571Y-104512857D01*
X71643571Y-104298572D01*
X71715000Y-104155715D01*
X71786429Y-104084286D01*
X71929286Y-104012857D01*
X72357857Y-104012857D01*
X72500714Y-104084286D01*
X72572143Y-104155715D01*
X72643571Y-104298572D01*
X72643571Y-104512857D01*
X72643571Y-103370000D02*
X71643571Y-103370000D01*
X71929286Y-103370000D02*
X71786429Y-103298572D01*
X71715000Y-103227143D01*
X71643571Y-103084286D01*
X71643571Y-102941429D01*
X72572143Y-101370001D02*
X72643571Y-101227144D01*
X72643571Y-100941429D01*
X72572143Y-100798572D01*
X72429286Y-100727144D01*
X72357857Y-100727144D01*
X72215000Y-100798572D01*
X72143571Y-100941429D01*
X72143571Y-101155715D01*
X72072143Y-101298572D01*
X71929286Y-101370001D01*
X71857857Y-101370001D01*
X71715000Y-101298572D01*
X71643571Y-101155715D01*
X71643571Y-100941429D01*
X71715000Y-100798572D01*
X72643571Y-100084286D02*
X71643571Y-100084286D01*
X71143571Y-100084286D02*
X71215000Y-100155715D01*
X71286429Y-100084286D01*
X71215000Y-100012858D01*
X71143571Y-100084286D01*
X71286429Y-100084286D01*
X71643571Y-99370000D02*
X72643571Y-99370000D01*
X71786429Y-99370000D02*
X71715000Y-99298572D01*
X71643571Y-99155714D01*
X71643571Y-98941429D01*
X71715000Y-98798572D01*
X71857857Y-98727143D01*
X72643571Y-98727143D01*
X71643571Y-97370000D02*
X72857857Y-97370000D01*
X73000714Y-97441429D01*
X73072143Y-97512857D01*
X73143571Y-97655714D01*
X73143571Y-97870000D01*
X73072143Y-98012857D01*
X72572143Y-97370000D02*
X72643571Y-97512857D01*
X72643571Y-97798571D01*
X72572143Y-97941429D01*
X72500714Y-98012857D01*
X72357857Y-98084286D01*
X71929286Y-98084286D01*
X71786429Y-98012857D01*
X71715000Y-97941429D01*
X71643571Y-97798571D01*
X71643571Y-97512857D01*
X71715000Y-97370000D01*
X72643571Y-96441428D02*
X72572143Y-96584286D01*
X72429286Y-96655714D01*
X71143571Y-96655714D01*
X72572143Y-95298572D02*
X72643571Y-95441429D01*
X72643571Y-95727143D01*
X72572143Y-95870000D01*
X72429286Y-95941429D01*
X71857857Y-95941429D01*
X71715000Y-95870000D01*
X71643571Y-95727143D01*
X71643571Y-95441429D01*
X71715000Y-95298572D01*
X71857857Y-95227143D01*
X72000714Y-95227143D01*
X72143571Y-95941429D01*
X72572143Y-93512858D02*
X72643571Y-93370001D01*
X72643571Y-93084286D01*
X72572143Y-92941429D01*
X72429286Y-92870001D01*
X72357857Y-92870001D01*
X72215000Y-92941429D01*
X72143571Y-93084286D01*
X72143571Y-93298572D01*
X72072143Y-93441429D01*
X71929286Y-93512858D01*
X71857857Y-93512858D01*
X71715000Y-93441429D01*
X71643571Y-93298572D01*
X71643571Y-93084286D01*
X71715000Y-92941429D01*
X71643571Y-92441429D02*
X71643571Y-91870000D01*
X71143571Y-92227143D02*
X72429286Y-92227143D01*
X72572143Y-92155715D01*
X72643571Y-92012857D01*
X72643571Y-91870000D01*
X72572143Y-90798572D02*
X72643571Y-90941429D01*
X72643571Y-91227143D01*
X72572143Y-91370000D01*
X72429286Y-91441429D01*
X71857857Y-91441429D01*
X71715000Y-91370000D01*
X71643571Y-91227143D01*
X71643571Y-90941429D01*
X71715000Y-90798572D01*
X71857857Y-90727143D01*
X72000714Y-90727143D01*
X72143571Y-91441429D01*
X71643571Y-90084286D02*
X73143571Y-90084286D01*
X71715000Y-90084286D02*
X71643571Y-89941429D01*
X71643571Y-89655715D01*
X71715000Y-89512858D01*
X71786429Y-89441429D01*
X71929286Y-89370000D01*
X72357857Y-89370000D01*
X72500714Y-89441429D01*
X72572143Y-89512858D01*
X72643571Y-89655715D01*
X72643571Y-89941429D01*
X72572143Y-90084286D01*
X71643571Y-88727143D02*
X73143571Y-88727143D01*
X71715000Y-88727143D02*
X71643571Y-88584286D01*
X71643571Y-88298572D01*
X71715000Y-88155715D01*
X71786429Y-88084286D01*
X71929286Y-88012857D01*
X72357857Y-88012857D01*
X72500714Y-88084286D01*
X72572143Y-88155715D01*
X72643571Y-88298572D01*
X72643571Y-88584286D01*
X72572143Y-88727143D01*
X72643571Y-87370000D02*
X71643571Y-87370000D01*
X71143571Y-87370000D02*
X71215000Y-87441429D01*
X71286429Y-87370000D01*
X71215000Y-87298572D01*
X71143571Y-87370000D01*
X71286429Y-87370000D01*
X71643571Y-86655714D02*
X72643571Y-86655714D01*
X71786429Y-86655714D02*
X71715000Y-86584286D01*
X71643571Y-86441428D01*
X71643571Y-86227143D01*
X71715000Y-86084286D01*
X71857857Y-86012857D01*
X72643571Y-86012857D01*
X71643571Y-84655714D02*
X72857857Y-84655714D01*
X73000714Y-84727143D01*
X73072143Y-84798571D01*
X73143571Y-84941428D01*
X73143571Y-85155714D01*
X73072143Y-85298571D01*
X72572143Y-84655714D02*
X72643571Y-84798571D01*
X72643571Y-85084285D01*
X72572143Y-85227143D01*
X72500714Y-85298571D01*
X72357857Y-85370000D01*
X71929286Y-85370000D01*
X71786429Y-85298571D01*
X71715000Y-85227143D01*
X71643571Y-85084285D01*
X71643571Y-84798571D01*
X71715000Y-84655714D01*
X75193571Y-120798573D02*
X73693571Y-120798573D01*
X74407857Y-120798573D02*
X74407857Y-119941430D01*
X75193571Y-119941430D02*
X73693571Y-119941430D01*
X75193571Y-118584287D02*
X74407857Y-118584287D01*
X74265000Y-118655716D01*
X74193571Y-118798573D01*
X74193571Y-119084287D01*
X74265000Y-119227144D01*
X75122143Y-118584287D02*
X75193571Y-118727144D01*
X75193571Y-119084287D01*
X75122143Y-119227144D01*
X74979286Y-119298573D01*
X74836429Y-119298573D01*
X74693571Y-119227144D01*
X74622143Y-119084287D01*
X74622143Y-118727144D01*
X74550714Y-118584287D01*
X74193571Y-117870001D02*
X75193571Y-117870001D01*
X74336429Y-117870001D02*
X74265000Y-117798573D01*
X74193571Y-117655715D01*
X74193571Y-117441430D01*
X74265000Y-117298573D01*
X74407857Y-117227144D01*
X75193571Y-117227144D01*
X75122143Y-116584287D02*
X75193571Y-116441430D01*
X75193571Y-116155715D01*
X75122143Y-116012858D01*
X74979286Y-115941430D01*
X74907857Y-115941430D01*
X74765000Y-116012858D01*
X74693571Y-116155715D01*
X74693571Y-116370001D01*
X74622143Y-116512858D01*
X74479286Y-116584287D01*
X74407857Y-116584287D01*
X74265000Y-116512858D01*
X74193571Y-116370001D01*
X74193571Y-116155715D01*
X74265000Y-116012858D01*
X75193571Y-113441429D02*
X75193571Y-114155715D01*
X73693571Y-114155715D01*
X75193571Y-112941429D02*
X74193571Y-112941429D01*
X73693571Y-112941429D02*
X73765000Y-113012858D01*
X73836429Y-112941429D01*
X73765000Y-112870001D01*
X73693571Y-112941429D01*
X73836429Y-112941429D01*
X75122143Y-112298572D02*
X75193571Y-112155715D01*
X75193571Y-111870000D01*
X75122143Y-111727143D01*
X74979286Y-111655715D01*
X74907857Y-111655715D01*
X74765000Y-111727143D01*
X74693571Y-111870000D01*
X74693571Y-112084286D01*
X74622143Y-112227143D01*
X74479286Y-112298572D01*
X74407857Y-112298572D01*
X74265000Y-112227143D01*
X74193571Y-112084286D01*
X74193571Y-111870000D01*
X74265000Y-111727143D01*
X75122143Y-111084286D02*
X75193571Y-110941429D01*
X75193571Y-110655714D01*
X75122143Y-110512857D01*
X74979286Y-110441429D01*
X74907857Y-110441429D01*
X74765000Y-110512857D01*
X74693571Y-110655714D01*
X74693571Y-110870000D01*
X74622143Y-111012857D01*
X74479286Y-111084286D01*
X74407857Y-111084286D01*
X74265000Y-111012857D01*
X74193571Y-110870000D01*
X74193571Y-110655714D01*
X74265000Y-110512857D01*
X74622143Y-108655714D02*
X74622143Y-107512857D01*
X75193571Y-105655714D02*
X73693571Y-105655714D01*
X74407857Y-105655714D02*
X74407857Y-104798571D01*
X75193571Y-104798571D02*
X73693571Y-104798571D01*
X75193571Y-103441428D02*
X74407857Y-103441428D01*
X74265000Y-103512857D01*
X74193571Y-103655714D01*
X74193571Y-103941428D01*
X74265000Y-104084285D01*
X75122143Y-103441428D02*
X75193571Y-103584285D01*
X75193571Y-103941428D01*
X75122143Y-104084285D01*
X74979286Y-104155714D01*
X74836429Y-104155714D01*
X74693571Y-104084285D01*
X74622143Y-103941428D01*
X74622143Y-103584285D01*
X74550714Y-103441428D01*
X74193571Y-102727142D02*
X75193571Y-102727142D01*
X74336429Y-102727142D02*
X74265000Y-102655714D01*
X74193571Y-102512856D01*
X74193571Y-102298571D01*
X74265000Y-102155714D01*
X74407857Y-102084285D01*
X75193571Y-102084285D01*
X75122143Y-101441428D02*
X75193571Y-101298571D01*
X75193571Y-101012856D01*
X75122143Y-100869999D01*
X74979286Y-100798571D01*
X74907857Y-100798571D01*
X74765000Y-100869999D01*
X74693571Y-101012856D01*
X74693571Y-101227142D01*
X74622143Y-101369999D01*
X74479286Y-101441428D01*
X74407857Y-101441428D01*
X74265000Y-101369999D01*
X74193571Y-101227142D01*
X74193571Y-101012856D01*
X74265000Y-100869999D01*
X74479286Y-99227142D02*
X74407857Y-99298570D01*
X74336429Y-99441427D01*
X74336429Y-99584285D01*
X74407857Y-99727142D01*
X74479286Y-99798570D01*
X74622143Y-99869999D01*
X74765000Y-99869999D01*
X74907857Y-99798570D01*
X74979286Y-99727142D01*
X75050714Y-99584285D01*
X75050714Y-99441427D01*
X74979286Y-99298570D01*
X74907857Y-99227142D01*
X74336429Y-99227142D02*
X74907857Y-99227142D01*
X74979286Y-99155713D01*
X74979286Y-99084285D01*
X74907857Y-98941427D01*
X74765000Y-98869999D01*
X74407857Y-98869999D01*
X74193571Y-99012856D01*
X74050714Y-99227142D01*
X73979286Y-99512856D01*
X74050714Y-99798570D01*
X74193571Y-100012856D01*
X74407857Y-100155713D01*
X74693571Y-100227142D01*
X74979286Y-100155713D01*
X75193571Y-100012856D01*
X75336429Y-99798570D01*
X75407857Y-99512856D01*
X75336429Y-99227142D01*
X75193571Y-99012856D01*
X75193571Y-97512856D02*
X75193571Y-98227142D01*
X73693571Y-98227142D01*
X75193571Y-97012856D02*
X74193571Y-97012856D01*
X73693571Y-97012856D02*
X73765000Y-97084285D01*
X73836429Y-97012856D01*
X73765000Y-96941428D01*
X73693571Y-97012856D01*
X73836429Y-97012856D01*
X75122143Y-96369999D02*
X75193571Y-96227142D01*
X75193571Y-95941427D01*
X75122143Y-95798570D01*
X74979286Y-95727142D01*
X74907857Y-95727142D01*
X74765000Y-95798570D01*
X74693571Y-95941427D01*
X74693571Y-96155713D01*
X74622143Y-96298570D01*
X74479286Y-96369999D01*
X74407857Y-96369999D01*
X74265000Y-96298570D01*
X74193571Y-96155713D01*
X74193571Y-95941427D01*
X74265000Y-95798570D01*
X75122143Y-95155713D02*
X75193571Y-95012856D01*
X75193571Y-94727141D01*
X75122143Y-94584284D01*
X74979286Y-94512856D01*
X74907857Y-94512856D01*
X74765000Y-94584284D01*
X74693571Y-94727141D01*
X74693571Y-94941427D01*
X74622143Y-95084284D01*
X74479286Y-95155713D01*
X74407857Y-95155713D01*
X74265000Y-95084284D01*
X74193571Y-94941427D01*
X74193571Y-94727141D01*
X74265000Y-94584284D01*
X75050714Y-93869998D02*
X75122143Y-93798570D01*
X75193571Y-93869998D01*
X75122143Y-93941427D01*
X75050714Y-93869998D01*
X75193571Y-93869998D01*
X74193571Y-93155712D02*
X75693571Y-93155712D01*
X74265000Y-93155712D02*
X74193571Y-93012855D01*
X74193571Y-92727141D01*
X74265000Y-92584284D01*
X74336429Y-92512855D01*
X74479286Y-92441426D01*
X74907857Y-92441426D01*
X75050714Y-92512855D01*
X75122143Y-92584284D01*
X75193571Y-92727141D01*
X75193571Y-93012855D01*
X75122143Y-93155712D01*
X74193571Y-91798569D02*
X75693571Y-91798569D01*
X74265000Y-91798569D02*
X74193571Y-91655712D01*
X74193571Y-91369998D01*
X74265000Y-91227141D01*
X74336429Y-91155712D01*
X74479286Y-91084283D01*
X74907857Y-91084283D01*
X75050714Y-91155712D01*
X75122143Y-91227141D01*
X75193571Y-91369998D01*
X75193571Y-91655712D01*
X75122143Y-91798569D01*
X75050714Y-90441426D02*
X75122143Y-90369998D01*
X75193571Y-90441426D01*
X75122143Y-90512855D01*
X75050714Y-90441426D01*
X75193571Y-90441426D01*
X75122143Y-89798569D02*
X75193571Y-89655712D01*
X75193571Y-89369997D01*
X75122143Y-89227140D01*
X74979286Y-89155712D01*
X74907857Y-89155712D01*
X74765000Y-89227140D01*
X74693571Y-89369997D01*
X74693571Y-89584283D01*
X74622143Y-89727140D01*
X74479286Y-89798569D01*
X74407857Y-89798569D01*
X74265000Y-89727140D01*
X74193571Y-89584283D01*
X74193571Y-89369997D01*
X74265000Y-89227140D01*
X75122143Y-87941426D02*
X75193571Y-88084283D01*
X75193571Y-88369997D01*
X75122143Y-88512854D01*
X74979286Y-88584283D01*
X74407857Y-88584283D01*
X74265000Y-88512854D01*
X74193571Y-88369997D01*
X74193571Y-88084283D01*
X74265000Y-87941426D01*
X74407857Y-87869997D01*
X74550714Y-87869997D01*
X74693571Y-88584283D01*
D12*
X53344286Y-135132381D02*
X52868095Y-135132381D01*
X52868095Y-134132381D01*
X53677619Y-134608571D02*
X54010953Y-134608571D01*
X54153810Y-135132381D02*
X53677619Y-135132381D01*
X53677619Y-134132381D01*
X54153810Y-134132381D01*
X54582381Y-135132381D02*
X54582381Y-134132381D01*
X54820476Y-134132381D01*
X54963334Y-134180000D01*
X55058572Y-134275238D01*
X55106191Y-134370476D01*
X55153810Y-134560952D01*
X55153810Y-134703810D01*
X55106191Y-134894286D01*
X55058572Y-134989524D01*
X54963334Y-135084762D01*
X54820476Y-135132381D01*
X54582381Y-135132381D01*
X56630001Y-135513333D02*
X56582381Y-135465714D01*
X56487143Y-135322857D01*
X56439524Y-135227619D01*
X56391905Y-135084762D01*
X56344286Y-134846667D01*
X56344286Y-134656190D01*
X56391905Y-134418095D01*
X56439524Y-134275238D01*
X56487143Y-134180000D01*
X56582381Y-134037143D01*
X56630001Y-133989524D01*
X56963334Y-134846667D02*
X57439525Y-134846667D01*
X56868096Y-135132381D02*
X57201429Y-134132381D01*
X57534763Y-135132381D01*
X58391906Y-135132381D02*
X57820477Y-135132381D01*
X58106191Y-135132381D02*
X58106191Y-134132381D01*
X58010953Y-134275238D01*
X57915715Y-134370476D01*
X57820477Y-134418095D01*
X59296668Y-134132381D02*
X58820477Y-134132381D01*
X58772858Y-134608571D01*
X58820477Y-134560952D01*
X58915715Y-134513333D01*
X59153811Y-134513333D01*
X59249049Y-134560952D01*
X59296668Y-134608571D01*
X59344287Y-134703810D01*
X59344287Y-134941905D01*
X59296668Y-135037143D01*
X59249049Y-135084762D01*
X59153811Y-135132381D01*
X58915715Y-135132381D01*
X58820477Y-135084762D01*
X58772858Y-135037143D01*
X59772858Y-134751429D02*
X60534763Y-134751429D01*
X60963334Y-134846667D02*
X61439525Y-134846667D01*
X60868096Y-135132381D02*
X61201429Y-134132381D01*
X61534763Y-135132381D01*
X62058572Y-134132381D02*
X62153811Y-134132381D01*
X62249049Y-134180000D01*
X62296668Y-134227619D01*
X62344287Y-134322857D01*
X62391906Y-134513333D01*
X62391906Y-134751429D01*
X62344287Y-134941905D01*
X62296668Y-135037143D01*
X62249049Y-135084762D01*
X62153811Y-135132381D01*
X62058572Y-135132381D01*
X61963334Y-135084762D01*
X61915715Y-135037143D01*
X61868096Y-134941905D01*
X61820477Y-134751429D01*
X61820477Y-134513333D01*
X61868096Y-134322857D01*
X61915715Y-134227619D01*
X61963334Y-134180000D01*
X62058572Y-134132381D01*
X62868096Y-135084762D02*
X62868096Y-135132381D01*
X62820477Y-135227619D01*
X62772858Y-135275238D01*
X64058572Y-135132381D02*
X64058572Y-134132381D01*
X64296667Y-134132381D01*
X64439525Y-134180000D01*
X64534763Y-134275238D01*
X64582382Y-134370476D01*
X64630001Y-134560952D01*
X64630001Y-134703810D01*
X64582382Y-134894286D01*
X64534763Y-134989524D01*
X64439525Y-135084762D01*
X64296667Y-135132381D01*
X64058572Y-135132381D01*
X64963334Y-134132381D02*
X65630001Y-134132381D01*
X65201429Y-135132381D01*
X66010953Y-134751429D02*
X66772858Y-134751429D01*
X67249048Y-135132381D02*
X67249048Y-134132381D01*
X67487143Y-134132381D01*
X67630001Y-134180000D01*
X67725239Y-134275238D01*
X67772858Y-134370476D01*
X67820477Y-134560952D01*
X67820477Y-134703810D01*
X67772858Y-134894286D01*
X67725239Y-134989524D01*
X67630001Y-135084762D01*
X67487143Y-135132381D01*
X67249048Y-135132381D01*
X68439524Y-134132381D02*
X68534763Y-134132381D01*
X68630001Y-134180000D01*
X68677620Y-134227619D01*
X68725239Y-134322857D01*
X68772858Y-134513333D01*
X68772858Y-134751429D01*
X68725239Y-134941905D01*
X68677620Y-135037143D01*
X68630001Y-135084762D01*
X68534763Y-135132381D01*
X68439524Y-135132381D01*
X68344286Y-135084762D01*
X68296667Y-135037143D01*
X68249048Y-134941905D01*
X68201429Y-134751429D01*
X68201429Y-134513333D01*
X68249048Y-134322857D01*
X68296667Y-134227619D01*
X68344286Y-134180000D01*
X68439524Y-134132381D01*
X69106191Y-135513333D02*
X69153810Y-135465714D01*
X69249048Y-135322857D01*
X69296667Y-135227619D01*
X69344286Y-135084762D01*
X69391905Y-134846667D01*
X69391905Y-134656190D01*
X69344286Y-134418095D01*
X69296667Y-134275238D01*
X69249048Y-134180000D01*
X69153810Y-134037143D01*
X69106191Y-133989524D01*
X47736667Y-132972381D02*
X48070000Y-133972381D01*
X48403334Y-132972381D01*
X49308096Y-133877143D02*
X49260477Y-133924762D01*
X49117620Y-133972381D01*
X49022382Y-133972381D01*
X48879524Y-133924762D01*
X48784286Y-133829524D01*
X48736667Y-133734286D01*
X48689048Y-133543810D01*
X48689048Y-133400952D01*
X48736667Y-133210476D01*
X48784286Y-133115238D01*
X48879524Y-133020000D01*
X49022382Y-132972381D01*
X49117620Y-132972381D01*
X49260477Y-133020000D01*
X49308096Y-133067619D01*
X50308096Y-133877143D02*
X50260477Y-133924762D01*
X50117620Y-133972381D01*
X50022382Y-133972381D01*
X49879524Y-133924762D01*
X49784286Y-133829524D01*
X49736667Y-133734286D01*
X49689048Y-133543810D01*
X49689048Y-133400952D01*
X49736667Y-133210476D01*
X49784286Y-133115238D01*
X49879524Y-133020000D01*
X50022382Y-132972381D01*
X50117620Y-132972381D01*
X50260477Y-133020000D01*
X50308096Y-133067619D01*
D10*
X57483333Y-129727619D02*
X57483333Y-129346667D01*
X57711905Y-129803810D02*
X56911905Y-129537143D01*
X57711905Y-129270476D01*
X57635714Y-128546667D02*
X57673810Y-128584762D01*
X57711905Y-128699048D01*
X57711905Y-128775238D01*
X57673810Y-128889524D01*
X57597619Y-128965715D01*
X57521429Y-129003810D01*
X57369048Y-129041905D01*
X57254762Y-129041905D01*
X57102381Y-129003810D01*
X57026190Y-128965715D01*
X56950000Y-128889524D01*
X56911905Y-128775238D01*
X56911905Y-128699048D01*
X56950000Y-128584762D01*
X56988095Y-128546667D01*
X57711905Y-128203810D02*
X56911905Y-128203810D01*
X57292857Y-128203810D02*
X57292857Y-127746667D01*
X57711905Y-127746667D02*
X56911905Y-127746667D01*
X56911905Y-127480001D02*
X56911905Y-127022858D01*
X57711905Y-127251429D02*
X56911905Y-127251429D01*
X56911905Y-126756191D02*
X57559524Y-126756191D01*
X57635714Y-126718096D01*
X57673810Y-126680000D01*
X57711905Y-126603810D01*
X57711905Y-126451429D01*
X57673810Y-126375238D01*
X57635714Y-126337143D01*
X57559524Y-126299048D01*
X56911905Y-126299048D01*
X57711905Y-125918096D02*
X56911905Y-125918096D01*
X57711905Y-125460953D01*
X56911905Y-125460953D01*
X56950000Y-124660953D02*
X56911905Y-124737144D01*
X56911905Y-124851429D01*
X56950000Y-124965715D01*
X57026190Y-125041906D01*
X57102381Y-125080001D01*
X57254762Y-125118096D01*
X57369048Y-125118096D01*
X57521429Y-125080001D01*
X57597619Y-125041906D01*
X57673810Y-124965715D01*
X57711905Y-124851429D01*
X57711905Y-124775239D01*
X57673810Y-124660953D01*
X57635714Y-124622858D01*
X57369048Y-124622858D01*
X57369048Y-124775239D01*
X57635714Y-124280001D02*
X57673810Y-124241906D01*
X57711905Y-124280001D01*
X57673810Y-124318096D01*
X57635714Y-124280001D01*
X57711905Y-124280001D01*
X57407143Y-124280001D02*
X56950000Y-124318096D01*
X56911905Y-124280001D01*
X56950000Y-124241906D01*
X57407143Y-124280001D01*
X56911905Y-124280001D01*
X57483333Y-123327620D02*
X57483333Y-122946668D01*
X57711905Y-123403811D02*
X56911905Y-123137144D01*
X57711905Y-122870477D01*
X57711905Y-122222858D02*
X57711905Y-122603811D01*
X56911905Y-122603811D01*
X57711905Y-121575239D02*
X57711905Y-121956192D01*
X56911905Y-121956192D01*
X57292857Y-121308573D02*
X57292857Y-121041906D01*
X57711905Y-120927620D02*
X57711905Y-121308573D01*
X56911905Y-121308573D01*
X56911905Y-120927620D01*
X57673810Y-120622858D02*
X57711905Y-120508572D01*
X57711905Y-120318096D01*
X57673810Y-120241906D01*
X57635714Y-120203810D01*
X57559524Y-120165715D01*
X57483333Y-120165715D01*
X57407143Y-120203810D01*
X57369048Y-120241906D01*
X57330952Y-120318096D01*
X57292857Y-120470477D01*
X57254762Y-120546668D01*
X57216667Y-120584763D01*
X57140476Y-120622858D01*
X57064286Y-120622858D01*
X56988095Y-120584763D01*
X56950000Y-120546668D01*
X56911905Y-120470477D01*
X56911905Y-120280001D01*
X56950000Y-120165715D01*
X56911905Y-119327620D02*
X56911905Y-118870477D01*
X57711905Y-119099048D02*
X56911905Y-119099048D01*
X56911905Y-118451429D02*
X56911905Y-118299048D01*
X56950000Y-118222857D01*
X57026190Y-118146667D01*
X57178571Y-118108572D01*
X57445238Y-118108572D01*
X57597619Y-118146667D01*
X57673810Y-118222857D01*
X57711905Y-118299048D01*
X57711905Y-118451429D01*
X57673810Y-118527619D01*
X57597619Y-118603810D01*
X57445238Y-118641905D01*
X57178571Y-118641905D01*
X57026190Y-118603810D01*
X56950000Y-118527619D01*
X56911905Y-118451429D01*
X56911905Y-117765715D02*
X57559524Y-117765715D01*
X57635714Y-117727620D01*
X57673810Y-117689524D01*
X57711905Y-117613334D01*
X57711905Y-117460953D01*
X57673810Y-117384762D01*
X57635714Y-117346667D01*
X57559524Y-117308572D01*
X56911905Y-117308572D01*
X57711905Y-116470477D02*
X57330952Y-116737144D01*
X57711905Y-116927620D02*
X56911905Y-116927620D01*
X56911905Y-116622858D01*
X56950000Y-116546667D01*
X56988095Y-116508572D01*
X57064286Y-116470477D01*
X57178571Y-116470477D01*
X57254762Y-116508572D01*
X57292857Y-116546667D01*
X57330952Y-116622858D01*
X57330952Y-116927620D01*
X57711905Y-116127620D02*
X56911905Y-116127620D01*
X57673810Y-115784763D02*
X57711905Y-115670477D01*
X57711905Y-115480001D01*
X57673810Y-115403811D01*
X57635714Y-115365715D01*
X57559524Y-115327620D01*
X57483333Y-115327620D01*
X57407143Y-115365715D01*
X57369048Y-115403811D01*
X57330952Y-115480001D01*
X57292857Y-115632382D01*
X57254762Y-115708573D01*
X57216667Y-115746668D01*
X57140476Y-115784763D01*
X57064286Y-115784763D01*
X56988095Y-115746668D01*
X56950000Y-115708573D01*
X56911905Y-115632382D01*
X56911905Y-115441906D01*
X56950000Y-115327620D01*
X56911905Y-115099049D02*
X56911905Y-114641906D01*
X57711905Y-114870477D02*
X56911905Y-114870477D01*
X57292857Y-114375239D02*
X57292857Y-114108572D01*
X57711905Y-113994286D02*
X57711905Y-114375239D01*
X56911905Y-114375239D01*
X56911905Y-113994286D01*
X57711905Y-113651429D02*
X56911905Y-113651429D01*
X57711905Y-113194286D01*
X56911905Y-113194286D01*
X56911905Y-112203810D02*
X57559524Y-112203810D01*
X57635714Y-112165715D01*
X57673810Y-112127619D01*
X57711905Y-112051429D01*
X57711905Y-111899048D01*
X57673810Y-111822857D01*
X57635714Y-111784762D01*
X57559524Y-111746667D01*
X56911905Y-111746667D01*
X57711905Y-111365715D02*
X56911905Y-111365715D01*
X57711905Y-110908572D01*
X56911905Y-110908572D01*
X57711905Y-110527620D02*
X56911905Y-110527620D01*
X56911905Y-110337144D01*
X56950000Y-110222858D01*
X57026190Y-110146667D01*
X57102381Y-110108572D01*
X57254762Y-110070477D01*
X57369048Y-110070477D01*
X57521429Y-110108572D01*
X57597619Y-110146667D01*
X57673810Y-110222858D01*
X57711905Y-110337144D01*
X57711905Y-110527620D01*
X57711905Y-109118096D02*
X56911905Y-109118096D01*
X57711905Y-108660953D01*
X56911905Y-108660953D01*
X56911905Y-108127620D02*
X56911905Y-107975239D01*
X56950000Y-107899048D01*
X57026190Y-107822858D01*
X57178571Y-107784763D01*
X57445238Y-107784763D01*
X57597619Y-107822858D01*
X57673810Y-107899048D01*
X57711905Y-107975239D01*
X57711905Y-108127620D01*
X57673810Y-108203810D01*
X57597619Y-108280001D01*
X57445238Y-108318096D01*
X57178571Y-108318096D01*
X57026190Y-108280001D01*
X56950000Y-108203810D01*
X56911905Y-108127620D01*
X57711905Y-107441906D02*
X56911905Y-107441906D01*
X57711905Y-106984763D01*
X56911905Y-106984763D01*
X57407143Y-106603811D02*
X57407143Y-105994287D01*
X56911905Y-105727621D02*
X56911905Y-105270478D01*
X57711905Y-105499049D02*
X56911905Y-105499049D01*
X57292857Y-105003811D02*
X57292857Y-104737144D01*
X57711905Y-104622858D02*
X57711905Y-105003811D01*
X56911905Y-105003811D01*
X56911905Y-104622858D01*
X57635714Y-103822858D02*
X57673810Y-103860953D01*
X57711905Y-103975239D01*
X57711905Y-104051429D01*
X57673810Y-104165715D01*
X57597619Y-104241906D01*
X57521429Y-104280001D01*
X57369048Y-104318096D01*
X57254762Y-104318096D01*
X57102381Y-104280001D01*
X57026190Y-104241906D01*
X56950000Y-104165715D01*
X56911905Y-104051429D01*
X56911905Y-103975239D01*
X56950000Y-103860953D01*
X56988095Y-103822858D01*
X57711905Y-103480001D02*
X56911905Y-103480001D01*
X57292857Y-103480001D02*
X57292857Y-103022858D01*
X57711905Y-103022858D02*
X56911905Y-103022858D01*
X57711905Y-102641906D02*
X56911905Y-102641906D01*
X57711905Y-102184763D01*
X56911905Y-102184763D01*
X57711905Y-101803811D02*
X56911905Y-101803811D01*
X57673810Y-101460954D02*
X57711905Y-101346668D01*
X57711905Y-101156192D01*
X57673810Y-101080002D01*
X57635714Y-101041906D01*
X57559524Y-101003811D01*
X57483333Y-101003811D01*
X57407143Y-101041906D01*
X57369048Y-101080002D01*
X57330952Y-101156192D01*
X57292857Y-101308573D01*
X57254762Y-101384764D01*
X57216667Y-101422859D01*
X57140476Y-101460954D01*
X57064286Y-101460954D01*
X56988095Y-101422859D01*
X56950000Y-101384764D01*
X56911905Y-101308573D01*
X56911905Y-101118097D01*
X56950000Y-101003811D01*
X57635714Y-100203811D02*
X57673810Y-100241906D01*
X57711905Y-100356192D01*
X57711905Y-100432382D01*
X57673810Y-100546668D01*
X57597619Y-100622859D01*
X57521429Y-100660954D01*
X57369048Y-100699049D01*
X57254762Y-100699049D01*
X57102381Y-100660954D01*
X57026190Y-100622859D01*
X56950000Y-100546668D01*
X56911905Y-100432382D01*
X56911905Y-100356192D01*
X56950000Y-100241906D01*
X56988095Y-100203811D01*
X57711905Y-99860954D02*
X56911905Y-99860954D01*
X57292857Y-99860954D02*
X57292857Y-99403811D01*
X57711905Y-99403811D02*
X56911905Y-99403811D01*
X57292857Y-99022859D02*
X57292857Y-98756192D01*
X57711905Y-98641906D02*
X57711905Y-99022859D01*
X56911905Y-99022859D01*
X56911905Y-98641906D01*
X57711905Y-98299049D02*
X56911905Y-98299049D01*
X57711905Y-97841906D01*
X56911905Y-97841906D01*
X57711905Y-96470477D02*
X57711905Y-96851430D01*
X56911905Y-96851430D01*
X56911905Y-96051430D02*
X56911905Y-95899049D01*
X56950000Y-95822858D01*
X57026190Y-95746668D01*
X57178571Y-95708573D01*
X57445238Y-95708573D01*
X57597619Y-95746668D01*
X57673810Y-95822858D01*
X57711905Y-95899049D01*
X57711905Y-96051430D01*
X57673810Y-96127620D01*
X57597619Y-96203811D01*
X57445238Y-96241906D01*
X57178571Y-96241906D01*
X57026190Y-96203811D01*
X56950000Y-96127620D01*
X56911905Y-96051430D01*
X56911905Y-95213335D02*
X56911905Y-95060954D01*
X56950000Y-94984763D01*
X57026190Y-94908573D01*
X57178571Y-94870478D01*
X57445238Y-94870478D01*
X57597619Y-94908573D01*
X57673810Y-94984763D01*
X57711905Y-95060954D01*
X57711905Y-95213335D01*
X57673810Y-95289525D01*
X57597619Y-95365716D01*
X57445238Y-95403811D01*
X57178571Y-95403811D01*
X57026190Y-95365716D01*
X56950000Y-95289525D01*
X56911905Y-95213335D01*
X57711905Y-94527621D02*
X56911905Y-94527621D01*
X57711905Y-94070478D02*
X57254762Y-94413335D01*
X56911905Y-94070478D02*
X57369048Y-94527621D01*
X57292857Y-93727621D02*
X57292857Y-93460954D01*
X57711905Y-93346668D02*
X57711905Y-93727621D01*
X56911905Y-93727621D01*
X56911905Y-93346668D01*
X57711905Y-93003811D02*
X56911905Y-93003811D01*
X57711905Y-92546668D01*
X56911905Y-92546668D01*
X57711905Y-91556192D02*
X56911905Y-91556192D01*
X56911905Y-91251430D01*
X56950000Y-91175239D01*
X56988095Y-91137144D01*
X57064286Y-91099049D01*
X57178571Y-91099049D01*
X57254762Y-91137144D01*
X57292857Y-91175239D01*
X57330952Y-91251430D01*
X57330952Y-91556192D01*
X57292857Y-90756192D02*
X57292857Y-90489525D01*
X57711905Y-90375239D02*
X57711905Y-90756192D01*
X56911905Y-90756192D01*
X56911905Y-90375239D01*
X57292857Y-90032382D02*
X57292857Y-89765715D01*
X57711905Y-89651429D02*
X57711905Y-90032382D01*
X56911905Y-90032382D01*
X56911905Y-89651429D01*
X57711905Y-89308572D02*
X56911905Y-89308572D01*
X56911905Y-89003810D01*
X56950000Y-88927619D01*
X56988095Y-88889524D01*
X57064286Y-88851429D01*
X57178571Y-88851429D01*
X57254762Y-88889524D01*
X57292857Y-88927619D01*
X57330952Y-89003810D01*
X57330952Y-89308572D01*
X57292857Y-88508572D02*
X57292857Y-88241905D01*
X57711905Y-88127619D02*
X57711905Y-88508572D01*
X56911905Y-88508572D01*
X56911905Y-88127619D01*
X57711905Y-87327619D02*
X57330952Y-87594286D01*
X57711905Y-87784762D02*
X56911905Y-87784762D01*
X56911905Y-87480000D01*
X56950000Y-87403809D01*
X56988095Y-87365714D01*
X57064286Y-87327619D01*
X57178571Y-87327619D01*
X57254762Y-87365714D01*
X57292857Y-87403809D01*
X57330952Y-87480000D01*
X57330952Y-87784762D01*
X57673810Y-87022857D02*
X57711905Y-86908571D01*
X57711905Y-86718095D01*
X57673810Y-86641905D01*
X57635714Y-86603809D01*
X57559524Y-86565714D01*
X57483333Y-86565714D01*
X57407143Y-86603809D01*
X57369048Y-86641905D01*
X57330952Y-86718095D01*
X57292857Y-86870476D01*
X57254762Y-86946667D01*
X57216667Y-86984762D01*
X57140476Y-87022857D01*
X57064286Y-87022857D01*
X56988095Y-86984762D01*
X56950000Y-86946667D01*
X56911905Y-86870476D01*
X56911905Y-86680000D01*
X56950000Y-86565714D01*
X57635714Y-86222857D02*
X57673810Y-86184762D01*
X57711905Y-86222857D01*
X57673810Y-86260952D01*
X57635714Y-86222857D01*
X57711905Y-86222857D01*
X57407143Y-86222857D02*
X56950000Y-86260952D01*
X56911905Y-86222857D01*
X56950000Y-86184762D01*
X57407143Y-86222857D01*
X56911905Y-86222857D01*
X57711905Y-85232381D02*
X56911905Y-85232381D01*
X56911905Y-85041905D01*
X56950000Y-84927619D01*
X57026190Y-84851428D01*
X57102381Y-84813333D01*
X57254762Y-84775238D01*
X57369048Y-84775238D01*
X57521429Y-84813333D01*
X57597619Y-84851428D01*
X57673810Y-84927619D01*
X57711905Y-85041905D01*
X57711905Y-85232381D01*
X57483333Y-84470476D02*
X57483333Y-84089524D01*
X57711905Y-84546667D02*
X56911905Y-84280000D01*
X57711905Y-84013333D01*
X57673810Y-83784762D02*
X57711905Y-83670476D01*
X57711905Y-83480000D01*
X57673810Y-83403810D01*
X57635714Y-83365714D01*
X57559524Y-83327619D01*
X57483333Y-83327619D01*
X57407143Y-83365714D01*
X57369048Y-83403810D01*
X57330952Y-83480000D01*
X57292857Y-83632381D01*
X57254762Y-83708572D01*
X57216667Y-83746667D01*
X57140476Y-83784762D01*
X57064286Y-83784762D01*
X56988095Y-83746667D01*
X56950000Y-83708572D01*
X56911905Y-83632381D01*
X56911905Y-83441905D01*
X56950000Y-83327619D01*
X57711905Y-82375238D02*
X56911905Y-82375238D01*
X57483333Y-82108571D01*
X56911905Y-81841904D01*
X57711905Y-81841904D01*
X57483333Y-81499047D02*
X57483333Y-81118095D01*
X57711905Y-81575238D02*
X56911905Y-81308571D01*
X57711905Y-81041904D01*
X57635714Y-80318095D02*
X57673810Y-80356190D01*
X57711905Y-80470476D01*
X57711905Y-80546666D01*
X57673810Y-80660952D01*
X57597619Y-80737143D01*
X57521429Y-80775238D01*
X57369048Y-80813333D01*
X57254762Y-80813333D01*
X57102381Y-80775238D01*
X57026190Y-80737143D01*
X56950000Y-80660952D01*
X56911905Y-80546666D01*
X56911905Y-80470476D01*
X56950000Y-80356190D01*
X56988095Y-80318095D01*
X57711905Y-79975238D02*
X56911905Y-79975238D01*
X57292857Y-79975238D02*
X57292857Y-79518095D01*
X57711905Y-79518095D02*
X56911905Y-79518095D01*
X57711905Y-79137143D02*
X56911905Y-79137143D01*
X57711905Y-78756191D02*
X56911905Y-78756191D01*
X57711905Y-78299048D01*
X56911905Y-78299048D01*
X57292857Y-77918096D02*
X57292857Y-77651429D01*
X57711905Y-77537143D02*
X57711905Y-77918096D01*
X56911905Y-77918096D01*
X56911905Y-77537143D01*
X58935714Y-129232381D02*
X58973810Y-129270476D01*
X59011905Y-129384762D01*
X59011905Y-129460952D01*
X58973810Y-129575238D01*
X58897619Y-129651429D01*
X58821429Y-129689524D01*
X58669048Y-129727619D01*
X58554762Y-129727619D01*
X58402381Y-129689524D01*
X58326190Y-129651429D01*
X58250000Y-129575238D01*
X58211905Y-129460952D01*
X58211905Y-129384762D01*
X58250000Y-129270476D01*
X58288095Y-129232381D01*
X58211905Y-128737143D02*
X58211905Y-128584762D01*
X58250000Y-128508571D01*
X58326190Y-128432381D01*
X58478571Y-128394286D01*
X58745238Y-128394286D01*
X58897619Y-128432381D01*
X58973810Y-128508571D01*
X59011905Y-128584762D01*
X59011905Y-128737143D01*
X58973810Y-128813333D01*
X58897619Y-128889524D01*
X58745238Y-128927619D01*
X58478571Y-128927619D01*
X58326190Y-128889524D01*
X58250000Y-128813333D01*
X58211905Y-128737143D01*
X59011905Y-128051429D02*
X58211905Y-128051429D01*
X59011905Y-127594286D01*
X58211905Y-127594286D01*
X58211905Y-127327620D02*
X58211905Y-126870477D01*
X59011905Y-127099048D02*
X58211905Y-127099048D01*
X59011905Y-126146667D02*
X58630952Y-126413334D01*
X59011905Y-126603810D02*
X58211905Y-126603810D01*
X58211905Y-126299048D01*
X58250000Y-126222857D01*
X58288095Y-126184762D01*
X58364286Y-126146667D01*
X58478571Y-126146667D01*
X58554762Y-126184762D01*
X58592857Y-126222857D01*
X58630952Y-126299048D01*
X58630952Y-126603810D01*
X58211905Y-125651429D02*
X58211905Y-125499048D01*
X58250000Y-125422857D01*
X58326190Y-125346667D01*
X58478571Y-125308572D01*
X58745238Y-125308572D01*
X58897619Y-125346667D01*
X58973810Y-125422857D01*
X59011905Y-125499048D01*
X59011905Y-125651429D01*
X58973810Y-125727619D01*
X58897619Y-125803810D01*
X58745238Y-125841905D01*
X58478571Y-125841905D01*
X58326190Y-125803810D01*
X58250000Y-125727619D01*
X58211905Y-125651429D01*
X59011905Y-124584762D02*
X59011905Y-124965715D01*
X58211905Y-124965715D01*
X59011905Y-123708572D02*
X58211905Y-123708572D01*
X58973810Y-123365715D02*
X59011905Y-123251429D01*
X59011905Y-123060953D01*
X58973810Y-122984763D01*
X58935714Y-122946667D01*
X58859524Y-122908572D01*
X58783333Y-122908572D01*
X58707143Y-122946667D01*
X58669048Y-122984763D01*
X58630952Y-123060953D01*
X58592857Y-123213334D01*
X58554762Y-123289525D01*
X58516667Y-123327620D01*
X58440476Y-123365715D01*
X58364286Y-123365715D01*
X58288095Y-123327620D01*
X58250000Y-123289525D01*
X58211905Y-123213334D01*
X58211905Y-123022858D01*
X58250000Y-122908572D01*
X59011905Y-121956191D02*
X58211905Y-121956191D01*
X59011905Y-121499048D01*
X58211905Y-121499048D01*
X59011905Y-121118096D02*
X58211905Y-121118096D01*
X58935714Y-120280001D02*
X58973810Y-120318096D01*
X59011905Y-120432382D01*
X59011905Y-120508572D01*
X58973810Y-120622858D01*
X58897619Y-120699049D01*
X58821429Y-120737144D01*
X58669048Y-120775239D01*
X58554762Y-120775239D01*
X58402381Y-120737144D01*
X58326190Y-120699049D01*
X58250000Y-120622858D01*
X58211905Y-120508572D01*
X58211905Y-120432382D01*
X58250000Y-120318096D01*
X58288095Y-120280001D01*
X59011905Y-119937144D02*
X58211905Y-119937144D01*
X58592857Y-119937144D02*
X58592857Y-119480001D01*
X59011905Y-119480001D02*
X58211905Y-119480001D01*
X58211905Y-119213335D02*
X58211905Y-118756192D01*
X59011905Y-118984763D02*
X58211905Y-118984763D01*
X58592857Y-117613334D02*
X58592857Y-117880001D01*
X59011905Y-117880001D02*
X58211905Y-117880001D01*
X58211905Y-117499048D01*
X58211905Y-117194287D02*
X58859524Y-117194287D01*
X58935714Y-117156192D01*
X58973810Y-117118096D01*
X59011905Y-117041906D01*
X59011905Y-116889525D01*
X58973810Y-116813334D01*
X58935714Y-116775239D01*
X58859524Y-116737144D01*
X58211905Y-116737144D01*
X59011905Y-115899049D02*
X58630952Y-116165716D01*
X59011905Y-116356192D02*
X58211905Y-116356192D01*
X58211905Y-116051430D01*
X58250000Y-115975239D01*
X58288095Y-115937144D01*
X58364286Y-115899049D01*
X58478571Y-115899049D01*
X58554762Y-115937144D01*
X58592857Y-115975239D01*
X58630952Y-116051430D01*
X58630952Y-116356192D01*
X58250000Y-114527620D02*
X58211905Y-114603811D01*
X58211905Y-114718096D01*
X58250000Y-114832382D01*
X58326190Y-114908573D01*
X58402381Y-114946668D01*
X58554762Y-114984763D01*
X58669048Y-114984763D01*
X58821429Y-114946668D01*
X58897619Y-114908573D01*
X58973810Y-114832382D01*
X59011905Y-114718096D01*
X59011905Y-114641906D01*
X58973810Y-114527620D01*
X58935714Y-114489525D01*
X58669048Y-114489525D01*
X58669048Y-114641906D01*
X58592857Y-114146668D02*
X58592857Y-113880001D01*
X59011905Y-113765715D02*
X59011905Y-114146668D01*
X58211905Y-114146668D01*
X58211905Y-113765715D01*
X59011905Y-112965715D02*
X58630952Y-113232382D01*
X59011905Y-113422858D02*
X58211905Y-113422858D01*
X58211905Y-113118096D01*
X58250000Y-113041905D01*
X58288095Y-113003810D01*
X58364286Y-112965715D01*
X58478571Y-112965715D01*
X58554762Y-113003810D01*
X58592857Y-113041905D01*
X58630952Y-113118096D01*
X58630952Y-113422858D01*
X58592857Y-112356191D02*
X58592857Y-112622858D01*
X59011905Y-112622858D02*
X58211905Y-112622858D01*
X58211905Y-112241905D01*
X59011905Y-111937144D02*
X58211905Y-111937144D01*
X59011905Y-111556192D02*
X58211905Y-111556192D01*
X59011905Y-111099049D01*
X58211905Y-111099049D01*
X58250000Y-110299049D02*
X58211905Y-110375240D01*
X58211905Y-110489525D01*
X58250000Y-110603811D01*
X58326190Y-110680002D01*
X58402381Y-110718097D01*
X58554762Y-110756192D01*
X58669048Y-110756192D01*
X58821429Y-110718097D01*
X58897619Y-110680002D01*
X58973810Y-110603811D01*
X59011905Y-110489525D01*
X59011905Y-110413335D01*
X58973810Y-110299049D01*
X58935714Y-110260954D01*
X58669048Y-110260954D01*
X58669048Y-110413335D01*
X58592857Y-109918097D02*
X58592857Y-109651430D01*
X59011905Y-109537144D02*
X59011905Y-109918097D01*
X58211905Y-109918097D01*
X58211905Y-109537144D01*
X59011905Y-108737144D02*
X58630952Y-109003811D01*
X59011905Y-109194287D02*
X58211905Y-109194287D01*
X58211905Y-108889525D01*
X58250000Y-108813334D01*
X58288095Y-108775239D01*
X58364286Y-108737144D01*
X58478571Y-108737144D01*
X58554762Y-108775239D01*
X58592857Y-108813334D01*
X58630952Y-108889525D01*
X58630952Y-109194287D01*
X59011905Y-108394287D02*
X58211905Y-108394287D01*
X58211905Y-108089525D01*
X58250000Y-108013334D01*
X58288095Y-107975239D01*
X58364286Y-107937144D01*
X58478571Y-107937144D01*
X58554762Y-107975239D01*
X58592857Y-108013334D01*
X58630952Y-108089525D01*
X58630952Y-108394287D01*
X58211905Y-107441906D02*
X58211905Y-107289525D01*
X58250000Y-107213334D01*
X58326190Y-107137144D01*
X58478571Y-107099049D01*
X58745238Y-107099049D01*
X58897619Y-107137144D01*
X58973810Y-107213334D01*
X59011905Y-107289525D01*
X59011905Y-107441906D01*
X58973810Y-107518096D01*
X58897619Y-107594287D01*
X58745238Y-107632382D01*
X58478571Y-107632382D01*
X58326190Y-107594287D01*
X58250000Y-107518096D01*
X58211905Y-107441906D01*
X59011905Y-106756192D02*
X58211905Y-106756192D01*
X59011905Y-106299049D02*
X58554762Y-106641906D01*
X58211905Y-106299049D02*
X58669048Y-106756192D01*
X58592857Y-105956192D02*
X58592857Y-105689525D01*
X59011905Y-105575239D02*
X59011905Y-105956192D01*
X58211905Y-105956192D01*
X58211905Y-105575239D01*
X59011905Y-105232382D02*
X58211905Y-105232382D01*
X59011905Y-104775239D01*
X58211905Y-104775239D01*
X58211905Y-103784763D02*
X58859524Y-103784763D01*
X58935714Y-103746668D01*
X58973810Y-103708572D01*
X59011905Y-103632382D01*
X59011905Y-103480001D01*
X58973810Y-103403810D01*
X58935714Y-103365715D01*
X58859524Y-103327620D01*
X58211905Y-103327620D01*
X59011905Y-102946668D02*
X58211905Y-102946668D01*
X59011905Y-102489525D01*
X58211905Y-102489525D01*
X59011905Y-102108573D02*
X58211905Y-102108573D01*
X58211905Y-101918097D01*
X58250000Y-101803811D01*
X58326190Y-101727620D01*
X58402381Y-101689525D01*
X58554762Y-101651430D01*
X58669048Y-101651430D01*
X58821429Y-101689525D01*
X58897619Y-101727620D01*
X58973810Y-101803811D01*
X59011905Y-101918097D01*
X59011905Y-102108573D01*
X59011905Y-100699049D02*
X58211905Y-100699049D01*
X58783333Y-100432382D01*
X58211905Y-100165715D01*
X59011905Y-100165715D01*
X59011905Y-99784763D02*
X58211905Y-99784763D01*
X58211905Y-99518097D02*
X58211905Y-99060954D01*
X59011905Y-99289525D02*
X58211905Y-99289525D01*
X58211905Y-98908573D02*
X58211905Y-98451430D01*
X59011905Y-98680001D02*
X58211905Y-98680001D01*
X58592857Y-98184763D02*
X58592857Y-97918096D01*
X59011905Y-97803810D02*
X59011905Y-98184763D01*
X58211905Y-98184763D01*
X58211905Y-97803810D01*
X59011905Y-97460953D02*
X58211905Y-97460953D01*
X59011905Y-97003810D01*
X58211905Y-97003810D01*
X58250000Y-96203810D02*
X58211905Y-96280001D01*
X58211905Y-96394286D01*
X58250000Y-96508572D01*
X58326190Y-96584763D01*
X58402381Y-96622858D01*
X58554762Y-96660953D01*
X58669048Y-96660953D01*
X58821429Y-96622858D01*
X58897619Y-96584763D01*
X58973810Y-96508572D01*
X59011905Y-96394286D01*
X59011905Y-96318096D01*
X58973810Y-96203810D01*
X58935714Y-96165715D01*
X58669048Y-96165715D01*
X58669048Y-96318096D01*
X59011905Y-95365715D02*
X58630952Y-95632382D01*
X59011905Y-95822858D02*
X58211905Y-95822858D01*
X58211905Y-95518096D01*
X58250000Y-95441905D01*
X58288095Y-95403810D01*
X58364286Y-95365715D01*
X58478571Y-95365715D01*
X58554762Y-95403810D01*
X58592857Y-95441905D01*
X58630952Y-95518096D01*
X58630952Y-95822858D01*
X58783333Y-95060953D02*
X58783333Y-94680001D01*
X59011905Y-95137144D02*
X58211905Y-94870477D01*
X59011905Y-94603810D01*
X58592857Y-94070477D02*
X58630952Y-93956191D01*
X58669048Y-93918096D01*
X58745238Y-93880001D01*
X58859524Y-93880001D01*
X58935714Y-93918096D01*
X58973810Y-93956191D01*
X59011905Y-94032382D01*
X59011905Y-94337144D01*
X58211905Y-94337144D01*
X58211905Y-94070477D01*
X58250000Y-93994287D01*
X58288095Y-93956191D01*
X58364286Y-93918096D01*
X58440476Y-93918096D01*
X58516667Y-93956191D01*
X58554762Y-93994287D01*
X58592857Y-94070477D01*
X58592857Y-94337144D01*
X58592857Y-93270477D02*
X58630952Y-93156191D01*
X58669048Y-93118096D01*
X58745238Y-93080001D01*
X58859524Y-93080001D01*
X58935714Y-93118096D01*
X58973810Y-93156191D01*
X59011905Y-93232382D01*
X59011905Y-93537144D01*
X58211905Y-93537144D01*
X58211905Y-93270477D01*
X58250000Y-93194287D01*
X58288095Y-93156191D01*
X58364286Y-93118096D01*
X58440476Y-93118096D01*
X58516667Y-93156191D01*
X58554762Y-93194287D01*
X58592857Y-93270477D01*
X58592857Y-93537144D01*
X58592857Y-92737144D02*
X58592857Y-92470477D01*
X59011905Y-92356191D02*
X59011905Y-92737144D01*
X58211905Y-92737144D01*
X58211905Y-92356191D01*
X59011905Y-92013334D02*
X58211905Y-92013334D01*
X59011905Y-91556191D01*
X58211905Y-91556191D01*
X58935714Y-91175239D02*
X58973810Y-91137144D01*
X59011905Y-91175239D01*
X58973810Y-91213334D01*
X58935714Y-91175239D01*
X59011905Y-91175239D01*
X58211905Y-90032382D02*
X58211905Y-89880001D01*
X58250000Y-89803810D01*
X58326190Y-89727620D01*
X58478571Y-89689525D01*
X58745238Y-89689525D01*
X58897619Y-89727620D01*
X58973810Y-89803810D01*
X59011905Y-89880001D01*
X59011905Y-90032382D01*
X58973810Y-90108572D01*
X58897619Y-90184763D01*
X58745238Y-90222858D01*
X58478571Y-90222858D01*
X58326190Y-90184763D01*
X58250000Y-90108572D01*
X58211905Y-90032382D01*
X59011905Y-89346668D02*
X58211905Y-89346668D01*
X58211905Y-89156192D01*
X58250000Y-89041906D01*
X58326190Y-88965715D01*
X58402381Y-88927620D01*
X58554762Y-88889525D01*
X58669048Y-88889525D01*
X58821429Y-88927620D01*
X58897619Y-88965715D01*
X58973810Y-89041906D01*
X59011905Y-89156192D01*
X59011905Y-89346668D01*
X58592857Y-88546668D02*
X58592857Y-88280001D01*
X59011905Y-88165715D02*
X59011905Y-88546668D01*
X58211905Y-88546668D01*
X58211905Y-88165715D01*
X59011905Y-87365715D02*
X58630952Y-87632382D01*
X59011905Y-87822858D02*
X58211905Y-87822858D01*
X58211905Y-87518096D01*
X58250000Y-87441905D01*
X58288095Y-87403810D01*
X58364286Y-87365715D01*
X58478571Y-87365715D01*
X58554762Y-87403810D01*
X58592857Y-87441905D01*
X58630952Y-87518096D01*
X58630952Y-87822858D01*
X58211905Y-87099048D02*
X59011905Y-86908572D01*
X58440476Y-86756191D01*
X59011905Y-86603810D01*
X58211905Y-86413334D01*
X59011905Y-86108572D02*
X58211905Y-86108572D01*
X58973810Y-85765715D02*
X59011905Y-85651429D01*
X59011905Y-85460953D01*
X58973810Y-85384763D01*
X58935714Y-85346667D01*
X58859524Y-85308572D01*
X58783333Y-85308572D01*
X58707143Y-85346667D01*
X58669048Y-85384763D01*
X58630952Y-85460953D01*
X58592857Y-85613334D01*
X58554762Y-85689525D01*
X58516667Y-85727620D01*
X58440476Y-85765715D01*
X58364286Y-85765715D01*
X58288095Y-85727620D01*
X58250000Y-85689525D01*
X58211905Y-85613334D01*
X58211905Y-85422858D01*
X58250000Y-85308572D01*
X58592857Y-84965715D02*
X58592857Y-84699048D01*
X59011905Y-84584762D02*
X59011905Y-84965715D01*
X58211905Y-84965715D01*
X58211905Y-84584762D01*
X59011905Y-83632381D02*
X58211905Y-83632381D01*
X58973810Y-83289524D02*
X59011905Y-83175238D01*
X59011905Y-82984762D01*
X58973810Y-82908572D01*
X58935714Y-82870476D01*
X58859524Y-82832381D01*
X58783333Y-82832381D01*
X58707143Y-82870476D01*
X58669048Y-82908572D01*
X58630952Y-82984762D01*
X58592857Y-83137143D01*
X58554762Y-83213334D01*
X58516667Y-83251429D01*
X58440476Y-83289524D01*
X58364286Y-83289524D01*
X58288095Y-83251429D01*
X58250000Y-83213334D01*
X58211905Y-83137143D01*
X58211905Y-82946667D01*
X58250000Y-82832381D01*
X58592857Y-81880000D02*
X58592857Y-81613333D01*
X59011905Y-81499047D02*
X59011905Y-81880000D01*
X58211905Y-81880000D01*
X58211905Y-81499047D01*
X58783333Y-81194285D02*
X58783333Y-80813333D01*
X59011905Y-81270476D02*
X58211905Y-81003809D01*
X59011905Y-80737142D01*
X58973810Y-80508571D02*
X59011905Y-80394285D01*
X59011905Y-80203809D01*
X58973810Y-80127619D01*
X58935714Y-80089523D01*
X58859524Y-80051428D01*
X58783333Y-80051428D01*
X58707143Y-80089523D01*
X58669048Y-80127619D01*
X58630952Y-80203809D01*
X58592857Y-80356190D01*
X58554762Y-80432381D01*
X58516667Y-80470476D01*
X58440476Y-80508571D01*
X58364286Y-80508571D01*
X58288095Y-80470476D01*
X58250000Y-80432381D01*
X58211905Y-80356190D01*
X58211905Y-80165714D01*
X58250000Y-80051428D01*
X58630952Y-79556190D02*
X59011905Y-79556190D01*
X58211905Y-79822857D02*
X58630952Y-79556190D01*
X58211905Y-79289523D01*
X60273810Y-129727619D02*
X60311905Y-129613333D01*
X60311905Y-129422857D01*
X60273810Y-129346667D01*
X60235714Y-129308571D01*
X60159524Y-129270476D01*
X60083333Y-129270476D01*
X60007143Y-129308571D01*
X59969048Y-129346667D01*
X59930952Y-129422857D01*
X59892857Y-129575238D01*
X59854762Y-129651429D01*
X59816667Y-129689524D01*
X59740476Y-129727619D01*
X59664286Y-129727619D01*
X59588095Y-129689524D01*
X59550000Y-129651429D01*
X59511905Y-129575238D01*
X59511905Y-129384762D01*
X59550000Y-129270476D01*
X60235714Y-128470476D02*
X60273810Y-128508571D01*
X60311905Y-128622857D01*
X60311905Y-128699047D01*
X60273810Y-128813333D01*
X60197619Y-128889524D01*
X60121429Y-128927619D01*
X59969048Y-128965714D01*
X59854762Y-128965714D01*
X59702381Y-128927619D01*
X59626190Y-128889524D01*
X59550000Y-128813333D01*
X59511905Y-128699047D01*
X59511905Y-128622857D01*
X59550000Y-128508571D01*
X59588095Y-128470476D01*
X60311905Y-128127619D02*
X59511905Y-128127619D01*
X59892857Y-128127619D02*
X59892857Y-127670476D01*
X60311905Y-127670476D02*
X59511905Y-127670476D01*
X60311905Y-127289524D02*
X59511905Y-127289524D01*
X60311905Y-126832381D01*
X59511905Y-126832381D01*
X60083333Y-126489524D02*
X60083333Y-126108572D01*
X60311905Y-126565715D02*
X59511905Y-126299048D01*
X60311905Y-126032381D01*
X60311905Y-125765715D02*
X59511905Y-125765715D01*
X59511905Y-125460953D01*
X59550000Y-125384762D01*
X59588095Y-125346667D01*
X59664286Y-125308572D01*
X59778571Y-125308572D01*
X59854762Y-125346667D01*
X59892857Y-125384762D01*
X59930952Y-125460953D01*
X59930952Y-125765715D01*
X60311905Y-124965715D02*
X59511905Y-124965715D01*
X59511905Y-124660953D01*
X59550000Y-124584762D01*
X59588095Y-124546667D01*
X59664286Y-124508572D01*
X59778571Y-124508572D01*
X59854762Y-124546667D01*
X59892857Y-124584762D01*
X59930952Y-124660953D01*
X59930952Y-124965715D01*
X59892857Y-124165715D02*
X59892857Y-123899048D01*
X60311905Y-123784762D02*
X60311905Y-124165715D01*
X59511905Y-124165715D01*
X59511905Y-123784762D01*
X60311905Y-123441905D02*
X59511905Y-123441905D01*
X60311905Y-122984762D01*
X59511905Y-122984762D01*
X60311905Y-121994286D02*
X59511905Y-121994286D01*
X59511905Y-121803810D01*
X59550000Y-121689524D01*
X59626190Y-121613333D01*
X59702381Y-121575238D01*
X59854762Y-121537143D01*
X59969048Y-121537143D01*
X60121429Y-121575238D01*
X60197619Y-121613333D01*
X60273810Y-121689524D01*
X60311905Y-121803810D01*
X60311905Y-121994286D01*
X59892857Y-121194286D02*
X59892857Y-120927619D01*
X60311905Y-120813333D02*
X60311905Y-121194286D01*
X59511905Y-121194286D01*
X59511905Y-120813333D01*
X60311905Y-120013333D02*
X59930952Y-120280000D01*
X60311905Y-120470476D02*
X59511905Y-120470476D01*
X59511905Y-120165714D01*
X59550000Y-120089523D01*
X59588095Y-120051428D01*
X59664286Y-120013333D01*
X59778571Y-120013333D01*
X59854762Y-120051428D01*
X59892857Y-120089523D01*
X59930952Y-120165714D01*
X59930952Y-120470476D01*
X60273810Y-119099047D02*
X60311905Y-118984761D01*
X60311905Y-118794285D01*
X60273810Y-118718095D01*
X60235714Y-118679999D01*
X60159524Y-118641904D01*
X60083333Y-118641904D01*
X60007143Y-118679999D01*
X59969048Y-118718095D01*
X59930952Y-118794285D01*
X59892857Y-118946666D01*
X59854762Y-119022857D01*
X59816667Y-119060952D01*
X59740476Y-119099047D01*
X59664286Y-119099047D01*
X59588095Y-119060952D01*
X59550000Y-119022857D01*
X59511905Y-118946666D01*
X59511905Y-118756190D01*
X59550000Y-118641904D01*
X60311905Y-118299047D02*
X59511905Y-118299047D01*
X59511905Y-117994285D01*
X59550000Y-117918094D01*
X59588095Y-117879999D01*
X59664286Y-117841904D01*
X59778571Y-117841904D01*
X59854762Y-117879999D01*
X59892857Y-117918094D01*
X59930952Y-117994285D01*
X59930952Y-118299047D01*
X60311905Y-117041904D02*
X59930952Y-117308571D01*
X60311905Y-117499047D02*
X59511905Y-117499047D01*
X59511905Y-117194285D01*
X59550000Y-117118094D01*
X59588095Y-117079999D01*
X59664286Y-117041904D01*
X59778571Y-117041904D01*
X59854762Y-117079999D01*
X59892857Y-117118094D01*
X59930952Y-117194285D01*
X59930952Y-117499047D01*
X60311905Y-116699047D02*
X59511905Y-116699047D01*
X60311905Y-116318095D02*
X59511905Y-116318095D01*
X60311905Y-115860952D01*
X59511905Y-115860952D01*
X59550000Y-115060952D02*
X59511905Y-115137143D01*
X59511905Y-115251428D01*
X59550000Y-115365714D01*
X59626190Y-115441905D01*
X59702381Y-115480000D01*
X59854762Y-115518095D01*
X59969048Y-115518095D01*
X60121429Y-115480000D01*
X60197619Y-115441905D01*
X60273810Y-115365714D01*
X60311905Y-115251428D01*
X60311905Y-115175238D01*
X60273810Y-115060952D01*
X60235714Y-115022857D01*
X59969048Y-115022857D01*
X59969048Y-115175238D01*
X59892857Y-114680000D02*
X59892857Y-114413333D01*
X60311905Y-114299047D02*
X60311905Y-114680000D01*
X59511905Y-114680000D01*
X59511905Y-114299047D01*
X60311905Y-113956190D02*
X59511905Y-113956190D01*
X60311905Y-113499047D01*
X59511905Y-113499047D01*
X59511905Y-113194285D02*
X60311905Y-113003809D01*
X59740476Y-112851428D01*
X60311905Y-112699047D01*
X59511905Y-112508571D01*
X59892857Y-112203809D02*
X59892857Y-111937142D01*
X60311905Y-111822856D02*
X60311905Y-112203809D01*
X59511905Y-112203809D01*
X59511905Y-111822856D01*
X60311905Y-111022856D02*
X59930952Y-111289523D01*
X60311905Y-111479999D02*
X59511905Y-111479999D01*
X59511905Y-111175237D01*
X59550000Y-111099046D01*
X59588095Y-111060951D01*
X59664286Y-111022856D01*
X59778571Y-111022856D01*
X59854762Y-111060951D01*
X59892857Y-111099046D01*
X59930952Y-111175237D01*
X59930952Y-111479999D01*
X60311905Y-110679999D02*
X59511905Y-110679999D01*
X60311905Y-110222856D02*
X59854762Y-110565713D01*
X59511905Y-110222856D02*
X59969048Y-110679999D01*
X60273810Y-109841904D02*
X60311905Y-109841904D01*
X60388095Y-109879999D01*
X60426190Y-109918094D01*
X59892857Y-108622856D02*
X59930952Y-108508570D01*
X59969048Y-108470475D01*
X60045238Y-108432380D01*
X60159524Y-108432380D01*
X60235714Y-108470475D01*
X60273810Y-108508570D01*
X60311905Y-108584761D01*
X60311905Y-108889523D01*
X59511905Y-108889523D01*
X59511905Y-108622856D01*
X59550000Y-108546666D01*
X59588095Y-108508570D01*
X59664286Y-108470475D01*
X59740476Y-108470475D01*
X59816667Y-108508570D01*
X59854762Y-108546666D01*
X59892857Y-108622856D01*
X59892857Y-108889523D01*
X60311905Y-107708570D02*
X60311905Y-108089523D01*
X59511905Y-108089523D01*
X59511905Y-107289523D02*
X59511905Y-107137142D01*
X59550000Y-107060951D01*
X59626190Y-106984761D01*
X59778571Y-106946666D01*
X60045238Y-106946666D01*
X60197619Y-106984761D01*
X60273810Y-107060951D01*
X60311905Y-107137142D01*
X60311905Y-107289523D01*
X60273810Y-107365713D01*
X60197619Y-107441904D01*
X60045238Y-107479999D01*
X59778571Y-107479999D01*
X59626190Y-107441904D01*
X59550000Y-107365713D01*
X59511905Y-107289523D01*
X59511905Y-106679999D02*
X60311905Y-106489523D01*
X59740476Y-106337142D01*
X60311905Y-106184761D01*
X59511905Y-105994285D01*
X59892857Y-105689523D02*
X59892857Y-105422856D01*
X60311905Y-105308570D02*
X60311905Y-105689523D01*
X59511905Y-105689523D01*
X59511905Y-105308570D01*
X60311905Y-104965713D02*
X59511905Y-104965713D01*
X60311905Y-104508570D01*
X59511905Y-104508570D01*
X59892857Y-103860951D02*
X59892857Y-104127618D01*
X60311905Y-104127618D02*
X59511905Y-104127618D01*
X59511905Y-103746665D01*
X59511905Y-103441904D02*
X60159524Y-103441904D01*
X60235714Y-103403809D01*
X60273810Y-103365713D01*
X60311905Y-103289523D01*
X60311905Y-103137142D01*
X60273810Y-103060951D01*
X60235714Y-103022856D01*
X60159524Y-102984761D01*
X59511905Y-102984761D01*
X60273810Y-102641904D02*
X60311905Y-102527618D01*
X60311905Y-102337142D01*
X60273810Y-102260952D01*
X60235714Y-102222856D01*
X60159524Y-102184761D01*
X60083333Y-102184761D01*
X60007143Y-102222856D01*
X59969048Y-102260952D01*
X59930952Y-102337142D01*
X59892857Y-102489523D01*
X59854762Y-102565714D01*
X59816667Y-102603809D01*
X59740476Y-102641904D01*
X59664286Y-102641904D01*
X59588095Y-102603809D01*
X59550000Y-102565714D01*
X59511905Y-102489523D01*
X59511905Y-102299047D01*
X59550000Y-102184761D01*
X59892857Y-101841904D02*
X59892857Y-101575237D01*
X60311905Y-101460951D02*
X60311905Y-101841904D01*
X59511905Y-101841904D01*
X59511905Y-101460951D01*
X60273810Y-101079999D02*
X60311905Y-101079999D01*
X60388095Y-101118094D01*
X60426190Y-101156189D01*
X59511905Y-100127618D02*
X60159524Y-100127618D01*
X60235714Y-100089523D01*
X60273810Y-100051427D01*
X60311905Y-99975237D01*
X60311905Y-99822856D01*
X60273810Y-99746665D01*
X60235714Y-99708570D01*
X60159524Y-99670475D01*
X59511905Y-99670475D01*
X60311905Y-99289523D02*
X59511905Y-99289523D01*
X60311905Y-98832380D01*
X59511905Y-98832380D01*
X60311905Y-98451428D02*
X59511905Y-98451428D01*
X59511905Y-98260952D01*
X59550000Y-98146666D01*
X59626190Y-98070475D01*
X59702381Y-98032380D01*
X59854762Y-97994285D01*
X59969048Y-97994285D01*
X60121429Y-98032380D01*
X60197619Y-98070475D01*
X60273810Y-98146666D01*
X60311905Y-98260952D01*
X60311905Y-98451428D01*
X60311905Y-97041904D02*
X59511905Y-97041904D01*
X59511905Y-96737142D01*
X59550000Y-96660951D01*
X59588095Y-96622856D01*
X59664286Y-96584761D01*
X59778571Y-96584761D01*
X59854762Y-96622856D01*
X59892857Y-96660951D01*
X59930952Y-96737142D01*
X59930952Y-97041904D01*
X59511905Y-96089523D02*
X59511905Y-95937142D01*
X59550000Y-95860951D01*
X59626190Y-95784761D01*
X59778571Y-95746666D01*
X60045238Y-95746666D01*
X60197619Y-95784761D01*
X60273810Y-95860951D01*
X60311905Y-95937142D01*
X60311905Y-96089523D01*
X60273810Y-96165713D01*
X60197619Y-96241904D01*
X60045238Y-96279999D01*
X59778571Y-96279999D01*
X59626190Y-96241904D01*
X59550000Y-96165713D01*
X59511905Y-96089523D01*
X60311905Y-95403809D02*
X59511905Y-95403809D01*
X59511905Y-95099047D01*
X59550000Y-95022856D01*
X59588095Y-94984761D01*
X59664286Y-94946666D01*
X59778571Y-94946666D01*
X59854762Y-94984761D01*
X59892857Y-95022856D01*
X59930952Y-95099047D01*
X59930952Y-95403809D01*
X60311905Y-94603809D02*
X59511905Y-94603809D01*
X59511905Y-94299047D01*
X59550000Y-94222856D01*
X59588095Y-94184761D01*
X59664286Y-94146666D01*
X59778571Y-94146666D01*
X59854762Y-94184761D01*
X59892857Y-94222856D01*
X59930952Y-94299047D01*
X59930952Y-94603809D01*
X59892857Y-93803809D02*
X59892857Y-93537142D01*
X60311905Y-93422856D02*
X60311905Y-93803809D01*
X59511905Y-93803809D01*
X59511905Y-93422856D01*
X60311905Y-93079999D02*
X59511905Y-93079999D01*
X60311905Y-92622856D01*
X59511905Y-92622856D01*
X60235714Y-91784761D02*
X60273810Y-91822856D01*
X60311905Y-91937142D01*
X60311905Y-92013332D01*
X60273810Y-92127618D01*
X60197619Y-92203809D01*
X60121429Y-92241904D01*
X59969048Y-92279999D01*
X59854762Y-92279999D01*
X59702381Y-92241904D01*
X59626190Y-92203809D01*
X59550000Y-92127618D01*
X59511905Y-92013332D01*
X59511905Y-91937142D01*
X59550000Y-91822856D01*
X59588095Y-91784761D01*
X59511905Y-91289523D02*
X59511905Y-91137142D01*
X59550000Y-91060951D01*
X59626190Y-90984761D01*
X59778571Y-90946666D01*
X60045238Y-90946666D01*
X60197619Y-90984761D01*
X60273810Y-91060951D01*
X60311905Y-91137142D01*
X60311905Y-91289523D01*
X60273810Y-91365713D01*
X60197619Y-91441904D01*
X60045238Y-91479999D01*
X59778571Y-91479999D01*
X59626190Y-91441904D01*
X59550000Y-91365713D01*
X59511905Y-91289523D01*
X60311905Y-90146666D02*
X59930952Y-90413333D01*
X60311905Y-90603809D02*
X59511905Y-90603809D01*
X59511905Y-90299047D01*
X59550000Y-90222856D01*
X59588095Y-90184761D01*
X59664286Y-90146666D01*
X59778571Y-90146666D01*
X59854762Y-90184761D01*
X59892857Y-90222856D01*
X59930952Y-90299047D01*
X59930952Y-90603809D01*
X60311905Y-89803809D02*
X59511905Y-89803809D01*
X60311905Y-89346666D02*
X59854762Y-89689523D01*
X59511905Y-89346666D02*
X59969048Y-89803809D01*
X59892857Y-89003809D02*
X59892857Y-88737142D01*
X60311905Y-88622856D02*
X60311905Y-89003809D01*
X59511905Y-89003809D01*
X59511905Y-88622856D01*
X60311905Y-88279999D02*
X59511905Y-88279999D01*
X60311905Y-87822856D01*
X59511905Y-87822856D01*
X60311905Y-86832380D02*
X59511905Y-86832380D01*
X60083333Y-86565713D01*
X59511905Y-86299046D01*
X60311905Y-86299046D01*
X60311905Y-85918094D02*
X59511905Y-85918094D01*
X59511905Y-85651428D02*
X59511905Y-85194285D01*
X60311905Y-85422856D02*
X59511905Y-85422856D01*
X60273810Y-84356189D02*
X60311905Y-84241903D01*
X60311905Y-84051427D01*
X60273810Y-83975237D01*
X60235714Y-83937141D01*
X60159524Y-83899046D01*
X60083333Y-83899046D01*
X60007143Y-83937141D01*
X59969048Y-83975237D01*
X59930952Y-84051427D01*
X59892857Y-84203808D01*
X59854762Y-84279999D01*
X59816667Y-84318094D01*
X59740476Y-84356189D01*
X59664286Y-84356189D01*
X59588095Y-84318094D01*
X59550000Y-84279999D01*
X59511905Y-84203808D01*
X59511905Y-84013332D01*
X59550000Y-83899046D01*
X60311905Y-83556189D02*
X59511905Y-83556189D01*
X59511905Y-83251427D01*
X59550000Y-83175236D01*
X59588095Y-83137141D01*
X59664286Y-83099046D01*
X59778571Y-83099046D01*
X59854762Y-83137141D01*
X59892857Y-83175236D01*
X59930952Y-83251427D01*
X59930952Y-83556189D01*
X60311905Y-82756189D02*
X59511905Y-82756189D01*
X59511905Y-82489523D02*
X59511905Y-82032380D01*
X60311905Y-82260951D02*
X59511905Y-82260951D01*
X59511905Y-81841903D02*
X59511905Y-81308570D01*
X60311905Y-81841903D01*
X60311905Y-81308570D01*
X59892857Y-81003808D02*
X59892857Y-80737141D01*
X60311905Y-80622855D02*
X60311905Y-81003808D01*
X59511905Y-81003808D01*
X59511905Y-80622855D01*
X60311905Y-80279998D02*
X59511905Y-80279998D01*
X60311905Y-79822855D01*
X59511905Y-79822855D01*
X60273810Y-79479998D02*
X60311905Y-79365712D01*
X60311905Y-79175236D01*
X60273810Y-79099046D01*
X60235714Y-79060950D01*
X60159524Y-79022855D01*
X60083333Y-79022855D01*
X60007143Y-79060950D01*
X59969048Y-79099046D01*
X59930952Y-79175236D01*
X59892857Y-79327617D01*
X59854762Y-79403808D01*
X59816667Y-79441903D01*
X59740476Y-79479998D01*
X59664286Y-79479998D01*
X59588095Y-79441903D01*
X59550000Y-79403808D01*
X59511905Y-79327617D01*
X59511905Y-79137141D01*
X59550000Y-79022855D01*
X60311905Y-78679998D02*
X59511905Y-78679998D01*
X59511905Y-78375236D01*
X59550000Y-78299045D01*
X59588095Y-78260950D01*
X59664286Y-78222855D01*
X59778571Y-78222855D01*
X59854762Y-78260950D01*
X59892857Y-78299045D01*
X59930952Y-78375236D01*
X59930952Y-78679998D01*
X60083333Y-77918093D02*
X60083333Y-77537141D01*
X60311905Y-77994284D02*
X59511905Y-77727617D01*
X60311905Y-77460950D01*
X60311905Y-76737141D02*
X59930952Y-77003808D01*
X60311905Y-77194284D02*
X59511905Y-77194284D01*
X59511905Y-76889522D01*
X59550000Y-76813331D01*
X59588095Y-76775236D01*
X59664286Y-76737141D01*
X59778571Y-76737141D01*
X59854762Y-76775236D01*
X59892857Y-76813331D01*
X59930952Y-76889522D01*
X59930952Y-77194284D01*
X60311905Y-76394284D02*
X59511905Y-76394284D01*
X60311905Y-75937141D02*
X59854762Y-76279998D01*
X59511905Y-75937141D02*
X59969048Y-76394284D01*
X59892857Y-75594284D02*
X59892857Y-75327617D01*
X60311905Y-75213331D02*
X60311905Y-75594284D01*
X59511905Y-75594284D01*
X59511905Y-75213331D01*
X60311905Y-74870474D02*
X59511905Y-74870474D01*
X60311905Y-74413331D01*
X59511905Y-74413331D01*
X60235714Y-74032379D02*
X60273810Y-73994284D01*
X60311905Y-74032379D01*
X60273810Y-74070474D01*
X60235714Y-74032379D01*
X60311905Y-74032379D01*
X61611905Y-129689524D02*
X60811905Y-129689524D01*
X60811905Y-129499048D01*
X60850000Y-129384762D01*
X60926190Y-129308571D01*
X61002381Y-129270476D01*
X61154762Y-129232381D01*
X61269048Y-129232381D01*
X61421429Y-129270476D01*
X61497619Y-129308571D01*
X61573810Y-129384762D01*
X61611905Y-129499048D01*
X61611905Y-129689524D01*
X61192857Y-128889524D02*
X61192857Y-128622857D01*
X61611905Y-128508571D02*
X61611905Y-128889524D01*
X60811905Y-128889524D01*
X60811905Y-128508571D01*
X61611905Y-127708571D02*
X61230952Y-127975238D01*
X61611905Y-128165714D02*
X60811905Y-128165714D01*
X60811905Y-127860952D01*
X60850000Y-127784761D01*
X60888095Y-127746666D01*
X60964286Y-127708571D01*
X61078571Y-127708571D01*
X61154762Y-127746666D01*
X61192857Y-127784761D01*
X61230952Y-127860952D01*
X61230952Y-128165714D01*
X61611905Y-126756190D02*
X60811905Y-126756190D01*
X61383333Y-126489523D01*
X60811905Y-126222856D01*
X61611905Y-126222856D01*
X61383333Y-125879999D02*
X61383333Y-125499047D01*
X61611905Y-125956190D02*
X60811905Y-125689523D01*
X61611905Y-125422856D01*
X61535714Y-124699047D02*
X61573810Y-124737142D01*
X61611905Y-124851428D01*
X61611905Y-124927618D01*
X61573810Y-125041904D01*
X61497619Y-125118095D01*
X61421429Y-125156190D01*
X61269048Y-125194285D01*
X61154762Y-125194285D01*
X61002381Y-125156190D01*
X60926190Y-125118095D01*
X60850000Y-125041904D01*
X60811905Y-124927618D01*
X60811905Y-124851428D01*
X60850000Y-124737142D01*
X60888095Y-124699047D01*
X61611905Y-124356190D02*
X60811905Y-124356190D01*
X61192857Y-124356190D02*
X61192857Y-123899047D01*
X61611905Y-123899047D02*
X60811905Y-123899047D01*
X61611905Y-123518095D02*
X60811905Y-123518095D01*
X61611905Y-123137143D02*
X60811905Y-123137143D01*
X61611905Y-122680000D01*
X60811905Y-122680000D01*
X61192857Y-122299048D02*
X61192857Y-122032381D01*
X61611905Y-121918095D02*
X61611905Y-122299048D01*
X60811905Y-122299048D01*
X60811905Y-121918095D01*
X61611905Y-120965714D02*
X60811905Y-120965714D01*
X61573810Y-120622857D02*
X61611905Y-120508571D01*
X61611905Y-120318095D01*
X61573810Y-120241905D01*
X61535714Y-120203809D01*
X61459524Y-120165714D01*
X61383333Y-120165714D01*
X61307143Y-120203809D01*
X61269048Y-120241905D01*
X61230952Y-120318095D01*
X61192857Y-120470476D01*
X61154762Y-120546667D01*
X61116667Y-120584762D01*
X61040476Y-120622857D01*
X60964286Y-120622857D01*
X60888095Y-120584762D01*
X60850000Y-120546667D01*
X60811905Y-120470476D01*
X60811905Y-120280000D01*
X60850000Y-120165714D01*
X61611905Y-119213333D02*
X60811905Y-119213333D01*
X60811905Y-119022857D01*
X60850000Y-118908571D01*
X60926190Y-118832380D01*
X61002381Y-118794285D01*
X61154762Y-118756190D01*
X61269048Y-118756190D01*
X61421429Y-118794285D01*
X61497619Y-118832380D01*
X61573810Y-118908571D01*
X61611905Y-119022857D01*
X61611905Y-119213333D01*
X61611905Y-118413333D02*
X60811905Y-118413333D01*
X60850000Y-117613333D02*
X60811905Y-117689524D01*
X60811905Y-117803809D01*
X60850000Y-117918095D01*
X60926190Y-117994286D01*
X61002381Y-118032381D01*
X61154762Y-118070476D01*
X61269048Y-118070476D01*
X61421429Y-118032381D01*
X61497619Y-117994286D01*
X61573810Y-117918095D01*
X61611905Y-117803809D01*
X61611905Y-117727619D01*
X61573810Y-117613333D01*
X61535714Y-117575238D01*
X61269048Y-117575238D01*
X61269048Y-117727619D01*
X60850000Y-116813333D02*
X60811905Y-116889524D01*
X60811905Y-117003809D01*
X60850000Y-117118095D01*
X60926190Y-117194286D01*
X61002381Y-117232381D01*
X61154762Y-117270476D01*
X61269048Y-117270476D01*
X61421429Y-117232381D01*
X61497619Y-117194286D01*
X61573810Y-117118095D01*
X61611905Y-117003809D01*
X61611905Y-116927619D01*
X61573810Y-116813333D01*
X61535714Y-116775238D01*
X61269048Y-116775238D01*
X61269048Y-116927619D01*
X61192857Y-116432381D02*
X61192857Y-116165714D01*
X61611905Y-116051428D02*
X61611905Y-116432381D01*
X60811905Y-116432381D01*
X60811905Y-116051428D01*
X61611905Y-115708571D02*
X60811905Y-115708571D01*
X61611905Y-115251428D01*
X60811905Y-115251428D01*
X61192857Y-113994285D02*
X61230952Y-113879999D01*
X61269048Y-113841904D01*
X61345238Y-113803809D01*
X61459524Y-113803809D01*
X61535714Y-113841904D01*
X61573810Y-113879999D01*
X61611905Y-113956190D01*
X61611905Y-114260952D01*
X60811905Y-114260952D01*
X60811905Y-113994285D01*
X60850000Y-113918095D01*
X60888095Y-113879999D01*
X60964286Y-113841904D01*
X61040476Y-113841904D01*
X61116667Y-113879999D01*
X61154762Y-113918095D01*
X61192857Y-113994285D01*
X61192857Y-114260952D01*
X61230952Y-113308571D02*
X61611905Y-113308571D01*
X60811905Y-113575238D02*
X61230952Y-113308571D01*
X60811905Y-113041904D01*
X61192857Y-112165714D02*
X61192857Y-111899047D01*
X61611905Y-111784761D02*
X61611905Y-112165714D01*
X60811905Y-112165714D01*
X60811905Y-111784761D01*
X60811905Y-111518094D02*
X61611905Y-110984761D01*
X60811905Y-110984761D02*
X61611905Y-111518094D01*
X61611905Y-110679999D02*
X60811905Y-110679999D01*
X60811905Y-110375237D01*
X60850000Y-110299046D01*
X60888095Y-110260951D01*
X60964286Y-110222856D01*
X61078571Y-110222856D01*
X61154762Y-110260951D01*
X61192857Y-110299046D01*
X61230952Y-110375237D01*
X61230952Y-110679999D01*
X61192857Y-109879999D02*
X61192857Y-109613332D01*
X61611905Y-109499046D02*
X61611905Y-109879999D01*
X60811905Y-109879999D01*
X60811905Y-109499046D01*
X61611905Y-108699046D02*
X61230952Y-108965713D01*
X61611905Y-109156189D02*
X60811905Y-109156189D01*
X60811905Y-108851427D01*
X60850000Y-108775236D01*
X60888095Y-108737141D01*
X60964286Y-108699046D01*
X61078571Y-108699046D01*
X61154762Y-108737141D01*
X61192857Y-108775236D01*
X61230952Y-108851427D01*
X61230952Y-109156189D01*
X60811905Y-108470475D02*
X60811905Y-108013332D01*
X61611905Y-108241903D02*
X60811905Y-108241903D01*
X60811905Y-107822855D02*
X60811905Y-107289522D01*
X61611905Y-107822855D01*
X61611905Y-107289522D01*
X61192857Y-106984760D02*
X61192857Y-106718093D01*
X61611905Y-106603807D02*
X61611905Y-106984760D01*
X60811905Y-106984760D01*
X60811905Y-106603807D01*
X61611905Y-106260950D02*
X60811905Y-106260950D01*
X61611905Y-105803807D01*
X60811905Y-105803807D01*
X60811905Y-104660950D02*
X60811905Y-104508569D01*
X60850000Y-104432378D01*
X60926190Y-104356188D01*
X61078571Y-104318093D01*
X61345238Y-104318093D01*
X61497619Y-104356188D01*
X61573810Y-104432378D01*
X61611905Y-104508569D01*
X61611905Y-104660950D01*
X61573810Y-104737140D01*
X61497619Y-104813331D01*
X61345238Y-104851426D01*
X61078571Y-104851426D01*
X60926190Y-104813331D01*
X60850000Y-104737140D01*
X60811905Y-104660950D01*
X61611905Y-103975236D02*
X60811905Y-103975236D01*
X61611905Y-103518093D01*
X60811905Y-103518093D01*
X61611905Y-102756188D02*
X61611905Y-103137141D01*
X60811905Y-103137141D01*
X61230952Y-102337141D02*
X61611905Y-102337141D01*
X60811905Y-102603808D02*
X61230952Y-102337141D01*
X60811905Y-102070474D01*
X61535714Y-101803808D02*
X61573810Y-101765713D01*
X61611905Y-101803808D01*
X61573810Y-101841903D01*
X61535714Y-101803808D01*
X61611905Y-101803808D01*
X61611905Y-100813332D02*
X60811905Y-100813332D01*
X61573810Y-100470475D02*
X61611905Y-100356189D01*
X61611905Y-100165713D01*
X61573810Y-100089523D01*
X61535714Y-100051427D01*
X61459524Y-100013332D01*
X61383333Y-100013332D01*
X61307143Y-100051427D01*
X61269048Y-100089523D01*
X61230952Y-100165713D01*
X61192857Y-100318094D01*
X61154762Y-100394285D01*
X61116667Y-100432380D01*
X61040476Y-100470475D01*
X60964286Y-100470475D01*
X60888095Y-100432380D01*
X60850000Y-100394285D01*
X60811905Y-100318094D01*
X60811905Y-100127618D01*
X60850000Y-100013332D01*
X61611905Y-99060951D02*
X60811905Y-99060951D01*
X61611905Y-98603808D01*
X60811905Y-98603808D01*
X61611905Y-98222856D02*
X60811905Y-98222856D01*
X61535714Y-97384761D02*
X61573810Y-97422856D01*
X61611905Y-97537142D01*
X61611905Y-97613332D01*
X61573810Y-97727618D01*
X61497619Y-97803809D01*
X61421429Y-97841904D01*
X61269048Y-97879999D01*
X61154762Y-97879999D01*
X61002381Y-97841904D01*
X60926190Y-97803809D01*
X60850000Y-97727618D01*
X60811905Y-97613332D01*
X60811905Y-97537142D01*
X60850000Y-97422856D01*
X60888095Y-97384761D01*
X61611905Y-97041904D02*
X60811905Y-97041904D01*
X61192857Y-97041904D02*
X61192857Y-96584761D01*
X61611905Y-96584761D02*
X60811905Y-96584761D01*
X60811905Y-96318095D02*
X60811905Y-95860952D01*
X61611905Y-96089523D02*
X60811905Y-96089523D01*
X61192857Y-94718094D02*
X61192857Y-94984761D01*
X61611905Y-94984761D02*
X60811905Y-94984761D01*
X60811905Y-94603808D01*
X60811905Y-94299047D02*
X61459524Y-94299047D01*
X61535714Y-94260952D01*
X61573810Y-94222856D01*
X61611905Y-94146666D01*
X61611905Y-93994285D01*
X61573810Y-93918094D01*
X61535714Y-93879999D01*
X61459524Y-93841904D01*
X60811905Y-93841904D01*
X61611905Y-93003809D02*
X61230952Y-93270476D01*
X61611905Y-93460952D02*
X60811905Y-93460952D01*
X60811905Y-93156190D01*
X60850000Y-93079999D01*
X60888095Y-93041904D01*
X60964286Y-93003809D01*
X61078571Y-93003809D01*
X61154762Y-93041904D01*
X61192857Y-93079999D01*
X61230952Y-93156190D01*
X61230952Y-93460952D01*
X60850000Y-91632380D02*
X60811905Y-91708571D01*
X60811905Y-91822856D01*
X60850000Y-91937142D01*
X60926190Y-92013333D01*
X61002381Y-92051428D01*
X61154762Y-92089523D01*
X61269048Y-92089523D01*
X61421429Y-92051428D01*
X61497619Y-92013333D01*
X61573810Y-91937142D01*
X61611905Y-91822856D01*
X61611905Y-91746666D01*
X61573810Y-91632380D01*
X61535714Y-91594285D01*
X61269048Y-91594285D01*
X61269048Y-91746666D01*
X61192857Y-91251428D02*
X61192857Y-90984761D01*
X61611905Y-90870475D02*
X61611905Y-91251428D01*
X60811905Y-91251428D01*
X60811905Y-90870475D01*
X60811905Y-90641904D02*
X61611905Y-90375237D01*
X60811905Y-90108570D01*
X61192857Y-89841904D02*
X61192857Y-89575237D01*
X61611905Y-89460951D02*
X61611905Y-89841904D01*
X60811905Y-89841904D01*
X60811905Y-89460951D01*
X61611905Y-88660951D02*
X61230952Y-88927618D01*
X61611905Y-89118094D02*
X60811905Y-89118094D01*
X60811905Y-88813332D01*
X60850000Y-88737141D01*
X60888095Y-88699046D01*
X60964286Y-88660951D01*
X61078571Y-88660951D01*
X61154762Y-88699046D01*
X61192857Y-88737141D01*
X61230952Y-88813332D01*
X61230952Y-89118094D01*
X61611905Y-88318094D02*
X60811905Y-88318094D01*
X61611905Y-87860951D02*
X61154762Y-88203808D01*
X60811905Y-87860951D02*
X61269048Y-88318094D01*
X61192857Y-87518094D02*
X61192857Y-87251427D01*
X61611905Y-87137141D02*
X61611905Y-87518094D01*
X60811905Y-87518094D01*
X60811905Y-87137141D01*
X61611905Y-86794284D02*
X60811905Y-86794284D01*
X61611905Y-86337141D01*
X60811905Y-86337141D01*
X61192857Y-85079998D02*
X61230952Y-84965712D01*
X61269048Y-84927617D01*
X61345238Y-84889522D01*
X61459524Y-84889522D01*
X61535714Y-84927617D01*
X61573810Y-84965712D01*
X61611905Y-85041903D01*
X61611905Y-85346665D01*
X60811905Y-85346665D01*
X60811905Y-85079998D01*
X60850000Y-85003808D01*
X60888095Y-84965712D01*
X60964286Y-84927617D01*
X61040476Y-84927617D01*
X61116667Y-84965712D01*
X61154762Y-85003808D01*
X61192857Y-85079998D01*
X61192857Y-85346665D01*
X61230952Y-84394284D02*
X61611905Y-84394284D01*
X60811905Y-84660951D02*
X61230952Y-84394284D01*
X60811905Y-84127617D01*
X61611905Y-83251427D02*
X60811905Y-83251427D01*
X60811905Y-83060951D01*
X60850000Y-82946665D01*
X60926190Y-82870474D01*
X61002381Y-82832379D01*
X61154762Y-82794284D01*
X61269048Y-82794284D01*
X61421429Y-82832379D01*
X61497619Y-82870474D01*
X61573810Y-82946665D01*
X61611905Y-83060951D01*
X61611905Y-83251427D01*
X60811905Y-82451427D02*
X61459524Y-82451427D01*
X61535714Y-82413332D01*
X61573810Y-82375236D01*
X61611905Y-82299046D01*
X61611905Y-82146665D01*
X61573810Y-82070474D01*
X61535714Y-82032379D01*
X61459524Y-81994284D01*
X60811905Y-81994284D01*
X61611905Y-81613332D02*
X60811905Y-81613332D01*
X61383333Y-81346665D01*
X60811905Y-81079998D01*
X61611905Y-81079998D01*
X61611905Y-80699046D02*
X60811905Y-80699046D01*
X61383333Y-80432379D01*
X60811905Y-80165712D01*
X61611905Y-80165712D01*
X61611905Y-79784760D02*
X60811905Y-79784760D01*
X61611905Y-79327617D02*
X61154762Y-79670474D01*
X60811905Y-79327617D02*
X61269048Y-79784760D01*
X60811905Y-78832379D02*
X60811905Y-78679998D01*
X60850000Y-78603807D01*
X60926190Y-78527617D01*
X61078571Y-78489522D01*
X61345238Y-78489522D01*
X61497619Y-78527617D01*
X61573810Y-78603807D01*
X61611905Y-78679998D01*
X61611905Y-78832379D01*
X61573810Y-78908569D01*
X61497619Y-78984760D01*
X61345238Y-79022855D01*
X61078571Y-79022855D01*
X60926190Y-78984760D01*
X60850000Y-78908569D01*
X60811905Y-78832379D01*
X61611905Y-78146665D02*
X60811905Y-78146665D01*
X60811905Y-77841903D01*
X60850000Y-77765712D01*
X60888095Y-77727617D01*
X60964286Y-77689522D01*
X61078571Y-77689522D01*
X61154762Y-77727617D01*
X61192857Y-77765712D01*
X61230952Y-77841903D01*
X61230952Y-78146665D01*
X61192857Y-77079998D02*
X61192857Y-77346665D01*
X61611905Y-77346665D02*
X60811905Y-77346665D01*
X60811905Y-76965712D01*
X61192857Y-76660951D02*
X61192857Y-76394284D01*
X61611905Y-76279998D02*
X61611905Y-76660951D01*
X60811905Y-76660951D01*
X60811905Y-76279998D01*
X61611905Y-75937141D02*
X60811905Y-75937141D01*
X61611905Y-75479998D01*
X60811905Y-75479998D01*
X61535714Y-75099046D02*
X61573810Y-75060951D01*
X61611905Y-75099046D01*
X61573810Y-75137141D01*
X61535714Y-75099046D01*
X61611905Y-75099046D01*
X62911905Y-129689524D02*
X62111905Y-129689524D01*
X62111905Y-129499048D01*
X62150000Y-129384762D01*
X62226190Y-129308571D01*
X62302381Y-129270476D01*
X62454762Y-129232381D01*
X62569048Y-129232381D01*
X62721429Y-129270476D01*
X62797619Y-129308571D01*
X62873810Y-129384762D01*
X62911905Y-129499048D01*
X62911905Y-129689524D01*
X62683333Y-128927619D02*
X62683333Y-128546667D01*
X62911905Y-129003810D02*
X62111905Y-128737143D01*
X62911905Y-128470476D01*
X62873810Y-128241905D02*
X62911905Y-128127619D01*
X62911905Y-127937143D01*
X62873810Y-127860953D01*
X62835714Y-127822857D01*
X62759524Y-127784762D01*
X62683333Y-127784762D01*
X62607143Y-127822857D01*
X62569048Y-127860953D01*
X62530952Y-127937143D01*
X62492857Y-128089524D01*
X62454762Y-128165715D01*
X62416667Y-128203810D01*
X62340476Y-128241905D01*
X62264286Y-128241905D01*
X62188095Y-128203810D01*
X62150000Y-128165715D01*
X62111905Y-128089524D01*
X62111905Y-127899048D01*
X62150000Y-127784762D01*
X62911905Y-126375238D02*
X62530952Y-126641905D01*
X62911905Y-126832381D02*
X62111905Y-126832381D01*
X62111905Y-126527619D01*
X62150000Y-126451428D01*
X62188095Y-126413333D01*
X62264286Y-126375238D01*
X62378571Y-126375238D01*
X62454762Y-126413333D01*
X62492857Y-126451428D01*
X62530952Y-126527619D01*
X62530952Y-126832381D01*
X62111905Y-126032381D02*
X62759524Y-126032381D01*
X62835714Y-125994286D01*
X62873810Y-125956190D01*
X62911905Y-125880000D01*
X62911905Y-125727619D01*
X62873810Y-125651428D01*
X62835714Y-125613333D01*
X62759524Y-125575238D01*
X62111905Y-125575238D01*
X62492857Y-124927619D02*
X62530952Y-124813333D01*
X62569048Y-124775238D01*
X62645238Y-124737143D01*
X62759524Y-124737143D01*
X62835714Y-124775238D01*
X62873810Y-124813333D01*
X62911905Y-124889524D01*
X62911905Y-125194286D01*
X62111905Y-125194286D01*
X62111905Y-124927619D01*
X62150000Y-124851429D01*
X62188095Y-124813333D01*
X62264286Y-124775238D01*
X62340476Y-124775238D01*
X62416667Y-124813333D01*
X62454762Y-124851429D01*
X62492857Y-124927619D01*
X62492857Y-125194286D01*
X62492857Y-124127619D02*
X62530952Y-124013333D01*
X62569048Y-123975238D01*
X62645238Y-123937143D01*
X62759524Y-123937143D01*
X62835714Y-123975238D01*
X62873810Y-124013333D01*
X62911905Y-124089524D01*
X62911905Y-124394286D01*
X62111905Y-124394286D01*
X62111905Y-124127619D01*
X62150000Y-124051429D01*
X62188095Y-124013333D01*
X62264286Y-123975238D01*
X62340476Y-123975238D01*
X62416667Y-124013333D01*
X62454762Y-124051429D01*
X62492857Y-124127619D01*
X62492857Y-124394286D01*
X62492857Y-123594286D02*
X62492857Y-123327619D01*
X62911905Y-123213333D02*
X62911905Y-123594286D01*
X62111905Y-123594286D01*
X62111905Y-123213333D01*
X62911905Y-122413333D02*
X62530952Y-122680000D01*
X62911905Y-122870476D02*
X62111905Y-122870476D01*
X62111905Y-122565714D01*
X62150000Y-122489523D01*
X62188095Y-122451428D01*
X62264286Y-122413333D01*
X62378571Y-122413333D01*
X62454762Y-122451428D01*
X62492857Y-122489523D01*
X62530952Y-122565714D01*
X62530952Y-122870476D01*
X62911905Y-122070476D02*
X62111905Y-122070476D01*
X62911905Y-121613333D01*
X62111905Y-121613333D01*
X62492857Y-121232381D02*
X62492857Y-120965714D01*
X62911905Y-120851428D02*
X62911905Y-121232381D01*
X62111905Y-121232381D01*
X62111905Y-120851428D01*
X62835714Y-120051428D02*
X62873810Y-120089523D01*
X62911905Y-120203809D01*
X62911905Y-120279999D01*
X62873810Y-120394285D01*
X62797619Y-120470476D01*
X62721429Y-120508571D01*
X62569048Y-120546666D01*
X62454762Y-120546666D01*
X62302381Y-120508571D01*
X62226190Y-120470476D01*
X62150000Y-120394285D01*
X62111905Y-120279999D01*
X62111905Y-120203809D01*
X62150000Y-120089523D01*
X62188095Y-120051428D01*
X62911905Y-119708571D02*
X62111905Y-119708571D01*
X62911905Y-119251428D02*
X62454762Y-119594285D01*
X62111905Y-119251428D02*
X62569048Y-119708571D01*
X62492857Y-118908571D02*
X62492857Y-118641904D01*
X62911905Y-118527618D02*
X62911905Y-118908571D01*
X62111905Y-118908571D01*
X62111905Y-118527618D01*
X62911905Y-118184761D02*
X62111905Y-118184761D01*
X62911905Y-117727618D01*
X62111905Y-117727618D01*
X62873810Y-116775237D02*
X62911905Y-116660951D01*
X62911905Y-116470475D01*
X62873810Y-116394285D01*
X62835714Y-116356189D01*
X62759524Y-116318094D01*
X62683333Y-116318094D01*
X62607143Y-116356189D01*
X62569048Y-116394285D01*
X62530952Y-116470475D01*
X62492857Y-116622856D01*
X62454762Y-116699047D01*
X62416667Y-116737142D01*
X62340476Y-116775237D01*
X62264286Y-116775237D01*
X62188095Y-116737142D01*
X62150000Y-116699047D01*
X62111905Y-116622856D01*
X62111905Y-116432380D01*
X62150000Y-116318094D01*
X62911905Y-115975237D02*
X62111905Y-115975237D01*
X62150000Y-115175237D02*
X62111905Y-115251428D01*
X62111905Y-115365713D01*
X62150000Y-115479999D01*
X62226190Y-115556190D01*
X62302381Y-115594285D01*
X62454762Y-115632380D01*
X62569048Y-115632380D01*
X62721429Y-115594285D01*
X62797619Y-115556190D01*
X62873810Y-115479999D01*
X62911905Y-115365713D01*
X62911905Y-115289523D01*
X62873810Y-115175237D01*
X62835714Y-115137142D01*
X62569048Y-115137142D01*
X62569048Y-115289523D01*
X62911905Y-114794285D02*
X62111905Y-114794285D01*
X62492857Y-114794285D02*
X62492857Y-114337142D01*
X62911905Y-114337142D02*
X62111905Y-114337142D01*
X62111905Y-114070476D02*
X62111905Y-113613333D01*
X62911905Y-113841904D02*
X62111905Y-113841904D01*
X62873810Y-113384761D02*
X62911905Y-113270475D01*
X62911905Y-113079999D01*
X62873810Y-113003809D01*
X62835714Y-112965713D01*
X62759524Y-112927618D01*
X62683333Y-112927618D01*
X62607143Y-112965713D01*
X62569048Y-113003809D01*
X62530952Y-113079999D01*
X62492857Y-113232380D01*
X62454762Y-113308571D01*
X62416667Y-113346666D01*
X62340476Y-113384761D01*
X62264286Y-113384761D01*
X62188095Y-113346666D01*
X62150000Y-113308571D01*
X62111905Y-113232380D01*
X62111905Y-113041904D01*
X62150000Y-112927618D01*
X62492857Y-112584761D02*
X62492857Y-112318094D01*
X62911905Y-112203808D02*
X62911905Y-112584761D01*
X62111905Y-112584761D01*
X62111905Y-112203808D01*
X62492857Y-111860951D02*
X62492857Y-111594284D01*
X62911905Y-111479998D02*
X62911905Y-111860951D01*
X62111905Y-111860951D01*
X62111905Y-111479998D01*
X62911905Y-111137141D02*
X62111905Y-111137141D01*
X62911905Y-110679998D01*
X62111905Y-110679998D01*
X62492857Y-110299046D02*
X62492857Y-110032379D01*
X62911905Y-109918093D02*
X62911905Y-110299046D01*
X62111905Y-110299046D01*
X62111905Y-109918093D01*
X62911905Y-109575236D02*
X62111905Y-109575236D01*
X62911905Y-109118093D01*
X62111905Y-109118093D01*
X62911905Y-108127617D02*
X62111905Y-108127617D01*
X62911905Y-107670474D02*
X62454762Y-108013331D01*
X62111905Y-107670474D02*
X62569048Y-108127617D01*
X62492857Y-107327617D02*
X62492857Y-107060950D01*
X62911905Y-106946664D02*
X62911905Y-107327617D01*
X62111905Y-107327617D01*
X62111905Y-106946664D01*
X62492857Y-106603807D02*
X62492857Y-106337140D01*
X62911905Y-106222854D02*
X62911905Y-106603807D01*
X62111905Y-106603807D01*
X62111905Y-106222854D01*
X62911905Y-105879997D02*
X62111905Y-105879997D01*
X62111905Y-105575235D01*
X62150000Y-105499044D01*
X62188095Y-105460949D01*
X62264286Y-105422854D01*
X62378571Y-105422854D01*
X62454762Y-105460949D01*
X62492857Y-105499044D01*
X62530952Y-105575235D01*
X62530952Y-105879997D01*
X62492857Y-105079997D02*
X62492857Y-104813330D01*
X62911905Y-104699044D02*
X62911905Y-105079997D01*
X62111905Y-105079997D01*
X62111905Y-104699044D01*
X62911905Y-104356187D02*
X62111905Y-104356187D01*
X62911905Y-103899044D01*
X62111905Y-103899044D01*
X62911905Y-102908568D02*
X62111905Y-102908568D01*
X62111905Y-102718092D01*
X62150000Y-102603806D01*
X62226190Y-102527615D01*
X62302381Y-102489520D01*
X62454762Y-102451425D01*
X62569048Y-102451425D01*
X62721429Y-102489520D01*
X62797619Y-102527615D01*
X62873810Y-102603806D01*
X62911905Y-102718092D01*
X62911905Y-102908568D01*
X62683333Y-102146663D02*
X62683333Y-101765711D01*
X62911905Y-102222854D02*
X62111905Y-101956187D01*
X62911905Y-101689520D01*
X62873810Y-101460949D02*
X62911905Y-101346663D01*
X62911905Y-101156187D01*
X62873810Y-101079997D01*
X62835714Y-101041901D01*
X62759524Y-101003806D01*
X62683333Y-101003806D01*
X62607143Y-101041901D01*
X62569048Y-101079997D01*
X62530952Y-101156187D01*
X62492857Y-101308568D01*
X62454762Y-101384759D01*
X62416667Y-101422854D01*
X62340476Y-101460949D01*
X62264286Y-101460949D01*
X62188095Y-101422854D01*
X62150000Y-101384759D01*
X62111905Y-101308568D01*
X62111905Y-101118092D01*
X62150000Y-101003806D01*
X62911905Y-100051425D02*
X62111905Y-100051425D01*
X62911905Y-99594282D02*
X62454762Y-99937139D01*
X62111905Y-99594282D02*
X62569048Y-100051425D01*
X62111905Y-99099044D02*
X62111905Y-98946663D01*
X62150000Y-98870472D01*
X62226190Y-98794282D01*
X62378571Y-98756187D01*
X62645238Y-98756187D01*
X62797619Y-98794282D01*
X62873810Y-98870472D01*
X62911905Y-98946663D01*
X62911905Y-99099044D01*
X62873810Y-99175234D01*
X62797619Y-99251425D01*
X62645238Y-99289520D01*
X62378571Y-99289520D01*
X62226190Y-99251425D01*
X62150000Y-99175234D01*
X62111905Y-99099044D01*
X62111905Y-98527616D02*
X62111905Y-98070473D01*
X62911905Y-98299044D02*
X62111905Y-98299044D01*
X62111905Y-97918092D02*
X62111905Y-97460949D01*
X62911905Y-97689520D02*
X62111905Y-97689520D01*
X62492857Y-97194282D02*
X62492857Y-96927615D01*
X62911905Y-96813329D02*
X62911905Y-97194282D01*
X62111905Y-97194282D01*
X62111905Y-96813329D01*
X62911905Y-96470472D02*
X62111905Y-96470472D01*
X62911905Y-96013329D01*
X62111905Y-96013329D01*
X62911905Y-95632377D02*
X62111905Y-95632377D01*
X62111905Y-95327615D01*
X62150000Y-95251424D01*
X62188095Y-95213329D01*
X62264286Y-95175234D01*
X62378571Y-95175234D01*
X62454762Y-95213329D01*
X62492857Y-95251424D01*
X62530952Y-95327615D01*
X62530952Y-95632377D01*
X62911905Y-94832377D02*
X62111905Y-94832377D01*
X62835714Y-93994282D02*
X62873810Y-94032377D01*
X62911905Y-94146663D01*
X62911905Y-94222853D01*
X62873810Y-94337139D01*
X62797619Y-94413330D01*
X62721429Y-94451425D01*
X62569048Y-94489520D01*
X62454762Y-94489520D01*
X62302381Y-94451425D01*
X62226190Y-94413330D01*
X62150000Y-94337139D01*
X62111905Y-94222853D01*
X62111905Y-94146663D01*
X62150000Y-94032377D01*
X62188095Y-93994282D01*
X62911905Y-93651425D02*
X62111905Y-93651425D01*
X62911905Y-93194282D02*
X62454762Y-93537139D01*
X62111905Y-93194282D02*
X62569048Y-93651425D01*
X62492857Y-92851425D02*
X62492857Y-92584758D01*
X62911905Y-92470472D02*
X62911905Y-92851425D01*
X62111905Y-92851425D01*
X62111905Y-92470472D01*
X62911905Y-92127615D02*
X62111905Y-92127615D01*
X62911905Y-91670472D01*
X62111905Y-91670472D01*
X62911905Y-90679996D02*
X62111905Y-90679996D01*
X62492857Y-90679996D02*
X62492857Y-90222853D01*
X62911905Y-90222853D02*
X62111905Y-90222853D01*
X62683333Y-89879996D02*
X62683333Y-89499044D01*
X62911905Y-89956187D02*
X62111905Y-89689520D01*
X62911905Y-89422853D01*
X62911905Y-89156187D02*
X62111905Y-89156187D01*
X62911905Y-88699044D01*
X62111905Y-88699044D01*
X62911905Y-88318092D02*
X62111905Y-88318092D01*
X62111905Y-88127616D01*
X62150000Y-88013330D01*
X62226190Y-87937139D01*
X62302381Y-87899044D01*
X62454762Y-87860949D01*
X62569048Y-87860949D01*
X62721429Y-87899044D01*
X62797619Y-87937139D01*
X62873810Y-88013330D01*
X62911905Y-88127616D01*
X62911905Y-88318092D01*
X62873810Y-87556187D02*
X62911905Y-87441901D01*
X62911905Y-87251425D01*
X62873810Y-87175235D01*
X62835714Y-87137139D01*
X62759524Y-87099044D01*
X62683333Y-87099044D01*
X62607143Y-87137139D01*
X62569048Y-87175235D01*
X62530952Y-87251425D01*
X62492857Y-87403806D01*
X62454762Y-87479997D01*
X62416667Y-87518092D01*
X62340476Y-87556187D01*
X62264286Y-87556187D01*
X62188095Y-87518092D01*
X62150000Y-87479997D01*
X62111905Y-87403806D01*
X62111905Y-87213330D01*
X62150000Y-87099044D01*
X62911905Y-86146663D02*
X62111905Y-86146663D01*
X62911905Y-85765711D02*
X62111905Y-85765711D01*
X62911905Y-85308568D01*
X62111905Y-85308568D01*
X62911905Y-84318092D02*
X62111905Y-84318092D01*
X62111905Y-84127616D01*
X62150000Y-84013330D01*
X62226190Y-83937139D01*
X62302381Y-83899044D01*
X62454762Y-83860949D01*
X62569048Y-83860949D01*
X62721429Y-83899044D01*
X62797619Y-83937139D01*
X62873810Y-84013330D01*
X62911905Y-84127616D01*
X62911905Y-84318092D01*
X62683333Y-83556187D02*
X62683333Y-83175235D01*
X62911905Y-83632378D02*
X62111905Y-83365711D01*
X62911905Y-83099044D01*
X62873810Y-82870473D02*
X62911905Y-82756187D01*
X62911905Y-82565711D01*
X62873810Y-82489521D01*
X62835714Y-82451425D01*
X62759524Y-82413330D01*
X62683333Y-82413330D01*
X62607143Y-82451425D01*
X62569048Y-82489521D01*
X62530952Y-82565711D01*
X62492857Y-82718092D01*
X62454762Y-82794283D01*
X62416667Y-82832378D01*
X62340476Y-82870473D01*
X62264286Y-82870473D01*
X62188095Y-82832378D01*
X62150000Y-82794283D01*
X62111905Y-82718092D01*
X62111905Y-82527616D01*
X62150000Y-82413330D01*
X62911905Y-81460949D02*
X62111905Y-81460949D01*
X62111905Y-81156187D01*
X62150000Y-81079996D01*
X62188095Y-81041901D01*
X62264286Y-81003806D01*
X62378571Y-81003806D01*
X62454762Y-81041901D01*
X62492857Y-81079996D01*
X62530952Y-81156187D01*
X62530952Y-81460949D01*
X62111905Y-80508568D02*
X62111905Y-80356187D01*
X62150000Y-80279996D01*
X62226190Y-80203806D01*
X62378571Y-80165711D01*
X62645238Y-80165711D01*
X62797619Y-80203806D01*
X62873810Y-80279996D01*
X62911905Y-80356187D01*
X62911905Y-80508568D01*
X62873810Y-80584758D01*
X62797619Y-80660949D01*
X62645238Y-80699044D01*
X62378571Y-80699044D01*
X62226190Y-80660949D01*
X62150000Y-80584758D01*
X62111905Y-80508568D01*
X62835714Y-79365711D02*
X62873810Y-79403806D01*
X62911905Y-79518092D01*
X62911905Y-79594282D01*
X62873810Y-79708568D01*
X62797619Y-79784759D01*
X62721429Y-79822854D01*
X62569048Y-79860949D01*
X62454762Y-79860949D01*
X62302381Y-79822854D01*
X62226190Y-79784759D01*
X62150000Y-79708568D01*
X62111905Y-79594282D01*
X62111905Y-79518092D01*
X62150000Y-79403806D01*
X62188095Y-79365711D01*
X62911905Y-79022854D02*
X62111905Y-79022854D01*
X62911905Y-78565711D02*
X62454762Y-78908568D01*
X62111905Y-78565711D02*
X62569048Y-79022854D01*
X62492857Y-78222854D02*
X62492857Y-77956187D01*
X62911905Y-77841901D02*
X62911905Y-78222854D01*
X62111905Y-78222854D01*
X62111905Y-77841901D01*
X62111905Y-77613330D02*
X62111905Y-77156187D01*
X62911905Y-77384758D02*
X62111905Y-77384758D01*
X62873810Y-76927615D02*
X62911905Y-76813329D01*
X62911905Y-76622853D01*
X62873810Y-76546663D01*
X62835714Y-76508567D01*
X62759524Y-76470472D01*
X62683333Y-76470472D01*
X62607143Y-76508567D01*
X62569048Y-76546663D01*
X62530952Y-76622853D01*
X62492857Y-76775234D01*
X62454762Y-76851425D01*
X62416667Y-76889520D01*
X62340476Y-76927615D01*
X62264286Y-76927615D01*
X62188095Y-76889520D01*
X62150000Y-76851425D01*
X62111905Y-76775234D01*
X62111905Y-76584758D01*
X62150000Y-76470472D01*
X62873810Y-76089520D02*
X62911905Y-76089520D01*
X62988095Y-76127615D01*
X63026190Y-76165710D01*
X64211905Y-129232381D02*
X63830952Y-129499048D01*
X64211905Y-129689524D02*
X63411905Y-129689524D01*
X63411905Y-129384762D01*
X63450000Y-129308571D01*
X63488095Y-129270476D01*
X63564286Y-129232381D01*
X63678571Y-129232381D01*
X63754762Y-129270476D01*
X63792857Y-129308571D01*
X63830952Y-129384762D01*
X63830952Y-129689524D01*
X63792857Y-128889524D02*
X63792857Y-128622857D01*
X64211905Y-128508571D02*
X64211905Y-128889524D01*
X63411905Y-128889524D01*
X63411905Y-128508571D01*
X64211905Y-127784761D02*
X64211905Y-128165714D01*
X63411905Y-128165714D01*
X63983333Y-127556190D02*
X63983333Y-127175238D01*
X64211905Y-127632381D02*
X63411905Y-127365714D01*
X64211905Y-127099047D01*
X63411905Y-126908571D02*
X64211905Y-126375238D01*
X63411905Y-126375238D02*
X64211905Y-126908571D01*
X63792857Y-126070476D02*
X63792857Y-125803809D01*
X64211905Y-125689523D02*
X64211905Y-126070476D01*
X63411905Y-126070476D01*
X63411905Y-125689523D01*
X64211905Y-125346666D02*
X63411905Y-125346666D01*
X64211905Y-124889523D01*
X63411905Y-124889523D01*
X63411905Y-123899047D02*
X64059524Y-123899047D01*
X64135714Y-123860952D01*
X64173810Y-123822856D01*
X64211905Y-123746666D01*
X64211905Y-123594285D01*
X64173810Y-123518094D01*
X64135714Y-123479999D01*
X64059524Y-123441904D01*
X63411905Y-123441904D01*
X64211905Y-123060952D02*
X63411905Y-123060952D01*
X64211905Y-122603809D01*
X63411905Y-122603809D01*
X64211905Y-122222857D02*
X63411905Y-122222857D01*
X63411905Y-122032381D01*
X63450000Y-121918095D01*
X63526190Y-121841904D01*
X63602381Y-121803809D01*
X63754762Y-121765714D01*
X63869048Y-121765714D01*
X64021429Y-121803809D01*
X64097619Y-121841904D01*
X64173810Y-121918095D01*
X64211905Y-122032381D01*
X64211905Y-122222857D01*
X63411905Y-120889523D02*
X64211905Y-120699047D01*
X63640476Y-120546666D01*
X64211905Y-120394285D01*
X63411905Y-120203809D01*
X63983333Y-119937142D02*
X63983333Y-119556190D01*
X64211905Y-120013333D02*
X63411905Y-119746666D01*
X64211905Y-119479999D01*
X63411905Y-119327619D02*
X63411905Y-118870476D01*
X64211905Y-119099047D02*
X63411905Y-119099047D01*
X64135714Y-118146666D02*
X64173810Y-118184761D01*
X64211905Y-118299047D01*
X64211905Y-118375237D01*
X64173810Y-118489523D01*
X64097619Y-118565714D01*
X64021429Y-118603809D01*
X63869048Y-118641904D01*
X63754762Y-118641904D01*
X63602381Y-118603809D01*
X63526190Y-118565714D01*
X63450000Y-118489523D01*
X63411905Y-118375237D01*
X63411905Y-118299047D01*
X63450000Y-118184761D01*
X63488095Y-118146666D01*
X64211905Y-117803809D02*
X63411905Y-117803809D01*
X63792857Y-117803809D02*
X63792857Y-117346666D01*
X64211905Y-117346666D02*
X63411905Y-117346666D01*
X63792857Y-116965714D02*
X63792857Y-116699047D01*
X64211905Y-116584761D02*
X64211905Y-116965714D01*
X63411905Y-116965714D01*
X63411905Y-116584761D01*
X64211905Y-116241904D02*
X63411905Y-116241904D01*
X64211905Y-115784761D01*
X63411905Y-115784761D01*
X64211905Y-114794285D02*
X63411905Y-114794285D01*
X63411905Y-114603809D01*
X63450000Y-114489523D01*
X63526190Y-114413332D01*
X63602381Y-114375237D01*
X63754762Y-114337142D01*
X63869048Y-114337142D01*
X64021429Y-114375237D01*
X64097619Y-114413332D01*
X64173810Y-114489523D01*
X64211905Y-114603809D01*
X64211905Y-114794285D01*
X63983333Y-114032380D02*
X63983333Y-113651428D01*
X64211905Y-114108571D02*
X63411905Y-113841904D01*
X64211905Y-113575237D01*
X64173810Y-113346666D02*
X64211905Y-113232380D01*
X64211905Y-113041904D01*
X64173810Y-112965714D01*
X64135714Y-112927618D01*
X64059524Y-112889523D01*
X63983333Y-112889523D01*
X63907143Y-112927618D01*
X63869048Y-112965714D01*
X63830952Y-113041904D01*
X63792857Y-113194285D01*
X63754762Y-113270476D01*
X63716667Y-113308571D01*
X63640476Y-113346666D01*
X63564286Y-113346666D01*
X63488095Y-113308571D01*
X63450000Y-113270476D01*
X63411905Y-113194285D01*
X63411905Y-113003809D01*
X63450000Y-112889523D01*
X63792857Y-111670475D02*
X63830952Y-111556189D01*
X63869048Y-111518094D01*
X63945238Y-111479999D01*
X64059524Y-111479999D01*
X64135714Y-111518094D01*
X64173810Y-111556189D01*
X64211905Y-111632380D01*
X64211905Y-111937142D01*
X63411905Y-111937142D01*
X63411905Y-111670475D01*
X63450000Y-111594285D01*
X63488095Y-111556189D01*
X63564286Y-111518094D01*
X63640476Y-111518094D01*
X63716667Y-111556189D01*
X63754762Y-111594285D01*
X63792857Y-111670475D01*
X63792857Y-111937142D01*
X64211905Y-110756189D02*
X64211905Y-111137142D01*
X63411905Y-111137142D01*
X64211905Y-110489523D02*
X63411905Y-110489523D01*
X64211905Y-110108571D02*
X63411905Y-110108571D01*
X64211905Y-109651428D01*
X63411905Y-109651428D01*
X64211905Y-109270476D02*
X63411905Y-109270476D01*
X64211905Y-108813333D02*
X63754762Y-109156190D01*
X63411905Y-108813333D02*
X63869048Y-109270476D01*
X63792857Y-108470476D02*
X63792857Y-108203809D01*
X64211905Y-108089523D02*
X64211905Y-108470476D01*
X63411905Y-108470476D01*
X63411905Y-108089523D01*
X64211905Y-107746666D02*
X63411905Y-107746666D01*
X64211905Y-107289523D01*
X63411905Y-107289523D01*
X64211905Y-106527618D02*
X64211905Y-106908571D01*
X63411905Y-106908571D01*
X64211905Y-106260952D02*
X63411905Y-106260952D01*
X63450000Y-105460952D02*
X63411905Y-105537143D01*
X63411905Y-105651428D01*
X63450000Y-105765714D01*
X63526190Y-105841905D01*
X63602381Y-105880000D01*
X63754762Y-105918095D01*
X63869048Y-105918095D01*
X64021429Y-105880000D01*
X64097619Y-105841905D01*
X64173810Y-105765714D01*
X64211905Y-105651428D01*
X64211905Y-105575238D01*
X64173810Y-105460952D01*
X64135714Y-105422857D01*
X63869048Y-105422857D01*
X63869048Y-105575238D01*
X64211905Y-105080000D02*
X63411905Y-105080000D01*
X63792857Y-105080000D02*
X63792857Y-104622857D01*
X64211905Y-104622857D02*
X63411905Y-104622857D01*
X63411905Y-104356191D02*
X63411905Y-103899048D01*
X64211905Y-104127619D02*
X63411905Y-104127619D01*
X64173810Y-103670476D02*
X64211905Y-103556190D01*
X64211905Y-103365714D01*
X64173810Y-103289524D01*
X64135714Y-103251428D01*
X64059524Y-103213333D01*
X63983333Y-103213333D01*
X63907143Y-103251428D01*
X63869048Y-103289524D01*
X63830952Y-103365714D01*
X63792857Y-103518095D01*
X63754762Y-103594286D01*
X63716667Y-103632381D01*
X63640476Y-103670476D01*
X63564286Y-103670476D01*
X63488095Y-103632381D01*
X63450000Y-103594286D01*
X63411905Y-103518095D01*
X63411905Y-103327619D01*
X63450000Y-103213333D01*
X64135714Y-102870476D02*
X64173810Y-102832381D01*
X64211905Y-102870476D01*
X64173810Y-102908571D01*
X64135714Y-102870476D01*
X64211905Y-102870476D01*
D12*
X93118096Y-77010000D02*
X93022858Y-76962381D01*
X92880001Y-76962381D01*
X92737143Y-77010000D01*
X92641905Y-77105238D01*
X92594286Y-77200476D01*
X92546667Y-77390952D01*
X92546667Y-77533810D01*
X92594286Y-77724286D01*
X92641905Y-77819524D01*
X92737143Y-77914762D01*
X92880001Y-77962381D01*
X92975239Y-77962381D01*
X93118096Y-77914762D01*
X93165715Y-77867143D01*
X93165715Y-77533810D01*
X92975239Y-77533810D01*
X93594286Y-77962381D02*
X93594286Y-76962381D01*
X94165715Y-77962381D01*
X94165715Y-76962381D01*
X94641905Y-77962381D02*
X94641905Y-76962381D01*
X94880000Y-76962381D01*
X95022858Y-77010000D01*
X95118096Y-77105238D01*
X95165715Y-77200476D01*
X95213334Y-77390952D01*
X95213334Y-77533810D01*
X95165715Y-77724286D01*
X95118096Y-77819524D01*
X95022858Y-77914762D01*
X94880000Y-77962381D01*
X94641905Y-77962381D01*
X88311905Y-77904762D02*
X88454762Y-77952381D01*
X88692858Y-77952381D01*
X88788096Y-77904762D01*
X88835715Y-77857143D01*
X88883334Y-77761905D01*
X88883334Y-77666667D01*
X88835715Y-77571429D01*
X88788096Y-77523810D01*
X88692858Y-77476190D01*
X88502381Y-77428571D01*
X88407143Y-77380952D01*
X88359524Y-77333333D01*
X88311905Y-77238095D01*
X88311905Y-77142857D01*
X88359524Y-77047619D01*
X88407143Y-77000000D01*
X88502381Y-76952381D01*
X88740477Y-76952381D01*
X88883334Y-77000000D01*
X89502381Y-77476190D02*
X89502381Y-77952381D01*
X89169048Y-76952381D02*
X89502381Y-77476190D01*
X89835715Y-76952381D01*
X90169048Y-77952381D02*
X90169048Y-76952381D01*
X90740477Y-77952381D01*
X90740477Y-76952381D01*
X91788096Y-77857143D02*
X91740477Y-77904762D01*
X91597620Y-77952381D01*
X91502382Y-77952381D01*
X91359524Y-77904762D01*
X91264286Y-77809524D01*
X91216667Y-77714286D01*
X91169048Y-77523810D01*
X91169048Y-77380952D01*
X91216667Y-77190476D01*
X91264286Y-77095238D01*
X91359524Y-77000000D01*
X91502382Y-76952381D01*
X91597620Y-76952381D01*
X91740477Y-77000000D01*
X91788096Y-77047619D01*
X85580953Y-77962381D02*
X85247619Y-77486190D01*
X85009524Y-77962381D02*
X85009524Y-76962381D01*
X85390477Y-76962381D01*
X85485715Y-77010000D01*
X85533334Y-77057619D01*
X85580953Y-77152857D01*
X85580953Y-77295714D01*
X85533334Y-77390952D01*
X85485715Y-77438571D01*
X85390477Y-77486190D01*
X85009524Y-77486190D01*
X86009524Y-77962381D02*
X86009524Y-76962381D01*
X86247619Y-76962381D01*
X86390477Y-77010000D01*
X86485715Y-77105238D01*
X86533334Y-77200476D01*
X86580953Y-77390952D01*
X86580953Y-77533810D01*
X86533334Y-77724286D01*
X86485715Y-77819524D01*
X86390477Y-77914762D01*
X86247619Y-77962381D01*
X86009524Y-77962381D01*
X87200000Y-77486190D02*
X87200000Y-77962381D01*
X86866667Y-76962381D02*
X87200000Y-77486190D01*
X87533334Y-76962381D01*
X92112381Y-70332381D02*
X91779047Y-69856190D01*
X91540952Y-70332381D02*
X91540952Y-69332381D01*
X91921905Y-69332381D01*
X92017143Y-69380000D01*
X92064762Y-69427619D01*
X92112381Y-69522857D01*
X92112381Y-69665714D01*
X92064762Y-69760952D01*
X92017143Y-69808571D01*
X91921905Y-69856190D01*
X91540952Y-69856190D01*
X92493333Y-70284762D02*
X92636190Y-70332381D01*
X92874286Y-70332381D01*
X92969524Y-70284762D01*
X93017143Y-70237143D01*
X93064762Y-70141905D01*
X93064762Y-70046667D01*
X93017143Y-69951429D01*
X92969524Y-69903810D01*
X92874286Y-69856190D01*
X92683809Y-69808571D01*
X92588571Y-69760952D01*
X92540952Y-69713333D01*
X92493333Y-69618095D01*
X92493333Y-69522857D01*
X92540952Y-69427619D01*
X92588571Y-69380000D01*
X92683809Y-69332381D01*
X92921905Y-69332381D01*
X93064762Y-69380000D01*
X93350476Y-69332381D02*
X93921905Y-69332381D01*
X93636190Y-70332381D02*
X93636190Y-69332381D01*
X91302857Y-69160000D02*
X94017143Y-69160000D01*
X89453810Y-70332381D02*
X89453810Y-69332381D01*
X89358571Y-69475238D02*
X89549048Y-69475238D01*
X89691905Y-69522857D01*
X89787143Y-69618095D01*
X89834762Y-69713333D01*
X89834762Y-69903810D01*
X89787143Y-69999048D01*
X89691905Y-70094286D01*
X89549048Y-70141905D01*
X89358571Y-70141905D01*
X89215714Y-70094286D01*
X89120476Y-69999048D01*
X89072857Y-69903810D01*
X89072857Y-69713333D01*
X89120476Y-69618095D01*
X89215714Y-69522857D01*
X89358571Y-69475238D01*
X90168095Y-69427619D02*
X90215714Y-69380000D01*
X90310952Y-69332381D01*
X90549048Y-69332381D01*
X90644286Y-69380000D01*
X90691905Y-69427619D01*
X90739524Y-69522857D01*
X90739524Y-69618095D01*
X90691905Y-69760952D01*
X90120476Y-70332381D01*
X90739524Y-70332381D01*
X86099524Y-69282381D02*
X86432857Y-70282381D01*
X86766191Y-69282381D01*
X87528096Y-70234762D02*
X87432858Y-70282381D01*
X87242381Y-70282381D01*
X87147143Y-70234762D01*
X87099524Y-70187143D01*
X87051905Y-70091905D01*
X87051905Y-69806190D01*
X87099524Y-69710952D01*
X87147143Y-69663333D01*
X87242381Y-69615714D01*
X87432858Y-69615714D01*
X87528096Y-69663333D01*
X88385239Y-70234762D02*
X88290001Y-70282381D01*
X88099524Y-70282381D01*
X88004286Y-70234762D01*
X87956667Y-70187143D01*
X87909048Y-70091905D01*
X87909048Y-69806190D01*
X87956667Y-69710952D01*
X88004286Y-69663333D01*
X88099524Y-69615714D01*
X88290001Y-69615714D01*
X88385239Y-69663333D01*
D11*
X89478571Y-105877142D02*
X89478571Y-106162856D01*
X89550000Y-106305713D01*
X89621429Y-106377142D01*
X89835714Y-106519999D01*
X90121429Y-106591428D01*
X90692857Y-106591428D01*
X90835714Y-106519999D01*
X90907143Y-106448571D01*
X90978571Y-106305713D01*
X90978571Y-106019999D01*
X90907143Y-105877142D01*
X90835714Y-105805713D01*
X90692857Y-105734285D01*
X90335714Y-105734285D01*
X90192857Y-105805713D01*
X90121429Y-105877142D01*
X90050000Y-106019999D01*
X90050000Y-106305713D01*
X90121429Y-106448571D01*
X90192857Y-106519999D01*
X90335714Y-106591428D01*
X89478571Y-104377142D02*
X89478571Y-105091428D01*
X90192857Y-105162857D01*
X90121429Y-105091428D01*
X90050000Y-104948571D01*
X90050000Y-104591428D01*
X90121429Y-104448571D01*
X90192857Y-104377142D01*
X90335714Y-104305714D01*
X90692857Y-104305714D01*
X90835714Y-104377142D01*
X90907143Y-104448571D01*
X90978571Y-104591428D01*
X90978571Y-104948571D01*
X90907143Y-105091428D01*
X90835714Y-105162857D01*
X90835714Y-102805714D02*
X90907143Y-102877143D01*
X90978571Y-103091429D01*
X90978571Y-103234286D01*
X90907143Y-103448571D01*
X90764286Y-103591429D01*
X90621429Y-103662857D01*
X90335714Y-103734286D01*
X90121429Y-103734286D01*
X89835714Y-103662857D01*
X89692857Y-103591429D01*
X89550000Y-103448571D01*
X89478571Y-103234286D01*
X89478571Y-103091429D01*
X89550000Y-102877143D01*
X89621429Y-102805714D01*
X89478571Y-101877143D02*
X89478571Y-101734286D01*
X89550000Y-101591429D01*
X89621429Y-101520000D01*
X89764286Y-101448571D01*
X90050000Y-101377143D01*
X90407143Y-101377143D01*
X90692857Y-101448571D01*
X90835714Y-101520000D01*
X90907143Y-101591429D01*
X90978571Y-101734286D01*
X90978571Y-101877143D01*
X90907143Y-102020000D01*
X90835714Y-102091429D01*
X90692857Y-102162857D01*
X90407143Y-102234286D01*
X90050000Y-102234286D01*
X89764286Y-102162857D01*
X89621429Y-102091429D01*
X89550000Y-102020000D01*
X89478571Y-101877143D01*
X89621429Y-100805715D02*
X89550000Y-100734286D01*
X89478571Y-100591429D01*
X89478571Y-100234286D01*
X89550000Y-100091429D01*
X89621429Y-100020000D01*
X89764286Y-99948572D01*
X89907143Y-99948572D01*
X90121429Y-100020000D01*
X90978571Y-100877143D01*
X90978571Y-99948572D01*
X86298571Y-110132856D02*
X86298571Y-110418570D01*
X86370000Y-110561427D01*
X86441429Y-110632856D01*
X86655714Y-110775713D01*
X86941429Y-110847142D01*
X87512857Y-110847142D01*
X87655714Y-110775713D01*
X87727143Y-110704285D01*
X87798571Y-110561427D01*
X87798571Y-110275713D01*
X87727143Y-110132856D01*
X87655714Y-110061427D01*
X87512857Y-109989999D01*
X87155714Y-109989999D01*
X87012857Y-110061427D01*
X86941429Y-110132856D01*
X86870000Y-110275713D01*
X86870000Y-110561427D01*
X86941429Y-110704285D01*
X87012857Y-110775713D01*
X87155714Y-110847142D01*
X86298571Y-108632856D02*
X86298571Y-109347142D01*
X87012857Y-109418571D01*
X86941429Y-109347142D01*
X86870000Y-109204285D01*
X86870000Y-108847142D01*
X86941429Y-108704285D01*
X87012857Y-108632856D01*
X87155714Y-108561428D01*
X87512857Y-108561428D01*
X87655714Y-108632856D01*
X87727143Y-108704285D01*
X87798571Y-108847142D01*
X87798571Y-109204285D01*
X87727143Y-109347142D01*
X87655714Y-109418571D01*
X86298571Y-107632857D02*
X86298571Y-107490000D01*
X86370000Y-107347143D01*
X86441429Y-107275714D01*
X86584286Y-107204285D01*
X86870000Y-107132857D01*
X87227143Y-107132857D01*
X87512857Y-107204285D01*
X87655714Y-107275714D01*
X87727143Y-107347143D01*
X87798571Y-107490000D01*
X87798571Y-107632857D01*
X87727143Y-107775714D01*
X87655714Y-107847143D01*
X87512857Y-107918571D01*
X87227143Y-107990000D01*
X86870000Y-107990000D01*
X86584286Y-107918571D01*
X86441429Y-107847143D01*
X86370000Y-107775714D01*
X86298571Y-107632857D01*
X86441429Y-106561429D02*
X86370000Y-106490000D01*
X86298571Y-106347143D01*
X86298571Y-105990000D01*
X86370000Y-105847143D01*
X86441429Y-105775714D01*
X86584286Y-105704286D01*
X86727143Y-105704286D01*
X86941429Y-105775714D01*
X87798571Y-106632857D01*
X87798571Y-105704286D01*
X87727143Y-103990001D02*
X87798571Y-103775715D01*
X87798571Y-103418572D01*
X87727143Y-103275715D01*
X87655714Y-103204286D01*
X87512857Y-103132858D01*
X87370000Y-103132858D01*
X87227143Y-103204286D01*
X87155714Y-103275715D01*
X87084286Y-103418572D01*
X87012857Y-103704286D01*
X86941429Y-103847144D01*
X86870000Y-103918572D01*
X86727143Y-103990001D01*
X86584286Y-103990001D01*
X86441429Y-103918572D01*
X86370000Y-103847144D01*
X86298571Y-103704286D01*
X86298571Y-103347144D01*
X86370000Y-103132858D01*
X87798571Y-102275715D02*
X87727143Y-102418573D01*
X87655714Y-102490001D01*
X87512857Y-102561430D01*
X87084286Y-102561430D01*
X86941429Y-102490001D01*
X86870000Y-102418573D01*
X86798571Y-102275715D01*
X86798571Y-102061430D01*
X86870000Y-101918573D01*
X86941429Y-101847144D01*
X87084286Y-101775715D01*
X87512857Y-101775715D01*
X87655714Y-101847144D01*
X87727143Y-101918573D01*
X87798571Y-102061430D01*
X87798571Y-102275715D01*
X87727143Y-100490001D02*
X87798571Y-100632858D01*
X87798571Y-100918572D01*
X87727143Y-101061430D01*
X87655714Y-101132858D01*
X87512857Y-101204287D01*
X87084286Y-101204287D01*
X86941429Y-101132858D01*
X86870000Y-101061430D01*
X86798571Y-100918572D01*
X86798571Y-100632858D01*
X86870000Y-100490001D01*
X87798571Y-99847144D02*
X86298571Y-99847144D01*
X87227143Y-99704287D02*
X87798571Y-99275716D01*
X86798571Y-99275716D02*
X87370000Y-99847144D01*
X87727143Y-98061430D02*
X87798571Y-98204287D01*
X87798571Y-98490001D01*
X87727143Y-98632858D01*
X87584286Y-98704287D01*
X87012857Y-98704287D01*
X86870000Y-98632858D01*
X86798571Y-98490001D01*
X86798571Y-98204287D01*
X86870000Y-98061430D01*
X87012857Y-97990001D01*
X87155714Y-97990001D01*
X87298571Y-98704287D01*
X86798571Y-97561430D02*
X86798571Y-96990001D01*
X86298571Y-97347144D02*
X87584286Y-97347144D01*
X87727143Y-97275716D01*
X87798571Y-97132858D01*
X87798571Y-96990001D01*
D13*
X88180000Y-78840000D02*
G75*
G02X86180000Y-78840000I-1000000J0D01*
G01*
X86180000Y-78840000D02*
X80720000Y-78840000D01*
X80720000Y-78840000D02*
X80720000Y-129760000D01*
X80720000Y-129760000D02*
X93640000Y-129760000D01*
X93640000Y-129760000D02*
X93640000Y-78840000D01*
X93640000Y-78840000D02*
X88180000Y-78840000D01*
X78230000Y-78780000D02*
X78230000Y-129820000D01*
X78230000Y-129820000D02*
X96130000Y-129820000D01*
X96130000Y-129820000D02*
X96130000Y-78780000D01*
X96130000Y-78780000D02*
X78230000Y-78780000D01*
X55310000Y-72080000D02*
X50110000Y-72080000D01*
X55310000Y-130560000D02*
X55310000Y-72080000D01*
X50110000Y-133160000D02*
X50110000Y-72080000D01*
X55310000Y-130560000D02*
X52710000Y-130560000D01*
X52710000Y-130560000D02*
X52710000Y-133160000D01*
X52710000Y-133160000D02*
X50110000Y-133160000D01*
X55310000Y-131830000D02*
X55310000Y-133160000D01*
X55310000Y-133160000D02*
X53980000Y-133160000D01*
X93780000Y-76270000D02*
X93780000Y-71070000D01*
X88640000Y-76270000D02*
X93780000Y-76270000D01*
X86040000Y-71070000D02*
X93780000Y-71070000D01*
X88640000Y-76270000D02*
X88640000Y-73670000D01*
X88640000Y-73670000D02*
X86040000Y-73670000D01*
X86040000Y-73670000D02*
X86040000Y-71070000D01*
X87370000Y-76270000D02*
X86040000Y-76270000D01*
X86040000Y-76270000D02*
X86040000Y-74940000D01*
X83480000Y-74070000D02*
X83480000Y-73070000D01*
X84840000Y-73070000D02*
X84840000Y-74070000D01*
X91590000Y-78840000D02*
G75*
G02X89590000Y-78840000I-1000000J0D01*
G01*
X89590000Y-78840000D02*
X84130000Y-78840000D01*
X84130000Y-78840000D02*
X84130000Y-129760000D01*
X84130000Y-129760000D02*
X97050000Y-129760000D01*
X97050000Y-129760000D02*
X97050000Y-78840000D01*
X97050000Y-78840000D02*
X91590000Y-78840000D01*
X81640000Y-78780000D02*
X81640000Y-129820000D01*
X81640000Y-129820000D02*
X99540000Y-129820000D01*
X99540000Y-129820000D02*
X99540000Y-78780000D01*
X99540000Y-78780000D02*
X81640000Y-78780000D01*
D14*
X78876667Y-76822381D02*
X78876667Y-77536667D01*
X78829047Y-77679524D01*
X78733809Y-77774762D01*
X78590952Y-77822381D01*
X78495714Y-77822381D01*
X79876667Y-77822381D02*
X79305238Y-77822381D01*
X79590952Y-77822381D02*
X79590952Y-76822381D01*
X79495714Y-76965238D01*
X79400476Y-77060476D01*
X79305238Y-77108095D01*
X48726667Y-104502381D02*
X48726667Y-105216667D01*
X48679047Y-105359524D01*
X48583809Y-105454762D01*
X48440952Y-105502381D01*
X48345714Y-105502381D01*
X49155238Y-104597619D02*
X49202857Y-104550000D01*
X49298095Y-104502381D01*
X49536191Y-104502381D01*
X49631429Y-104550000D01*
X49679048Y-104597619D01*
X49726667Y-104692857D01*
X49726667Y-104788095D01*
X49679048Y-104930952D01*
X49107619Y-105502381D01*
X49726667Y-105502381D01*
X94422381Y-73953333D02*
X95136667Y-73953333D01*
X95279524Y-74000953D01*
X95374762Y-74096191D01*
X95422381Y-74239048D01*
X95422381Y-74334286D01*
X94422381Y-73572381D02*
X94422381Y-72953333D01*
X94803333Y-73286667D01*
X94803333Y-73143809D01*
X94850952Y-73048571D01*
X94898571Y-73000952D01*
X94993810Y-72953333D01*
X95231905Y-72953333D01*
X95327143Y-73000952D01*
X95374762Y-73048571D01*
X95422381Y-73143809D01*
X95422381Y-73429524D01*
X95374762Y-73524762D01*
X95327143Y-73572381D01*
X83012381Y-74152857D02*
X82536190Y-74486191D01*
X83012381Y-74724286D02*
X82012381Y-74724286D01*
X82012381Y-74343333D01*
X82060000Y-74248095D01*
X82107619Y-74200476D01*
X82202857Y-74152857D01*
X82345714Y-74152857D01*
X82440952Y-74200476D01*
X82488571Y-74248095D01*
X82536190Y-74343333D01*
X82536190Y-74724286D01*
X82107619Y-73771905D02*
X82060000Y-73724286D01*
X82012381Y-73629048D01*
X82012381Y-73390952D01*
X82060000Y-73295714D01*
X82107619Y-73248095D01*
X82202857Y-73200476D01*
X82298095Y-73200476D01*
X82440952Y-73248095D01*
X83012381Y-73819524D01*
X83012381Y-73200476D01*
X82012381Y-72295714D02*
X82012381Y-72771905D01*
X82488571Y-72819524D01*
X82440952Y-72771905D01*
X82393333Y-72676667D01*
X82393333Y-72438571D01*
X82440952Y-72343333D01*
X82488571Y-72295714D01*
X82583810Y-72248095D01*
X82821905Y-72248095D01*
X82917143Y-72295714D01*
X82964762Y-72343333D01*
X83012381Y-72438571D01*
X83012381Y-72676667D01*
X82964762Y-72771905D01*
X82917143Y-72819524D01*
X97588095Y-77462381D02*
X97588095Y-78271905D01*
X97635714Y-78367143D01*
X97683333Y-78414762D01*
X97778571Y-78462381D01*
X97969048Y-78462381D01*
X98064286Y-78414762D01*
X98111905Y-78367143D01*
X98159524Y-78271905D01*
X98159524Y-77462381D01*
X99159524Y-78462381D02*
X98588095Y-78462381D01*
X98873809Y-78462381D02*
X98873809Y-77462381D01*
X98778571Y-77605238D01*
X98683333Y-77700476D01*
X98588095Y-77748095D01*
M02*
