G04 #@! TF.FileFunction,Copper,L1,Top,Signal*
%FSLAX46Y46*%
G04 Gerber Fmt 4.6, Leading zero omitted, Abs format (unit mm)*
G04 Created by KiCad (PCBNEW 4.0.7) date 07/31/18 16:14:13*
%MOMM*%
%LPD*%
G01*
G04 APERTURE LIST*
%ADD10C,0.100000*%
%ADD11R,1.600000X1.600000*%
%ADD12O,1.600000X1.600000*%
%ADD13R,1.700000X1.700000*%
%ADD14O,1.700000X1.700000*%
%ADD15R,0.900000X0.500000*%
%ADD16C,0.600000*%
%ADD17C,0.250000*%
%ADD18C,0.750000*%
G04 APERTURE END LIST*
D10*
D11*
X79560000Y-80170000D03*
D12*
X94800000Y-128430000D03*
X79560000Y-82710000D03*
X94800000Y-125890000D03*
X79560000Y-85250000D03*
X94800000Y-123350000D03*
X79560000Y-87790000D03*
X94800000Y-120810000D03*
X79560000Y-90330000D03*
X94800000Y-118270000D03*
X79560000Y-92870000D03*
X94800000Y-115730000D03*
X79560000Y-95410000D03*
X94800000Y-113190000D03*
X79560000Y-97950000D03*
X94800000Y-110650000D03*
X79560000Y-100490000D03*
X94800000Y-108110000D03*
X79560000Y-103030000D03*
X94800000Y-105570000D03*
X79560000Y-105570000D03*
X94800000Y-103030000D03*
X79560000Y-108110000D03*
X94800000Y-100490000D03*
X79560000Y-110650000D03*
X94800000Y-97950000D03*
X79560000Y-113190000D03*
X94800000Y-95410000D03*
X79560000Y-115730000D03*
X94800000Y-92870000D03*
X79560000Y-118270000D03*
X94800000Y-90330000D03*
X79560000Y-120810000D03*
X94800000Y-87790000D03*
X79560000Y-123350000D03*
X94800000Y-85250000D03*
X79560000Y-125890000D03*
X94800000Y-82710000D03*
X79560000Y-128430000D03*
X94800000Y-80170000D03*
D13*
X53980000Y-131830000D03*
D14*
X51440000Y-131830000D03*
X53980000Y-129290000D03*
X51440000Y-129290000D03*
X53980000Y-126750000D03*
X51440000Y-126750000D03*
X53980000Y-124210000D03*
X51440000Y-124210000D03*
X53980000Y-121670000D03*
X51440000Y-121670000D03*
X53980000Y-119130000D03*
X51440000Y-119130000D03*
X53980000Y-116590000D03*
X51440000Y-116590000D03*
X53980000Y-114050000D03*
X51440000Y-114050000D03*
X53980000Y-111510000D03*
X51440000Y-111510000D03*
X53980000Y-108970000D03*
X51440000Y-108970000D03*
X53980000Y-106430000D03*
X51440000Y-106430000D03*
X53980000Y-103890000D03*
X51440000Y-103890000D03*
X53980000Y-101350000D03*
X51440000Y-101350000D03*
X53980000Y-98810000D03*
X51440000Y-98810000D03*
X53980000Y-96270000D03*
X51440000Y-96270000D03*
X53980000Y-93730000D03*
X51440000Y-93730000D03*
X53980000Y-91190000D03*
X51440000Y-91190000D03*
X53980000Y-88650000D03*
X51440000Y-88650000D03*
X53980000Y-86110000D03*
X51440000Y-86110000D03*
X53980000Y-83570000D03*
X51440000Y-83570000D03*
X53980000Y-81030000D03*
X51440000Y-81030000D03*
X53980000Y-78490000D03*
X51440000Y-78490000D03*
X53980000Y-75950000D03*
X51440000Y-75950000D03*
X53980000Y-73410000D03*
X51440000Y-73410000D03*
D13*
X87370000Y-74940000D03*
D14*
X87370000Y-72400000D03*
X89910000Y-74940000D03*
X89910000Y-72400000D03*
X92450000Y-74940000D03*
X92450000Y-72400000D03*
D15*
X84160000Y-72820000D03*
X84160000Y-74320000D03*
D11*
X82970000Y-80170000D03*
D12*
X98210000Y-128430000D03*
X82970000Y-82710000D03*
X98210000Y-125890000D03*
X82970000Y-85250000D03*
X98210000Y-123350000D03*
X82970000Y-87790000D03*
X98210000Y-120810000D03*
X82970000Y-90330000D03*
X98210000Y-118270000D03*
X82970000Y-92870000D03*
X98210000Y-115730000D03*
X82970000Y-95410000D03*
X98210000Y-113190000D03*
X82970000Y-97950000D03*
X98210000Y-110650000D03*
X82970000Y-100490000D03*
X98210000Y-108110000D03*
X82970000Y-103030000D03*
X98210000Y-105570000D03*
X82970000Y-105570000D03*
X98210000Y-103030000D03*
X82970000Y-108110000D03*
X98210000Y-100490000D03*
X82970000Y-110650000D03*
X98210000Y-97950000D03*
X82970000Y-113190000D03*
X98210000Y-95410000D03*
X82970000Y-115730000D03*
X98210000Y-92870000D03*
X82970000Y-118270000D03*
X98210000Y-90330000D03*
X82970000Y-120810000D03*
X98210000Y-87790000D03*
X82970000Y-123350000D03*
X98210000Y-85250000D03*
X82970000Y-125890000D03*
X98210000Y-82710000D03*
X82970000Y-128430000D03*
X98210000Y-80170000D03*
D16*
X74250000Y-117800000D03*
X89630000Y-123280000D03*
X74190000Y-119180000D03*
X88640000Y-123650000D03*
X74130000Y-120420000D03*
X74680000Y-90070000D03*
D17*
X91350000Y-125890000D02*
X94800000Y-125890000D01*
X90420000Y-124960000D02*
X91350000Y-125890000D01*
X90420000Y-120580000D02*
X90420000Y-124960000D01*
X89380000Y-119540000D02*
X90420000Y-120580000D01*
X75990000Y-119540000D02*
X89380000Y-119540000D01*
X74250000Y-117800000D02*
X75990000Y-119540000D01*
X89630000Y-122440000D02*
X89630000Y-123280000D01*
X89230000Y-122040000D02*
X89630000Y-122440000D01*
X77050000Y-122040000D02*
X89230000Y-122040000D01*
X74190000Y-119180000D02*
X77050000Y-122040000D01*
X87610000Y-124680000D02*
X88640000Y-123650000D01*
X78430000Y-124680000D02*
X87610000Y-124680000D01*
X77580000Y-123830000D02*
X78430000Y-124680000D01*
X77540000Y-123830000D02*
X77580000Y-123830000D01*
X74130000Y-120420000D02*
X77540000Y-123830000D01*
X91770000Y-115730000D02*
X94800000Y-115730000D01*
X89570000Y-113530000D02*
X91770000Y-115730000D01*
X89570000Y-102560000D02*
X89570000Y-113530000D01*
X86249443Y-99270000D02*
X89570000Y-102560000D01*
X78021071Y-99270000D02*
X86249443Y-99270000D01*
X76430000Y-97650000D02*
X78021071Y-99270000D01*
X76430000Y-91820000D02*
X76430000Y-97650000D01*
X74680000Y-90070000D02*
X76430000Y-91820000D01*
X82970000Y-95410000D02*
X84920000Y-95410000D01*
X89910000Y-90420000D02*
X89910000Y-74940000D01*
X84920000Y-95410000D02*
X89910000Y-90420000D01*
D18*
X82970000Y-97950000D02*
X87480000Y-97950000D01*
X87370000Y-70820000D02*
X87370000Y-72400000D01*
X88580000Y-69610000D02*
X87370000Y-70820000D01*
X93960000Y-69610000D02*
X88580000Y-69610000D01*
X95710000Y-71360000D02*
X93960000Y-69610000D01*
X95710000Y-76460000D02*
X95710000Y-71360000D01*
X95250000Y-76920000D02*
X95710000Y-76460000D01*
X93430000Y-76920000D02*
X95250000Y-76920000D01*
X92050000Y-78300000D02*
X93430000Y-76920000D01*
X92050000Y-93380000D02*
X92050000Y-78300000D01*
X87480000Y-97950000D02*
X92050000Y-93380000D01*
X87370000Y-72400000D02*
X84580000Y-72400000D01*
X84580000Y-72400000D02*
X84160000Y-72820000D01*
D17*
X82970000Y-82710000D02*
X82790000Y-82710000D01*
X82790000Y-82710000D02*
X81400000Y-81320000D01*
X81400000Y-81320000D02*
X81400000Y-77080000D01*
X81400000Y-77080000D02*
X84160000Y-74320000D01*
X87370000Y-74940000D02*
X84780000Y-74940000D01*
X84780000Y-74940000D02*
X84160000Y-74320000D01*
M02*
